<svg xmlns="http://www.w3.org/2000/svg" width="380.19970703125" height="89.43829345703125" viewBox="-146.64288330078125 60.89643859863281 380.19970703125 89.43829345703125"><title>Neo4j Graph Visualization</title><desc>Created using Neo4j (http://www.neo4j.com/)</desc><g class="layer relationships"><g class="relationship" transform="translate(-31.187484741210938 104.89643801102002) rotate(360.373314617522)"><path class="outline" fill="#A5ABB6" stroke="none" d="M 40 0.5 L 77.94482782105796 0.5 L 77.94482782105796 -0.5 L 40 -0.5 Z M 135.80420282105797 0.5 L 173.7490306421159 0.5 L 173.7490306421159 3.5 L 180.7490306421159 0 L 173.7490306421159 -3.5 L 173.7490306421159 -0.5 L 135.80420282105797 -0.5 Z"/><text text-anchor="middle" pointer-events="none" font-size="8px" fill="#000000" x="106.87451532105796" y="3" font-family="sans-serif">IN_COUNTRY</text></g><g class="relationship" transform="translate(-31.187484741210938 104.89643801102002) rotate(450.37331461752206)"><path class="outline" fill="#A5ABB6" stroke="none" d="M 10.835724717245366 38.50762352901147 L 21.188486521346196 77.14465658057419 A 21.935935394489817 21.935935394489817 0 1 1 -21.188486521346196 77.14465658057419 L -12.647458032963009 45.26910431303495 L -8.783754727806736 46.30438049344503 L -10.352761804100831 38.63703305156273 L -15.545235511830214 44.49264717772739 L -11.68153220667394 45.52792335813747 L -20.22256069505713 77.40347562567672 A 20.935935394489817 20.935935394489817 0 1 0 20.22256069505713 77.40347562567672 L 9.869798890956297 38.76644257411399 Z"/><text text-anchor="middle" pointer-events="none" font-size="8px" fill="#000000" x="0" y="113.75802982729645" transform="rotate(180 0 110.75802982729645)" font-family="sans-serif">EROAD</text></g></g><g class="layer nodes"><g class="node" transform="translate(189.5568602276657,106.33473342414206)"><circle class="outline" cx="0" cy="0" r="40" fill="#F16667" stroke="#eb2728" stroke-width="2px"/><text text-anchor="middle" pointer-events="none" font-family="sans-serif" dy="2.5" font-size="40" fill="#FFFFFF"/><text text-anchor="middle" pointer-events="none" y="5" font-size="10px" fill="#FFFFFF" font-family="sans-serif"> Country</text></g><g class="node" transform="translate(-31.187484741210938,104.89643801102002)"><circle class="outline" cx="0" cy="0" r="40" fill="#4C8EDA" stroke="#2870c2" stroke-width="2px"/><text text-anchor="middle" pointer-events="none" font-family="sans-serif" dy="2.5" font-size="40" fill="#FFFFFF"/><text text-anchor="middle" pointer-events="none" y="5" font-size="10px" fill="#FFFFFF" font-family="sans-serif"> Place</text></g></g></svg>