<svg xmlns="http://www.w3.org/2000/svg" xmlns:xlink="http://www.w3.org/1999/xlink" xmlns:lucid="lucid" width="1385.88" height="615.42"><g transform="translate(-11.299548776452042 -101)" lucid:page-tab-id="0_0"><path d="M431.3 455.2c0 38.67-31.34 70-70 70s-70-31.33-70-70c0-38.65 31.34-70 70-70s70 31.35 70 70z" stroke="#16c461" stroke-width="2" fill="#5dc48a"/><use xlink:href="#a" transform="matrix(1,0,0,1,296.29954877645207,390.20529837618915) translate(11.837890625000007 74.12087673611111)"/><path d="M1041.3 215.2c0 38.67-31.34 70-70 70s-70-31.33-70-70c0-38.65 31.34-70 70-70s70 31.35 70 70z" stroke="#f74f7b" stroke-width="2" fill="#f77e9f"/><use xlink:href="#b" transform="matrix(1,0,0,1,906.2995487764521,150.2052983761891) translate(12.764756944444443 73.62087673611111)"/><path d="M692.58 368.86l-5.57 5-6.28 5.18-7.13 5.38-8.1 5.6-9.17 5.8-10.46 6-11.9 6.2-13.55 6.32-15.37 6.42-17.32 6.4-19.32 6.23-21.2 5.86-22.76 5.3-23.72 4.47-23.84 3.47-23.07 2.4-3.23.2-.13-2 3.2-.2 23-2.38 23.75-3.47 23.63-4.46 22.67-5.28 21.13-5.85 19.25-6.2 17.24-6.37 15.3-6.4 13.46-6.3 11.83-6.14 10.4-5.96 9.1-5.76 8.02-5.54 7.06-5.33 6.22-5.13 5.52-4.94 2.58-2.52h2.87zM900.3 216.2l-4.33.07-6.3.3-6.13.56-6 .8-5.92 1.05-5.85 1.3-5.8 1.52-5.82 1.8-5.83 2.08-5.9 2.4-6 2.7-6.12 3.1-6.32 3.54-6.57 4.05-6.9 4.66-7.35 5.43-7.97 6.42-8.86 7.76-10.25 9.78-12.9 13.4-39.53 45.7H721l40.7-47.06 12.96-13.46 10.3-9.84 8.93-7.82 8.02-6.46 7.43-5.48 6.97-4.7 6.65-4.1 6.4-3.58 6.2-3.14 6.06-2.75 5.97-2.42 5.92-2.1 5.88-1.82 5.9-1.56 5.93-1.3 6-1.06 6.1-.8 6.2-.58 6.38-.3 4.38-.07zM450.06 458.76L435.53 455l13.96-5.5z"/><path d="M451.14 460.07l-18.84-4.86 18.1-7.13zm-12.38-5.26l10.2 2.65-.4-6.5zM901.3 215.2l.03.95-.98.05-.1-2 1.1-.05z"/><use xlink:href="#c" transform="matrix(1,0,0,1,656.8532203775876,334.6166127028694) translate(0 23.75217013888889)"/><path d="M1351.3 455.2c0 38.67-31.34 70-70 70s-70-31.33-70-70c0-38.65 31.34-70 70-70s70 31.35 70 70z" stroke="#1d93f4" stroke-width="2" fill="#57aef4"/><use xlink:href="#d" transform="matrix(1,0,0,1,1216.299548776452,390.20529837618915) translate(43.38541666666667 73.62087673611111)"/><path d="M1137.85 379l3.4 11.36 2.92 8.48 2.65 6.75 2.47 5.57 2.32 4.73 2.23 4.08 2.15 3.57 2.08 3.15 2.04 2.8 2 2.54 1.95 2.28 1.94 2.08 1.94 1.9 1.92 1.73 1.92 1.6 1.94 1.47 1.94 1.36 1.98 1.25 2 1.18 2.04 1.07 2.1 1 2.14.9 2.22.83 2.3.75 2.08.58-.54 1.94-2.12-.6-2.38-.77-2.3-.86-2.22-.93-2.17-1.03-2.13-1.1-2.07-1.22-2.05-1.3-2-1.4-2-1.53-2-1.66-1.98-1.8-2-1.95-2-2.14-2-2.35-2.05-2.58-2.08-2.88-2.13-3.22-2.18-3.64-2.27-4.15-2.37-4.8-2.5-5.67-2.7-6.83-2.94-8.56-3.42-11.45-6.78-30h2.05zm-88.87-164.8l3.03.2 2.86.3 2.7.42 2.57.5 2.45.57 2.34.65 2.27.74 2.17.8 2.12.9 2.06.98 2.02 1.06 1.98 1.15 1.95 1.24 1.94 1.34 1.92 1.46 1.9 1.6 1.9 1.7 1.92 1.9 1.92 2.04 1.94 2.26 1.97 2.5 2.02 2.78 2.06 3.12 2.13 3.52 2.2 4.03 2.3 4.66 2.45 5.5 2.62 6.68 2.9 8.38 3.35 11.25 4.5 17.87 2.93 12.9h-2.05l-2.8-12.43-4.5-17.8-3.34-11.17-2.86-8.3-2.6-6.6-2.4-5.42-2.27-4.6-2.16-3.95-2.08-3.45-2.02-3.04-1.96-2.7-1.92-2.45-1.9-2.18-1.85-2-1.85-1.82-1.85-1.66-1.84-1.53-1.83-1.4-1.87-1.3-1.88-1.2-1.9-1.1-1.95-1.03-2-.94-2.04-.86-2.1-.8-2.2-.7-2.25-.64-2.37-.56-2.47-.48-2.62-.4-2.76-.3-2.95-.2-3.16-.06-3.42.06-.04-2 3.46-.06z"/><path d="M1042.36 214.2l-.1 2-1-.05.04-.94-.04-1.06zM1207.1 454.8l-14.74 2.86 1.14-9.2z"/><path d="M1210.3 455.2l-19.1 3.7 1.47-11.93zm-16.78 1.22l10.36-2-9.56-4.47z"/><use xlink:href="#e" transform="matrix(1,0,0,1,1056.5457647988871,319.25449796516455) translate(0 23.75217013888889)"/><g fill="none"><path d="M608.06 121L726.4 278.98 598.34 374.9 480 216.93z"/><path d="M598.34 374.9c-3.3-4.4-2.4-10.68 2-14l48.03-35.96c4.42-3.32 5.32-9.58 2-14 3.32 4.42 9.6 5.32 14 2l48.03-35.97c4.42-3.3 10.7-2.4 14 2" stroke="#000" stroke-width="2"/></g><use xlink:href="#f" transform="matrix(0.5995293671262104,0.8003527584467024,-0.8003527584467024,0.5995293671262104,607.05232439487,127.99941062786456) translate(19.208767361111086 68.48958333333333)"/><use xlink:href="#g" transform="matrix(0.5995293671262104,0.8003527584467024,-0.8003527584467024,0.5995293671262104,607.05232439487,127.99941062786456) translate(6.307291666666686 98.75217013888889)"/><use xlink:href="#h" transform="matrix(0.5995293671262104,0.8003527584467024,-0.8003527584467024,0.5995293671262104,607.05232439487,127.99941062786456) translate(94.25217013888889 98.75217013888889)"/><g fill="none"><path d="M1131.3 232.85l150.6-111.65 95.28 128.53-150.6 111.65z"/><path d="M1226.6 361.38c4.43-3.3 5.36-9.55 2.07-14l-35.74-48.2c-3.28-4.42-2.35-10.7 2.08-13.98-4.42 3.3-10.7 2.36-13.98-2.07l-35.73-48.2c-3.3-4.44-9.56-5.37-14-2.08" stroke="#000" stroke-width="2"/></g><use xlink:href="#i" transform="matrix(0.8032944065371336,-0.5955821491835986,0.5955821491835986,0.8032944065371336,1162.3927637511697,216.0229671221366) translate(0 53.35828993055556)"/><use xlink:href="#j" transform="matrix(0.8032944065371336,-0.5955821491835986,0.5955821491835986,0.8032944065371336,1162.3927637511697,216.0229671221366) translate(0 83.62087673611111)"/><use xlink:href="#k" transform="matrix(0.8032944065371336,-0.5955821491835986,0.5955821491835986,0.8032944065371336,1162.3927637511697,216.0229671221366) translate(0 113.88346354166666)"/><g fill="none"><path d="M1200 667V535h174v132z"/><path d="M1374 535c0 6-4.87 10.88-10.88 10.88h-65.24c-6 0-10.88 4.86-10.88 10.87 0-6-4.87-10.88-10.88-10.88h-65.24c-6 0-10.88-4.86-10.88-10.87" stroke="#000" stroke-width="2"/></g><use xlink:href="#l" transform="matrix(1,2.4492935982947064e-16,-2.4492935982947064e-16,1,1205,572.6250000000001) translate(4.896267361111086 38.489583333333336)"/><use xlink:href="#m" transform="matrix(1,2.4492935982947064e-16,-2.4492935982947064e-16,1,1205,572.6250000000001) translate(72.04036458333331 38.489583333333336)"/><use xlink:href="#n" transform="matrix(1,2.4492935982947064e-16,-2.4492935982947064e-16,1,1205,572.6250000000001) translate(16.47395833333337 68.75217013888889)"/><use xlink:href="#o" transform="matrix(1,2.4492935982947064e-16,-2.4492935982947064e-16,1,1205,572.6250000000001) translate(90.86631944444447 68.75217013888889)"/><path d="M271.3 525.2h320v116.67h-320z" stroke="#000" stroke-opacity="0" stroke-width="2" fill="#fff" fill-opacity="0"/><use xlink:href="#p" transform="matrix(1,0,0,1,276.29954877645207,530.2052983761891) translate(0 31.858289930555554)"/><use xlink:href="#q" transform="matrix(1,0,0,1,276.29954877645207,530.2052983761891) translate(75.08680555555556 31.858289930555554)"/><use xlink:href="#r" transform="matrix(1,0,0,1,276.29954877645207,530.2052983761891) translate(126.79036458333333 31.858289930555554)"/><use xlink:href="#s" transform="matrix(1,0,0,1,276.29954877645207,530.2052983761891) translate(0 62.120876736111114)"/><use xlink:href="#t" transform="matrix(1,0,0,1,276.29954877645207,530.2052983761891) translate(158.19227430555554 62.120876736111114)"/><use xlink:href="#u" transform="matrix(1,0,0,1,276.29954877645207,530.2052983761891) translate(0 92.38346354166666)"/><use xlink:href="#v" transform="matrix(1,0,0,1,276.29954877645207,530.2052983761891) translate(153.05989583333331 92.38346354166666)"/><path d="M31.3 535.34h220v96h-220z" fill="none"/><path d="M251.3 631.34c-3.3 0-6-2.7-6-6v-36c0-3.32-2.7-6-6-6 3.3 0 6-2.7 6-6v-36c0-3.32 2.7-6 6-6" stroke="#000" stroke-width="2" fill="none"/><g><use xlink:href="#l" transform="matrix(1,0,0,1,36.29954877645204,540.3386317095225) translate(37.095486111111114 23.75217013888889)"/><use xlink:href="#w" transform="matrix(1,0,0,1,36.29954877645204,540.3386317095225) translate(104.23958333333334 23.75217013888889)"/><use xlink:href="#x" transform="matrix(1,0,0,1,36.29954877645204,540.3386317095225) translate(145.39626736111111 23.75217013888889)"/><use xlink:href="#y" transform="matrix(1,0,0,1,36.29954877645204,540.3386317095225) translate(92.44487847222223 54.01475694444444)"/><use xlink:href="#z" transform="matrix(1,0,0,1,36.29954877645204,540.3386317095225) translate(8.471354166666686 84.27734375)"/><use xlink:href="#A" transform="matrix(1,0,0,1,36.29954877645204,540.3386317095225) translate(136.32508680555557 84.27734375)"/></g><path d="M635 320h280v140H635z" stroke="#000" stroke-opacity="0" stroke-width="2" fill="#fff" fill-opacity="0"/><g><use xlink:href="#B" transform="matrix(1,0,0,1,640,325) translate(37.27001953125 71.98291015625)"/><use xlink:href="#C" transform="matrix(1,0,0,1,640,325) translate(138.81005859375 71.98291015625)"/></g><g fill="none"><path d="M649.33 581V420h251.34v161z"/><path d="M900.67 420c0 8.68-7.04 15.7-15.7 15.7H790.7c-8.67 0-15.7 7.04-15.7 15.72 0-8.68-7.03-15.7-15.7-15.7h-94.26c-8.67 0-15.7-7.04-15.7-15.72" stroke="#000" stroke-width="2"/></g><g><use xlink:href="#D" transform="matrix(1,2.4492935982947064e-16,-2.4492935982947064e-16,1,654.3333333333335,472.12500000000017) translate(18.204427083333343 30.358289930555554)"/><use xlink:href="#w" transform="matrix(1,2.4492935982947064e-16,-2.4492935982947064e-16,1,654.3333333333335,472.12500000000017) translate(154.23958333333334 30.358289930555554)"/><use xlink:href="#x" transform="matrix(1,2.4492935982947064e-16,-2.4492935982947064e-16,1,654.3333333333335,472.12500000000017) translate(195.39626736111111 30.358289930555554)"/><use xlink:href="#E" transform="matrix(1,2.4492935982947064e-16,-2.4492935982947064e-16,1,654.3333333333335,472.12500000000017) translate(14.591145833333343 60.620876736111114)"/><use xlink:href="#F" transform="matrix(1,2.4492935982947064e-16,-2.4492935982947064e-16,1,654.3333333333335,472.12500000000017) translate(119.91883680555556 60.620876736111114)"/><use xlink:href="#A" transform="matrix(1,2.4492935982947064e-16,-2.4492935982947064e-16,1,654.3333333333335,472.12500000000017) translate(186.32508680555554 90.88346354166666)"/></g><defs><path d="M1026 0H184v-1462h842v254H494v321h495v254H494v377h532V0" id="G"/><path d="M1384-895c-176 0-222 133-223 334V0H856v-653c-1-144-37-242-168-242-78 0-135 29-170 86s-53 152-53 283V0H160v-1118h233l41 143h17c56-98 174-164 325-164 167 0 281 55 340 164h27c55-99 179-165 330-164 265 2 385 133 385 410V0h-306v-653c-1-144-37-242-168-242" id="H"/><path d="M782-1139c293 0 422 256 422 578 0 230-70 418-202 512-65 46-141 69-228 69-131 0-234-48-309-143h-16c32 222 9 383 16 615H160v-1610h248l43 145h14c71-111 177-166 317-166zm111 574c0-190-40-330-209-330-184 0-221 128-219 332 2 209 40 336 223 336 137 0 205-113 205-338" id="I"/><path d="M465 0H160v-1556h305V0" id="J"/><path d="M633-893c-183 0-230 133-230 332s48 336 232 336c183 0 229-137 229-336s-47-332-231-332zm4-246c347 5 535 225 539 578S978 25 631 20C283 15 96-208 92-561c-4-355 196-583 545-578" id="K"/><path d="M0-1118h334l211 629c18 55 30 119 37 194h6c7-69 23-133 43-194l207-629h327L692 143C611 389 392 544 70 475V233c95 21 196 18 262-37 50-42 89-123 112-204" id="L"/><path d="M836-686c0-141-77-236-213-236-140 0-206 98-215 236h428zm223 627C946-4 838 19 666 20 308 22 92-191 92-551c0-356 187-588 529-588 314 0 504 195 501 508v148H401c5 169 104 277 279 276 158-2 261-33 379-88v236" id="M"/><g id="a"><use transform="matrix(0.010850694444444444,0,0,0.010850694444444444,0,0)" xlink:href="#G"/><use transform="matrix(0.010850694444444444,0,0,0.010850694444444444,12.445746527777777,0)" xlink:href="#H"/><use transform="matrix(0.010850694444444444,0,0,0.010850694444444444,34.26649305555556,0)" xlink:href="#I"/><use transform="matrix(0.010850694444444444,0,0,0.010850694444444444,48.32899305555556,0)" xlink:href="#J"/><use transform="matrix(0.010850694444444444,0,0,0.010850694444444444,55.11067708333333,0)" xlink:href="#K"/><use transform="matrix(0.010850694444444444,0,0,0.010850694444444444,68.42447916666667,0)" xlink:href="#L"/><use transform="matrix(0.010850694444444444,0,0,0.010850694444444444,81.06553819444444,0)" xlink:href="#M"/><use transform="matrix(0.010850694444444444,0,0,0.010850694444444444,94.19487847222221,0)" xlink:href="#M"/></g><path d="M1133-1128c-95-42-202-97-328-97-258 0-367 218-367 498 0 326 122 489 367 489 103 0 227-26 373-77v260C1058-5 924 20 776 20c-443 0-662-290-657-749 5-455 236-754 686-754 142 0 285 34 428 103" id="N"/><path d="M618-1141c286 0 465 117 465 396V0H870l-59-152h-8C704-33 632 18 432 20 216 22 86-113 86-334c0-119 44-202 124-262 109-82 356-99 570-100 11-142-39-219-174-219-89 0-194 27-315 81l-101-206c129-67 271-101 428-101zm-71 938c137 0 235-88 233-223v-92c-190 3-382 4-381 186 0 86 49 129 148 129" id="O"/><path d="M795-1139c261-1 398 148 397 410V0H887v-653c-1-148-42-242-180-242-202 0-242 139-242 369V0H160v-1118h233l41 143h17c62-102 185-163 344-164" id="P"/><g id="b"><use transform="matrix(0.010850694444444444,0,0,0.010850694444444444,0,0)" xlink:href="#N"/><use transform="matrix(0.010850694444444444,0,0,0.010850694444444444,14.16015625,0)" xlink:href="#K"/><use transform="matrix(0.010850694444444444,0,0,0.010850694444444444,27.91883680555556,0)" xlink:href="#H"/><use transform="matrix(0.010850694444444444,0,0,0.010850694444444444,49.73958333333333,0)" xlink:href="#I"/><use transform="matrix(0.010850694444444444,0,0,0.010850694444444444,63.80208333333333,0)" xlink:href="#O"/><use transform="matrix(0.010850694444444444,0,0,0.010850694444444444,77.22439236111111,0)" xlink:href="#P"/><use transform="matrix(0.010850694444444444,0,0,0.010850694444444444,91.82942708333334,0)" xlink:href="#L"/></g><path d="M293 27c-110 0-177-61-176-170 0-113 63-170 176-170 109-1 174 61 174 170 0 105-67 170-174 170zm0-826c-110 0-176-60-176-170 0-113 63-170 176-170 109-1 174 61 174 170 0 107-67 170-174 170" id="Q"/><path d="M1382 0h-309v-631H494V0H184v-1462h310v573h579v-573h309V0" id="R"/><path d="M1079 0L973-348H440L334 0H0l516-1468h379L1413 0h-334zM899-608c-127-415-146-457-192-633-22 85-85 296-189 633h381" id="S"/><path d="M596-1225c-134-8-223 103-163 219 11 21 33 41 61 60s93 53 196 102c137 65 230 130 281 196s76 147 76 242c-3 286-231 426-539 426C352 20 214-9 94-68v-288c159 68 260 115 438 120 123 3 211-41 211-155 0-73-44-105-95-141-63-46-329-160-390-220-78-77-147-167-147-315 0-273 208-420 495-416 177 2 298 46 434 103l-100 241c-131-51-199-78-344-86" id="T"/><path d="M846 324H-4V184h850v140" id="U"/><path d="M817-1485c460 0 694 282 694 752 0 468-238 753-696 753-459 0-696-285-696-755 0-471 238-750 698-750zm0 258c-273 0-374 198-373 494 0 296 98 493 371 493 247 0 371-164 371-493s-123-494-369-494" id="V"/><g id="c"><use transform="matrix(0.010850694444444444,0,0,0.010850694444444444,0,0)" xlink:href="#Q"/><use transform="matrix(0.010850694444444444,0,0,0.010850694444444444,6.336805555555555,0)" xlink:href="#R"/><use transform="matrix(0.010850694444444444,0,0,0.010850694444444444,23.33984375,0)" xlink:href="#S"/><use transform="matrix(0.010850694444444444,0,0,0.010850694444444444,38.671875,0)" xlink:href="#T"/><use transform="matrix(0.010850694444444444,0,0,0.010850694444444444,50.91145833333333,0)" xlink:href="#U"/><use transform="matrix(0.010850694444444444,0,0,0.010850694444444444,60.04774305555555,0)" xlink:href="#N"/><use transform="matrix(0.010850694444444444,0,0,0.010850694444444444,74.20789930555554,0)" xlink:href="#G"/><use transform="matrix(0.010850694444444444,0,0,0.010850694444444444,86.65364583333331,0)" xlink:href="#V"/></g><path d="M479-1407c-1 99-61 150-166 150-111 0-166-50-166-150 0-99 55-149 166-149s166 50 166 149zM465 0H160v-1118h305V0" id="W"/><path d="M498-350c-2 85 52 126 133 127 53 0 117-12 192-35v227C747 3 654 20 543 20c-247 0-350-124-350-370v-539H47v-129l168-102 88-236h195v238h313v229H498v539" id="X"/><g id="d"><use transform="matrix(0.010850694444444444,0,0,0.010850694444444444,0,0)" xlink:href="#N"/><use transform="matrix(0.010850694444444444,0,0,0.010850694444444444,14.16015625,0)" xlink:href="#W"/><use transform="matrix(0.010850694444444444,0,0,0.010850694444444444,20.94184027777778,0)" xlink:href="#X"/><use transform="matrix(0.010850694444444444,0,0,0.010850694444444444,30.58810763888889,0)" xlink:href="#L"/></g><path d="M184 0v-1462h310v1206h593V0H184" id="Y"/><path d="M748 0H438v-1204H41v-258h1104v258H748V0" id="Z"/><path d="M643-1462c464-5 754 260 754 717 0 491-297 749-799 745H184v-1462h459zm432 725c0-314-139-471-416-471H494v952h133c299 0 448-160 448-481" id="aa"/><path d="M184 0v-1462h310V0H184" id="ab"/><path d="M1481 0h-394L451-1106h-9c33 431 14 683 19 1106H184v-1462h391l635 1095h7c-26-429-11-678-15-1095h279V0" id="ac"/><g id="e"><use transform="matrix(0.010850694444444444,0,0,0.010850694444444444,0,0)" xlink:href="#Q"/><use transform="matrix(0.010850694444444444,0,0,0.010850694444444444,6.336805555555555,0)" xlink:href="#Y"/><use transform="matrix(0.010850694444444444,0,0,0.010850694444444444,18.446180555555554,0)" xlink:href="#V"/><use transform="matrix(0.010850694444444444,0,0,0.010850694444444444,36.1328125,0)" xlink:href="#N"/><use transform="matrix(0.010850694444444444,0,0,0.010850694444444444,50.29296875,0)" xlink:href="#S"/><use transform="matrix(0.010850694444444444,0,0,0.010850694444444444,64.07335069444444,0)" xlink:href="#Z"/><use transform="matrix(0.010850694444444444,0,0,0.010850694444444444,76.94227430555556,0)" xlink:href="#G"/><use transform="matrix(0.010850694444444444,0,0,0.010850694444444444,89.38802083333333,0)" xlink:href="#aa"/><use transform="matrix(0.010850694444444444,0,0,0.010850694444444444,105.83767361111111,0)" xlink:href="#U"/><use transform="matrix(0.010850694444444444,0,0,0.010850694444444444,114.97395833333334,0)" xlink:href="#ab"/><use transform="matrix(0.010850694444444444,0,0,0.010850694444444444,122.33072916666666,0)" xlink:href="#ac"/></g><path d="M602-1462c329 0 526 109 526 413 0 193-98 324-294 392L1231 0h-201L676-608H371V0H201v-1462h401zm350 422c0-215-129-271-360-273H371v559h233c223 0 348-78 348-286" id="ad"/><path d="M995-51C878-2 799 19 639 20c-329 2-524-221-524-559 0-326 172-577 481-577 278 0 451 210 446 493v105H287c4 242 121 392 358 393 118 0 235-25 350-74v148zM864-653c2-195-85-324-270-324-190 0-288 139-303 324h573" id="ae"/><path d="M342 0H176v-1556h166V0" id="af"/><path d="M588-1114c260 0 384 106 385 366V0H850l-33-156h-8C708-34 639 17 442 20 231 23 94-94 94-303c0-221 177-337 531-348l186-6c11-203-40-320-233-320-91 0-195 28-310 84l-51-127c97-53 229-94 371-94zM268-301c-1 123 81 184 207 184 203 0 334-120 332-323v-99c-257 14-539-7-539 238" id="ag"/><path d="M354-322c-2 123 60 204 176 205 51 1 114-10 150-20v127C647 7 557 20 506 20 294 20 188-92 188-315v-652H31v-80l157-69 70-234h96v254h318v129H354v645" id="ah"/><path d="M342 0H176v-1096h166V0zm-82-1282c-61 0-98-43-98-111 0-69 36-110 98-110 59 0 98 43 98 110s-39 111-98 111" id="ai"/><path d="M621-1116c316 0 501 239 501 567 0 339-180 575-508 569S119-212 115-549c-4-339 178-567 506-567zm-5 141c-239 0-329 168-329 426 0 255 93 430 331 430s332-174 332-430-95-426-334-426" id="aj"/><path d="M694-1116c270 0 399 125 398 401V0H926v-709c-1-177-76-266-252-266-250 0-332 133-332 400V0H176v-1096h135l27 150h8c62-101 190-170 348-170" id="ak"/><path d="M502-977c-130 0-238 32-238 139 0 75 39 101 95 134 33 19 97 46 192 81 130 48 217 95 263 143s69 108 69 181C883-73 695 20 449 20 304 20 190-3 109-49v-154c91 47 216 86 344 86 149 0 270-36 270-168 0-43-21-76-55-109-56-55-367-158-434-208-74-55-128-109-128-225 0-327 490-342 754-217l-59 135c-110-45-210-68-299-68" id="al"/><path d="M690-1114c271 2 402 123 402 399V0H926v-709c-1-177-76-266-252-266-251 0-332 135-332 402V0H176v-1556h166c-4 200 8 426-8 612h10c61-100 187-171 346-170" id="am"/><path d="M1141-549c0 329-147 569-455 569-159 0-273-61-344-161h-12c23 199 7 418 12 633H176v-1588h135l23 150h8c77-108 175-170 344-170 311 0 455 237 455 567zm-172-2c0-242-88-424-307-424-256 0-323 154-320 426 3 280 68 430 324 430 213 0 303-196 303-432" id="an"/><g id="f"><use transform="matrix(0.010850694444444444,0,0,0.010850694444444444,0,0)" xlink:href="#ad"/><use transform="matrix(0.010850694444444444,0,0,0.010850694444444444,13.736979166666666,0)" xlink:href="#ae"/><use transform="matrix(0.010850694444444444,0,0,0.010850694444444444,26.204427083333332,0)" xlink:href="#af"/><use transform="matrix(0.010850694444444444,0,0,0.010850694444444444,31.825086805555554,0)" xlink:href="#ag"/><use transform="matrix(0.010850694444444444,0,0,0.010850694444444444,44.18402777777777,0)" xlink:href="#ah"/><use transform="matrix(0.010850694444444444,0,0,0.010850694444444444,52.02907986111111,0)" xlink:href="#ai"/><use transform="matrix(0.010850694444444444,0,0,0.010850694444444444,57.64973958333333,0)" xlink:href="#aj"/><use transform="matrix(0.010850694444444444,0,0,0.010850694444444444,71.0720486111111,0)" xlink:href="#ak"/><use transform="matrix(0.010850694444444444,0,0,0.010850694444444444,84.71137152777777,0)" xlink:href="#al"/><use transform="matrix(0.010850694444444444,0,0,0.010850694444444444,95.3125,0)" xlink:href="#am"/><use transform="matrix(0.010850694444444444,0,0,0.010850694444444444,108.95182291666666,0)" xlink:href="#ai"/><use transform="matrix(0.010850694444444444,0,0,0.010850694444444444,114.5724826388889,0)" xlink:href="#an"/><use transform="matrix(0.010850694444444444,0,0,0.010850694444444444,128.19010416666669,0)" xlink:href="#al"/></g><path d="M287-543c-1 247 91 418 323 418 91 0 185-20 281-59v147C818 1 725 20 614 20c-329 0-499-221-499-561 0-349 172-575 510-575 96 0 221 26 282 57l-51 141c-61-25-157-50-235-51-223 0-334 142-334 426" id="ao"/><g id="g"><use transform="matrix(0.010850694444444444,0,0,0.010850694444444444,0,0)" xlink:href="#ao"/><use transform="matrix(0.010850694444444444,0,0,0.010850694444444444,10.579427083333332,0)" xlink:href="#aj"/><use transform="matrix(0.010850694444444444,0,0,0.010850694444444444,24.001736111111104,0)" xlink:href="#ak"/><use transform="matrix(0.010850694444444444,0,0,0.010850694444444444,37.64105902777777,0)" xlink:href="#ak"/><use transform="matrix(0.010850694444444444,0,0,0.010850694444444444,51.280381944444436,0)" xlink:href="#ae"/><use transform="matrix(0.010850694444444444,0,0,0.010850694444444444,63.7478298611111,0)" xlink:href="#ao"/><use transform="matrix(0.010850694444444444,0,0,0.010850694444444444,74.32725694444443,0)" xlink:href="#ah"/></g><path d="M115-545c0-330 146-571 454-571 149 0 263 54 342 162h13c-20-185-8-401-11-602h166V0H944l-22-147h-9C836-36 722 20 569 20c-309 0-454-234-454-565zm172 2c0 249 78 424 303 424 257 0 327-150 323-426-4-282-68-432-325-432-220 0-301 191-301 434" id="ap"/><g id="h"><use transform="matrix(0.010850694444444444,0,0,0.010850694444444444,0,0)" xlink:href="#ak"/><use transform="matrix(0.010850694444444444,0,0,0.010850694444444444,13.639322916666666,0)" xlink:href="#aj"/><use transform="matrix(0.010850694444444444,0,0,0.010850694444444444,27.061631944444443,0)" xlink:href="#ap"/><use transform="matrix(0.010850694444444444,0,0,0.010850694444444444,40.67925347222222,0)" xlink:href="#ae"/><use transform="matrix(0.010850694444444444,0,0,0.010850694444444444,53.146701388888886,0)" xlink:href="#al"/></g><g id="i"><use transform="matrix(0.010850694444444444,0,0,0.010850694444444444,0,0)" xlink:href="#ad"/><use transform="matrix(0.010850694444444444,0,0,0.010850694444444444,13.736979166666666,0)" xlink:href="#ae"/><use transform="matrix(0.010850694444444444,0,0,0.010850694444444444,26.204427083333332,0)" xlink:href="#af"/><use transform="matrix(0.010850694444444444,0,0,0.010850694444444444,31.825086805555554,0)" xlink:href="#ag"/><use transform="matrix(0.010850694444444444,0,0,0.010850694444444444,44.18402777777777,0)" xlink:href="#ah"/><use transform="matrix(0.010850694444444444,0,0,0.010850694444444444,52.02907986111111,0)" xlink:href="#ai"/><use transform="matrix(0.010850694444444444,0,0,0.010850694444444444,57.64973958333333,0)" xlink:href="#aj"/><use transform="matrix(0.010850694444444444,0,0,0.010850694444444444,71.0720486111111,0)" xlink:href="#ak"/><use transform="matrix(0.010850694444444444,0,0,0.010850694444444444,84.71137152777777,0)" xlink:href="#al"/><use transform="matrix(0.010850694444444444,0,0,0.010850694444444444,95.3125,0)" xlink:href="#am"/><use transform="matrix(0.010850694444444444,0,0,0.010850694444444444,108.95182291666666,0)" xlink:href="#ai"/><use transform="matrix(0.010850694444444444,0,0,0.010850694444444444,114.5724826388889,0)" xlink:href="#an"/><use transform="matrix(0.010850694444444444,0,0,0.010850694444444444,128.19010416666669,0)" xlink:href="#al"/></g><path d="M340-893c80-153 237-262 467-211l-23 154c-45-10-85-15-120-15-184-3-322 182-322 377V0H176v-1096h137l19 203h8" id="aq"/><g id="j"><use transform="matrix(0.010850694444444444,0,0,0.010850694444444444,0,0)" xlink:href="#ag"/><use transform="matrix(0.010850694444444444,0,0,0.010850694444444444,12.358940972222221,0)" xlink:href="#aq"/><use transform="matrix(0.010850694444444444,0,0,0.010850694444444444,20.985243055555557,0)" xlink:href="#ae"/></g><g id="k"><use transform="matrix(0.010850694444444444,0,0,0.010850694444444444,0,0)" xlink:href="#ap"/><use transform="matrix(0.010850694444444444,0,0,0.010850694444444444,13.617621527777777,0)" xlink:href="#ai"/><use transform="matrix(0.010850694444444444,0,0,0.010850694444444444,19.23828125,0)" xlink:href="#aq"/><use transform="matrix(0.010850694444444444,0,0,0.010850694444444444,27.864583333333336,0)" xlink:href="#ae"/><use transform="matrix(0.010850694444444444,0,0,0.010850694444444444,40.33203125,0)" xlink:href="#ao"/><use transform="matrix(0.010850694444444444,0,0,0.010850694444444444,50.91145833333333,0)" xlink:href="#ah"/><use transform="matrix(0.010850694444444444,0,0,0.010850694444444444,58.756510416666664,0)" xlink:href="#ai"/><use transform="matrix(0.010850694444444444,0,0,0.010850694444444444,64.37717013888889,0)" xlink:href="#aj"/><use transform="matrix(0.010850694444444444,0,0,0.010850694444444444,77.79947916666666,0)" xlink:href="#ak"/><use transform="matrix(0.010850694444444444,0,0,0.010850694444444444,91.43880208333333,0)" xlink:href="#ag"/><use transform="matrix(0.010850694444444444,0,0,0.010850694444444444,103.79774305555556,0)" xlink:href="#af"/></g><path d="M1139 0H958L498-1223h-6C428-792 329-411 246 0H84l309-1462h180l459 1220h6c64-437 164-805 246-1220h164" id="ar"/><path d="M508 16C253 16 98-150 98-406c0-259 115-505 270-614 84-58 174-90 275-90 253-2 410 166 410 422 0 258-113 503-267 613-83 59-175 91-278 91zM270-397c-1 168 83 278 246 274 171-4 265-133 316-281 31-90 47-192 47-307 0-147-88-262-232-258-174 5-277 132-329 279-32 88-48 186-48 293" id="as"/><path d="M393 20C194 19 98-138 98-350c0-283 107-543 266-667 82-64 174-97 275-97 129 0 223 63 281 190h10c26-238 80-416 123-632h166L889 0H750l22-209h-8C697-126 634-67 575-32S456 20 393 20zm467-768c1-144-70-227-211-227-67 0-129 29-187 83-112 104-192 329-192 546 0 151 60 227 179 227 63 0 127-32 194-93 120-109 216-318 217-536" id="at"/><path d="M817-59C704-8 636 18 492 20 245 23 98-141 98-391c0-259 120-515 272-629 83-63 172-96 271-96 187 0 307 79 307 252 0 120-56 213-166 282-115 72-291 106-508 103-23 208 46 364 248 358 126-4 186-33 295-84v146zm-35-791c0-80-59-123-151-123-69 0-133 31-193 94S331-729 299-618c155 1 279-19 361-60 81-40 122-97 122-172" id="au"/><path d="M506-973c-111 0-197 55-199 156 0 37 13 68 35 96 39 50 254 158 300 206 52 54 93 108 93 204C735-85 557 20 313 20 200 20 99-3 8-49v-158c77 47 189 86 301 88 144 3 254-55 254-178 0-38-12-70-35-96s-73-62-151-107c-86-49-148-96-184-143s-54-102-54-166c-1-193 164-307 367-307 114 0 224 25 330 74l-54 137c-75-38-173-68-276-68" id="av"/><g id="l"><use transform="matrix(0.010850694444444444,0,0,0.010850694444444444,0,0)" xlink:href="#ar"/><use transform="matrix(0.010850694444444444,0,0,0.010850694444444444,15.60329861111111,0)" xlink:href="#as"/><use transform="matrix(0.010850694444444444,0,0,0.010850694444444444,28.070746527777775,0)" xlink:href="#at"/><use transform="matrix(0.010850694444444444,0,0,0.010850694444444444,40.896267361111114,0)" xlink:href="#au"/><use transform="matrix(0.010850694444444444,0,0,0.010850694444444444,51.85546875,0)" xlink:href="#av"/></g><path d="M638-1094c62-31 165-26 234-8l-36 150c-208-55-339 76-414 214-40 71-69 149-88 236L227 0H59l234-1096h139l-22 203h10c81-104 117-151 218-201" id="aw"/><path d="M786-1114c198 0 295 158 295 371 0 282-102 540-260 665-82 65-173 98-276 98-144 0-236-83-283-190h-10C229 23 215 37 123 492H-43l336-1588h139l-26 209h8c119-151 243-227 372-227zM319-346c-1 144 74 227 216 227 66 0 127-28 185-81 112-104 189-330 189-548 0-151-59-227-178-227-64 0-128 32-195 95-119 111-216 315-217 534" id="ax"/><path d="M791-1116c166-2 276 98 274 264 0 53-9 112-23 180L899 0H729l148-692c13-69 20-117 20-144-2-90-51-143-149-139-156 7-254 112-322 231C314-549 290-247 227 0H59l234-1096h139l-22 203h10c64-81 126-139 186-173s121-50 185-50" id="ay"/><path d="M303-365c-31 124-35 248 92 248 37 0 85-9 144-26v129C505 2 421 20 375 20c-162 0-258-76-258-237 0-44 6-94 18-150l127-602H90l14-73 185-78 125-228h98l-55 252h274l-26 127H432" id="az"/><g id="m"><use transform="matrix(0.010850694444444444,0,0,0.010850694444444444,0,0)" xlink:href="#aw"/><use transform="matrix(0.010850694444444444,0,0,0.010850694444444444,8.355034722222223,0)" xlink:href="#au"/><use transform="matrix(0.010850694444444444,0,0,0.010850694444444444,19.314236111111114,0)" xlink:href="#ax"/><use transform="matrix(0.010850694444444444,0,0,0.010850694444444444,32.13975694444444,0)" xlink:href="#aw"/><use transform="matrix(0.010850694444444444,0,0,0.010850694444444444,40.494791666666664,0)" xlink:href="#au"/><use transform="matrix(0.010850694444444444,0,0,0.010850694444444444,51.45399305555556,0)" xlink:href="#av"/><use transform="matrix(0.010850694444444444,0,0,0.010850694444444444,60.97005208333333,0)" xlink:href="#au"/><use transform="matrix(0.010850694444444444,0,0,0.010850694444444444,71.92925347222223,0)" xlink:href="#ay"/><use transform="matrix(0.010850694444444444,0,0,0.010850694444444444,84.75477430555556,0)" xlink:href="#az"/></g><path d="M782-1114c200 0 299 159 299 371 0 280-101 538-259 663C740-15 648 20 545 20c-141-1-238-84-281-190h-10L184 0H59l330-1556h168c-67 311-78 398-154 671h9c62-79 124-136 184-173s122-56 186-56zM319-346c-1 144 74 227 216 227 66 0 127-28 185-81 112-104 189-330 189-548 0-151-59-227-178-227-64 0-128 32-195 95-119 111-216 315-217 534" id="aA"/><path d="M78 412c-71 77-219 101-336 59V330c162 57 246 8 287-183l264-1243h166L193 162c-24 114-65 195-115 250zm352-1694c-52 0-90-38-90-94 0-71 46-128 115-127 57 0 86 30 86 90 0 66-50 132-111 131" id="aB"/><path d="M520-119c105 0 184-35 262-67v143C699-1 607 20 506 20 249 22 98-131 98-389c0-274 115-515 278-633 156-113 369-117 562-43l-47 141c-160-67-298-75-423 26-119 97-198 295-198 509 0 164 91 271 250 270" id="aC"/><g id="n"><use transform="matrix(0.010850694444444444,0,0,0.010850694444444444,0,0)" xlink:href="#as"/><use transform="matrix(0.010850694444444444,0,0,0.010850694444444444,12.467447916666666,0)" xlink:href="#aA"/><use transform="matrix(0.010850694444444444,0,0,0.010850694444444444,25.29296875,0)" xlink:href="#aB"/><use transform="matrix(0.010850694444444444,0,0,0.010850694444444444,30.93532986111111,0)" xlink:href="#au"/><use transform="matrix(0.010850694444444444,0,0,0.010850694444444444,41.89453125,0)" xlink:href="#aC"/><use transform="matrix(0.010850694444444444,0,0,0.010850694444444444,51.89887152777778,0)" xlink:href="#az"/><use transform="matrix(0.010850694444444444,0,0,0.010850694444444444,59.103732638888886,0)" xlink:href="#av"/></g><path d="M229 324C29-17 45-526 202-899c80-192 208-380 384-563h157c-164 180-284 371-371 570C211-523 205-34 360 324H229" id="aD"/><path d="M387 20c-169 1-276-98-274-268 0-41 6-99 22-172l146-676h170L301-401c-37 146-30 289 129 282 155-7 253-113 323-232 112-195 137-497 199-745h166L887 0H748l22-203h-12C693-120 630-62 571-29S450 20 387 20" id="aE"/><path d="M354-1462c198 345 182 854 24 1228C297-42 170 144-4 324h-156C171-43 336-439 336-864c0-227-38-427-113-598h131" id="aF"/><g id="o"><use transform="matrix(0.010850694444444444,0,0,0.010850694444444444,0,0)" xlink:href="#aD"/><use transform="matrix(0.010850694444444444,0,0,0.010850694444444444,6.336805555555555,0)" xlink:href="#ay"/><use transform="matrix(0.010850694444444444,0,0,0.010850694444444444,19.162326388888886,0)" xlink:href="#as"/><use transform="matrix(0.010850694444444444,0,0,0.010850694444444444,31.62977430555555,0)" xlink:href="#aE"/><use transform="matrix(0.010850694444444444,0,0,0.010850694444444444,44.455295138888886,0)" xlink:href="#ay"/><use transform="matrix(0.010850694444444444,0,0,0.010850694444444444,57.28081597222221,0)" xlink:href="#av"/><use transform="matrix(0.010850694444444444,0,0,0.010850694444444444,66.79687499999999,0)" xlink:href="#aF"/></g><g id="p"><use transform="matrix(0.010850694444444444,0,0,0.010850694444444444,0,0)" xlink:href="#P"/><use transform="matrix(0.010850694444444444,0,0,0.010850694444444444,14.605034722222221,0)" xlink:href="#O"/><use transform="matrix(0.010850694444444444,0,0,0.010850694444444444,28.02734375,0)" xlink:href="#H"/><use transform="matrix(0.010850694444444444,0,0,0.010850694444444444,49.84809027777778,0)" xlink:href="#M"/><use transform="matrix(0.010850694444444444,0,0,0.010850694444444444,62.97743055555555,0)" xlink:href="#Q"/></g><path d="M1120 0L938-465H352L172 0H0l578-1468h143L1296 0h-176zM885-618c-81-228-168-420-238-664-57 230-159 449-235 664h473" id="aG"/><path d="M1368-1116c259 2 372 131 371 401V0h-166v-713c0-168-66-262-230-262-221 0-303 131-303 363V0H874v-713c-1-169-66-262-231-262-235 0-301 142-301 400V0H176v-1096h135l27 150h8c56-99 174-170 324-170 171 0 283 62 336 186h8c60-108 189-187 354-186" id="aH"/><path d="M526-162c88-293 120-356 326-934h178L559 152c-47 123-102 209-163 262-93 80-237 94-380 61V342c184 39 305-9 367-180L444 6 2-1096h178c103 283 263 645 338 934h8" id="aI"/><g id="q"><use transform="matrix(0.010850694444444444,0,0,0.010850694444444444,0,0)" xlink:href="#aG"/><use transform="matrix(0.010850694444444444,0,0,0.010850694444444444,14.0625,0)" xlink:href="#aH"/><use transform="matrix(0.010850694444444444,0,0,0.010850694444444444,34.733072916666664,0)" xlink:href="#aI"/></g><path d="M1128-1036c0 321-241 464-585 461H371V0H201v-1462h379c365 0 548 142 548 426zm-176 8c0-218-150-286-391-287H371v594h153c270-3 428-62 428-307" id="aJ"/><g id="r"><use transform="matrix(0.010850694444444444,0,0,0.010850694444444444,0,0)" xlink:href="#aJ"/><use transform="matrix(0.010850694444444444,0,0,0.010850694444444444,13.37890625,0)" xlink:href="#ae"/><use transform="matrix(0.010850694444444444,0,0,0.010850694444444444,25.846354166666664,0)" xlink:href="#ah"/><use transform="matrix(0.010850694444444444,0,0,0.010850694444444444,33.69140625,0)" xlink:href="#ae"/><use transform="matrix(0.010850694444444444,0,0,0.010850694444444444,46.158854166666664,0)" xlink:href="#aq"/><use transform="matrix(0.010850694444444444,0,0,0.010850694444444444,55.23003472222222,0)" xlink:href="#al"/></g><path d="M92-557c0-327 132-582 430-582 141 0 248 55 322 164h10c-38-188-18-371-23-581h306V0H903l-59-145h-13C762-35 656 20 514 20 222 20 92-237 92-557zm309 4c0 190 54 330 220 330 191 0 231-123 231-332 0-214-44-336-236-336-161 0-215 151-215 338" id="aK"/><path d="M637-1325c-111 0-131 91-123 207h264v229H514V0H209v-889H41v-147l168-82c-18-311 94-449 395-449 105 0 199 16 281 47l-78 224c-61-19-118-29-170-29" id="aL"/><path d="M782-1139c292 0 422 259 422 578 0 185-39 328-116 429S907 20 774 20c-131 0-234-48-309-143h-21L393 0H160v-1556h305c-3 221 8 361-12 583h12c71-111 177-166 317-166zM465-596c-3 221 29 369 223 369 63 0 110-31 150-87 71-99 72-401-1-498-40-53-88-83-153-83-174 0-216 109-219 299" id="aM"/><path d="M451-930c71-134 228-244 436-200l-23 286c-220-45-399 61-399 275V0H160v-1118h231l45 188h15" id="aN"/><path d="M791-1139c262-1 402 148 401 410V0H887v-653c0-161-60-242-180-242-201 0-242 142-242 369V0H160v-1556h305c-1 210 6 368-14 581h16c68-109 176-164 324-164" id="aO"/><g id="s"><use transform="matrix(0.010850694444444444,0,0,0.010850694444444444,0,0)" xlink:href="#aK"/><use transform="matrix(0.010850694444444444,0,0,0.010850694444444444,14.0625,0)" xlink:href="#O"/><use transform="matrix(0.010850694444444444,0,0,0.010850694444444444,27.48480902777778,0)" xlink:href="#X"/><use transform="matrix(0.010850694444444444,0,0,0.010850694444444444,37.131076388888886,0)" xlink:href="#M"/><use transform="matrix(0.010850694444444444,0,0,0.010850694444444444,50.260416666666664,0)" xlink:href="#U"/><use transform="matrix(0.010850694444444444,0,0,0.010850694444444444,59.396701388888886,0)" xlink:href="#K"/><use transform="matrix(0.010850694444444444,0,0,0.010850694444444444,73.15538194444444,0)" xlink:href="#aL"/><use transform="matrix(0.010850694444444444,0,0,0.010850694444444444,81.75998263888889,0)" xlink:href="#U"/><use transform="matrix(0.010850694444444444,0,0,0.010850694444444444,90.89626736111111,0)" xlink:href="#aM"/><use transform="matrix(0.010850694444444444,0,0,0.010850694444444444,104.95876736111111,0)" xlink:href="#W"/><use transform="matrix(0.010850694444444444,0,0,0.010850694444444444,111.74045138888889,0)" xlink:href="#aN"/><use transform="matrix(0.010850694444444444,0,0,0.010850694444444444,121.83159722222221,0)" xlink:href="#X"/><use transform="matrix(0.010850694444444444,0,0,0.010850694444444444,131.47786458333331,0)" xlink:href="#aO"/><use transform="matrix(0.010850694444444444,0,0,0.010850694444444444,146.08289930555554,0)" xlink:href="#Q"/></g><path d="M715 0H553c4-427-9-874 8-1288-79 77-94 81-285 239l-88-114 387-299h140V0" id="aP"/><path d="M106-991c0-291 181-498 463-492 348 8 492 281 492 645 0 572-221 858-664 858-77 0-139-7-184-20v-143c53 17 114 26 182 26 356 0 482-232 496-604h-12c-67 103-189 169-351 170-262 2-422-172-422-440zm787 35c0-214-113-380-324-385-199-4-300 142-299 348 1 191 96 313 291 309 180-3 332-102 332-272" id="aQ"/><path d="M152-1135c0-225 192-348 432-348 245 0 434 118 434 350 0 72-22 138-67 197S835-823 737-774c119 57 203 116 253 178s75 135 75 217c0 256-203 399-475 399-288 0-486-123-486-393 0-167 102-298 306-391-92-52-158-108-198-168s-60-128-60-203zM586-115c184 0 314-89 315-262 0-65-26-123-78-173s-143-99-272-146c-99 43-171 90-216 142s-67 113-67 185c1 172 134 254 318 254zm268-1013c-1-144-117-220-272-220-153 0-266 77-267 220 0 61 20 114 59 158s112 88 218 132c95-40 162-83 202-129s60-100 60-161" id="aR"/><path d="M1130-336H913V0H754v-336H43v-145l694-989h176v983h217v151zM754-487c2-284-7-530 10-809h-8c-32 64-61 118-90 159L209-487h545" id="aS"/><path d="M84-473v-152h491v152H84" id="aT"/><path d="M1069-733c0 253-39 441-119 566S748 20 584 20c-157 0-277-64-359-192S102-486 102-733c0-255 40-444 119-567s200-185 363-185c159 0 280 64 362 193s123 315 123 559zm-724-463c-95 160-94 768 0 928 55 94 130 145 239 145 111 0 185-52 240-147 94-164 94-761 0-924-55-95-129-147-240-147-109 0-184 52-239 145" id="aU"/><path d="M557-1483c261-2 449 121 449 365 0 202-125 312-301 348v8c212 25 346 130 346 348 0 303-232 437-557 434C328 19 210-2 94-59v-158c108 55 257 96 406 96 253 0 379-99 379-297 0-177-139-266-418-266H317v-143h146c207 3 370-92 371-285 1-150-117-233-273-229-171 4-249 44-375 122l-84-112c109-87 268-150 455-152" id="aV"/><g id="t"><use transform="matrix(0.010850694444444444,0,0,0.010850694444444444,0,0)" xlink:href="#aP"/><use transform="matrix(0.010850694444444444,0,0,0.010850694444444444,12.706163194444445,0)" xlink:href="#aQ"/><use transform="matrix(0.010850694444444444,0,0,0.010850694444444444,25.41232638888889,0)" xlink:href="#aR"/><use transform="matrix(0.010850694444444444,0,0,0.010850694444444444,38.118489583333336,0)" xlink:href="#aS"/><use transform="matrix(0.010850694444444444,0,0,0.010850694444444444,50.82465277777778,0)" xlink:href="#aT"/><use transform="matrix(0.010850694444444444,0,0,0.010850694444444444,57.975260416666664,0)" xlink:href="#aU"/><use transform="matrix(0.010850694444444444,0,0,0.010850694444444444,70.68142361111111,0)" xlink:href="#aV"/><use transform="matrix(0.010850694444444444,0,0,0.010850694444444444,83.38758680555556,0)" xlink:href="#aT"/><use transform="matrix(0.010850694444444444,0,0,0.010850694444444444,90.53819444444444,0)" xlink:href="#aU"/><use transform="matrix(0.010850694444444444,0,0,0.010850694444444444,103.24435763888889,0)" xlink:href="#aP"/></g><g id="u"><use transform="matrix(0.010850694444444444,0,0,0.010850694444444444,0,0)" xlink:href="#M"/><use transform="matrix(0.010850694444444444,0,0,0.010850694444444444,13.129340277777777,0)" xlink:href="#H"/><use transform="matrix(0.010850694444444444,0,0,0.010850694444444444,34.95008680555556,0)" xlink:href="#I"/><use transform="matrix(0.010850694444444444,0,0,0.010850694444444444,49.01258680555556,0)" xlink:href="#J"/><use transform="matrix(0.010850694444444444,0,0,0.010850694444444444,55.79427083333333,0)" xlink:href="#K"/><use transform="matrix(0.010850694444444444,0,0,0.010850694444444444,69.10807291666667,0)" xlink:href="#L"/><use transform="matrix(0.010850694444444444,0,0,0.010850694444444444,81.74913194444444,0)" xlink:href="#M"/><use transform="matrix(0.010850694444444444,0,0,0.010850694444444444,94.87847222222221,0)" xlink:href="#M"/><use transform="matrix(0.010850694444444444,0,0,0.010850694444444444,108.00781249999997,0)" xlink:href="#U"/><use transform="matrix(0.010850694444444444,0,0,0.010850694444444444,117.1440972222222,0)" xlink:href="#ab"/><use transform="matrix(0.010850694444444444,0,0,0.010850694444444444,124.50086805555553,0)" xlink:href="#aa"/><use transform="matrix(0.010850694444444444,0,0,0.010850694444444444,140.95052083333331,0)" xlink:href="#Q"/></g><use transform="matrix(0.010850694444444444,0,0,0.010850694444444444,0,0)" xlink:href="#aP" id="v"/><path d="M395 20C197 20 98-140 98-350c0-281 108-539 267-665 84-66 175-101 274-101 140 0 231 83 276 192h11l67-172h127L887 0H754l26-209h-8C653-56 527 20 395 20zM270-346c0 138 53 227 179 227 65 0 128-32 193-93 115-108 214-325 216-538 1-130-78-226-203-225-69 0-133 29-193 86-114 107-192 324-192 543" id="aW"/><g id="w"><use transform="matrix(0.010850694444444444,0,0,0.010850694444444444,0,0)" xlink:href="#aC"/><use transform="matrix(0.010850694444444444,0,0,0.010850694444444444,10.004340277777777,0)" xlink:href="#aW"/><use transform="matrix(0.010850694444444444,0,0,0.010850694444444444,22.55859375,0)" xlink:href="#ay"/></g><path d="M791-1114c174-1 275 102 274 276 0 41-8 96-23 166-27 128-74 353-145 672H729l148-692c38-150 27-288-129-283-157 5-254 110-322 231C315-548 290-247 227 0H59l330-1556h168c-50 229-94 447-154 671h11c63-82 125-141 186-176s124-53 191-53" id="aX"/><path d="M223 0L98-1096h168c27 283 81 700 88 975h6c187-416 312-607 504-975h178L451 0H223" id="aY"/><g id="x"><use transform="matrix(0.010850694444444444,0,0,0.010850694444444444,0,0)" xlink:href="#aX"/><use transform="matrix(0.010850694444444444,0,0,0.010850694444444444,12.825520833333332,0)" xlink:href="#aW"/><use transform="matrix(0.010850694444444444,0,0,0.010850694444444444,25.379774305555554,0)" xlink:href="#aY"/><use transform="matrix(0.010850694444444444,0,0,0.010850694444444444,35.64453125,0)" xlink:href="#au"/></g><path d="M227 0H59l234-1096h168zm205-1282c-54 0-92-37-92-94 0-71 46-128 115-127 59 0 88 30 88 90 0 66-50 132-111 131" id="aZ"/><g id="y"><use transform="matrix(0.010850694444444444,0,0,0.010850694444444444,0,0)" xlink:href="#ax"/><use transform="matrix(0.010850694444444444,0,0,0.010850694444444444,12.825520833333332,0)" xlink:href="#aw"/><use transform="matrix(0.010850694444444444,0,0,0.010850694444444444,21.180555555555557,0)" xlink:href="#as"/><use transform="matrix(0.010850694444444444,0,0,0.010850694444444444,33.64800347222222,0)" xlink:href="#ax"/><use transform="matrix(0.010850694444444444,0,0,0.010850694444444444,46.47352430555556,0)" xlink:href="#au"/><use transform="matrix(0.010850694444444444,0,0,0.010850694444444444,57.43272569444444,0)" xlink:href="#aw"/><use transform="matrix(0.010850694444444444,0,0,0.010850694444444444,66.23263888888889,0)" xlink:href="#az"/><use transform="matrix(0.010850694444444444,0,0,0.010850694444444444,73.4375,0)" xlink:href="#aZ"/><use transform="matrix(0.010850694444444444,0,0,0.010850694444444444,79.07986111111111,0)" xlink:href="#au"/><use transform="matrix(0.010850694444444444,0,0,0.010850694444444444,90.0390625,0)" xlink:href="#av"/></g><path d="M1503-838c-1-87-50-142-143-137-144 7-235 110-298 223-40 71-70 155-91 252L864 0H696l148-692c33-145 35-283-119-283-149 0-239 112-303 231C316-546 289-246 227 0H59l234-1096h139l-22 203h10c58-79 116-136 174-171s117-52 178-52c157 0 232 99 246 246h8c57-83 118-146 183-186s130-60 196-60c169 0 267 95 266 266 0 45-6 105-22 178L1505 0h-170l148-692c13-69 20-118 20-146" id="ba"/><path d="M893-1462L80 0H-94l813-1462h174" id="bb"/><path d="M225 0H57l332-1556h168" id="bc"/><g id="z"><use transform="matrix(0.010850694444444444,0,0,0.010850694444444444,0,0)" xlink:href="#aD"/><use transform="matrix(0.010850694444444444,0,0,0.010850694444444444,6.336805555555555,0)" xlink:href="#ay"/><use transform="matrix(0.010850694444444444,0,0,0.010850694444444444,19.162326388888886,0)" xlink:href="#aW"/><use transform="matrix(0.010850694444444444,0,0,0.010850694444444444,31.716579861111104,0)" xlink:href="#ba"/><use transform="matrix(0.010850694444444444,0,0,0.010850694444444444,51.095920138888886,0)" xlink:href="#au"/><use transform="matrix(0.010850694444444444,0,0,0.010850694444444444,62.05512152777778,0)" xlink:href="#bb"/><use transform="matrix(0.010850694444444444,0,0,0.010850694444444444,69.83506944444444,0)" xlink:href="#aY"/><use transform="matrix(0.010850694444444444,0,0,0.010850694444444444,80.09982638888889,0)" xlink:href="#aW"/><use transform="matrix(0.010850694444444444,0,0,0.010850694444444444,92.65407986111111,0)" xlink:href="#bc"/><use transform="matrix(0.010850694444444444,0,0,0.010850694444444444,98.29644097222221,0)" xlink:href="#aE"/><use transform="matrix(0.010850694444444444,0,0,0.010850694444444444,111.12196180555556,0)" xlink:href="#au"/></g><g id="A"><use transform="matrix(0.010850694444444444,0,0,0.010850694444444444,0,0)" xlink:href="#ax"/><use transform="matrix(0.010850694444444444,0,0,0.010850694444444444,12.825520833333332,0)" xlink:href="#aW"/><use transform="matrix(0.010850694444444444,0,0,0.010850694444444444,25.379774305555554,0)" xlink:href="#aZ"/><use transform="matrix(0.010850694444444444,0,0,0.010850694444444444,31.022135416666664,0)" xlink:href="#aw"/><use transform="matrix(0.010850694444444444,0,0,0.010850694444444444,39.82204861111111,0)" xlink:href="#av"/><use transform="matrix(0.010850694444444444,0,0,0.010850694444444444,49.338107638888886,0)" xlink:href="#aF"/></g><path d="M836-831c-99-39-182-77-306-82-139-6-173 83-92 144 51 39 327 139 383 188 71 62 119 126 119 249C940-74 747 21 463 20 305 20 202 0 94-45v-252c93 45 253 94 379 94 111 0 166-32 166-96 0-68-41-76-98-109-79-46-276-119-333-167-74-61-116-125-116-252 0-368 555-367 836-224" id="bd"/><g id="B"><use transform="matrix(0.0087890625,0,0,0.0087890625,0,0)" xlink:href="#bd"/><use transform="matrix(0.0087890625,0,0,0.0087890625,8.947265625,0)" xlink:href="#X"/><use transform="matrix(0.0087890625,0,0,0.0087890625,16.7607421875,0)" xlink:href="#O"/><use transform="matrix(0.0087890625,0,0,0.0087890625,27.6328125,0)" xlink:href="#aN"/><use transform="matrix(0.0087890625,0,0,0.0087890625,35.806640625,0)" xlink:href="#X"/><use transform="matrix(0.0087890625,0,0,0.0087890625,43.6201171875,0)" xlink:href="#U"/><use transform="matrix(0.0087890625,0,0,0.0087890625,51.0205078125,0)" xlink:href="#aK"/><use transform="matrix(0.0087890625,0,0,0.0087890625,62.4111328125,0)" xlink:href="#O"/><use transform="matrix(0.0087890625,0,0,0.0087890625,73.283203125,0)" xlink:href="#X"/><use transform="matrix(0.0087890625,0,0,0.0087890625,81.0966796875,0)" xlink:href="#M"/><use transform="matrix(0.0087890625,0,0,0.0087890625,91.7314453125,0)" xlink:href="#Q"/></g><path d="M559-1483c258 0 441 142 440 389 0 93-26 184-78 275-109 192-433 475-612 657v8h752V0H100v-143c177-182 479-462 617-641 67-87 110-168 112-303 2-158-106-258-268-254-165 4-240 52-354 139l-88-113c135-112 281-168 440-168" id="be"/><g id="C"><use transform="matrix(0.0087890625,0,0,0.0087890625,0,0)" xlink:href="#be"/><use transform="matrix(0.0087890625,0,0,0.0087890625,10.2919921875,0)" xlink:href="#aU"/><use transform="matrix(0.0087890625,0,0,0.0087890625,20.583984375,0)" xlink:href="#aU"/><use transform="matrix(0.0087890625,0,0,0.0087890625,30.8759765625,0)" xlink:href="#aR"/><use transform="matrix(0.0087890625,0,0,0.0087890625,41.16796875,0)" xlink:href="#aT"/><use transform="matrix(0.0087890625,0,0,0.0087890625,46.9599609375,0)" xlink:href="#aU"/><use transform="matrix(0.0087890625,0,0,0.0087890625,57.251953125,0)" xlink:href="#aP"/><use transform="matrix(0.0087890625,0,0,0.0087890625,67.5439453125,0)" xlink:href="#aT"/><use transform="matrix(0.0087890625,0,0,0.0087890625,73.3359375,0)" xlink:href="#be"/><use transform="matrix(0.0087890625,0,0,0.0087890625,83.6279296875,0)" xlink:href="#aU"/></g><path d="M385-608L256 0H86l309-1462h320c297 0 446 122 446 366 0 232-123 382-368 449L1032 0H846L637-608H385zm600-475c0-177-98-229-287-230H532c-68 329-107 516-116 559h168c239 2 401-103 401-329" id="bf"/><g id="D"><use transform="matrix(0.010850694444444444,0,0,0.010850694444444444,0,0)" xlink:href="#bf"/><use transform="matrix(0.010850694444444444,0,0,0.010850694444444444,12.641059027777777,0)" xlink:href="#au"/><use transform="matrix(0.010850694444444444,0,0,0.010850694444444444,23.600260416666664,0)" xlink:href="#bc"/><use transform="matrix(0.010850694444444444,0,0,0.010850694444444444,29.242621527777775,0)" xlink:href="#aW"/><use transform="matrix(0.010850694444444444,0,0,0.010850694444444444,41.796875,0)" xlink:href="#az"/><use transform="matrix(0.010850694444444444,0,0,0.010850694444444444,49.00173611111111,0)" xlink:href="#aZ"/><use transform="matrix(0.010850694444444444,0,0,0.010850694444444444,54.64409722222223,0)" xlink:href="#as"/><use transform="matrix(0.010850694444444444,0,0,0.010850694444444444,67.1115451388889,0)" xlink:href="#ay"/><use transform="matrix(0.010850694444444444,0,0,0.010850694444444444,79.93706597222223,0)" xlink:href="#av"/><use transform="matrix(0.010850694444444444,0,0,0.010850694444444444,89.453125,0)" xlink:href="#aX"/><use transform="matrix(0.010850694444444444,0,0,0.010850694444444444,102.27864583333333,0)" xlink:href="#aZ"/><use transform="matrix(0.010850694444444444,0,0,0.010850694444444444,107.92100694444444,0)" xlink:href="#ax"/><use transform="matrix(0.010850694444444444,0,0,0.010850694444444444,120.74652777777777,0)" xlink:href="#av"/></g><g id="E"><use transform="matrix(0.010850694444444444,0,0,0.010850694444444444,0,0)" xlink:href="#ax"/><use transform="matrix(0.010850694444444444,0,0,0.010850694444444444,12.825520833333332,0)" xlink:href="#aw"/><use transform="matrix(0.010850694444444444,0,0,0.010850694444444444,21.180555555555557,0)" xlink:href="#as"/><use transform="matrix(0.010850694444444444,0,0,0.010850694444444444,33.64800347222222,0)" xlink:href="#ax"/><use transform="matrix(0.010850694444444444,0,0,0.010850694444444444,46.47352430555556,0)" xlink:href="#au"/><use transform="matrix(0.010850694444444444,0,0,0.010850694444444444,57.43272569444444,0)" xlink:href="#aw"/><use transform="matrix(0.010850694444444444,0,0,0.010850694444444444,66.23263888888889,0)" xlink:href="#az"/><use transform="matrix(0.010850694444444444,0,0,0.010850694444444444,73.4375,0)" xlink:href="#aZ"/><use transform="matrix(0.010850694444444444,0,0,0.010850694444444444,79.07986111111111,0)" xlink:href="#au"/><use transform="matrix(0.010850694444444444,0,0,0.010850694444444444,90.0390625,0)" xlink:href="#av"/></g><g id="F"><use transform="matrix(0.010850694444444444,0,0,0.010850694444444444,0,0)" xlink:href="#aD"/><use transform="matrix(0.010850694444444444,0,0,0.010850694444444444,6.336805555555555,0)" xlink:href="#ay"/><use transform="matrix(0.010850694444444444,0,0,0.010850694444444444,19.162326388888886,0)" xlink:href="#aW"/><use transform="matrix(0.010850694444444444,0,0,0.010850694444444444,31.716579861111104,0)" xlink:href="#ba"/><use transform="matrix(0.010850694444444444,0,0,0.010850694444444444,51.095920138888886,0)" xlink:href="#au"/><use transform="matrix(0.010850694444444444,0,0,0.010850694444444444,62.05512152777778,0)" xlink:href="#bb"/><use transform="matrix(0.010850694444444444,0,0,0.010850694444444444,69.83506944444444,0)" xlink:href="#aY"/><use transform="matrix(0.010850694444444444,0,0,0.010850694444444444,80.09982638888889,0)" xlink:href="#aW"/><use transform="matrix(0.010850694444444444,0,0,0.010850694444444444,92.65407986111111,0)" xlink:href="#bc"/><use transform="matrix(0.010850694444444444,0,0,0.010850694444444444,98.29644097222221,0)" xlink:href="#aE"/><use transform="matrix(0.010850694444444444,0,0,0.010850694444444444,111.12196180555556,0)" xlink:href="#au"/></g></defs></g></svg>