<?xml version="1.0" encoding="UTF-8" standalone="no"?>
<!DOCTYPE svg PUBLIC "-//W3C//DTD SVG 1.1//EN"
 "http://www.w3.org/Graphics/SVG/1.1/DTD/svg11.dtd">
<!-- Generated by graphviz version 2.26.3 (20100126.1600)
 -->
<!-- Title: g Pages: 1 -->
<svg width="145pt" height="130pt"
 viewBox="0.00 0.00 145.00 130.00" xmlns="http://www.w3.org/2000/svg" xmlns:xlink="http://www.w3.org/1999/xlink">
<g id="graph1" class="graph" transform="scale(1 1) rotate(0) translate(4 126)">
<title>g</title>
<polygon fill="white" stroke="white" points="-4,5 -4,-126 142,-126 142,5 -4,5"/>
<!-- A Label -->
<g id="node1" class="node"><title>A Label</title>
<polygon fill="#a8e270" stroke="#a8e270" stroke-width="1.5" points="83,-122 53,-122 41,-110 41,-98 53,-86 83,-86 95,-98 95,-110 83,-122"/>
<path fill="#a8e270" stroke="#a8e270" stroke-width="1.5" d="M53,-122C47,-122 41,-116 41,-110"/>
<path fill="#a8e270" stroke="#a8e270" stroke-width="1.5" d="M41,-98C41,-92 47,-86 53,-86"/>
<path fill="#a8e270" stroke="#a8e270" stroke-width="1.5" d="M83,-86C89,-86 95,-92 95,-98"/>
<path fill="#a8e270" stroke="#a8e270" stroke-width="1.5" d="M95,-110C95,-116 89,-122 83,-122"/>
<polyline fill="none" stroke="#2e3436" stroke-width="1.5" points="83,-122 53,-122 "/>
<path fill="none" stroke="#2e3436" stroke-width="1.5" d="M53,-122C47,-122 41,-116 41,-110"/>
<polyline fill="none" stroke="#2e3436" stroke-width="1.5" points="41,-110 41,-98 "/>
<path fill="none" stroke="#2e3436" stroke-width="1.5" d="M41,-98C41,-92 47,-86 53,-86"/>
<polyline fill="none" stroke="#2e3436" stroke-width="1.5" points="53,-86 83,-86 "/>
<path fill="none" stroke="#2e3436" stroke-width="1.5" d="M83,-86C89,-86 95,-92 95,-98"/>
<polyline fill="none" stroke="#2e3436" stroke-width="1.5" points="95,-98 95,-110 "/>
<path fill="none" stroke="#2e3436" stroke-width="1.5" d="M95,-110C95,-116 89,-122 83,-122"/>
<text text-anchor="middle" x="68" y="-101.5" font-family="FreeSans" font-size="10.00" fill="#1c2021">A Label</text>
</g>
<!-- Name -->
<g id="node3" class="node"><title>Name</title>
<polygon fill="#fadcad" stroke="#fadcad" stroke-width="1.5" points="42,-36 12,-36 1.42109e-14,-24 7.10543e-15,-12 12,-1.46056e-14 42,-6.71068e-15 54,-12 54,-24 42,-36"/>
<path fill="#fadcad" stroke="#fadcad" stroke-width="1.5" d="M12,-36C6,-36 1.77636e-14,-30 1.42109e-14,-24"/>
<path fill="#fadcad" stroke="#fadcad" stroke-width="1.5" d="M7.10543e-15,-12C3.55271e-15,-6 6,-1.61846e-14 12,-1.46056e-14"/>
<path fill="#fadcad" stroke="#fadcad" stroke-width="1.5" d="M42,-6.71068e-15C48,-5.1317e-15 54,-6 54,-12"/>
<path fill="#fadcad" stroke="#fadcad" stroke-width="1.5" d="M54,-24C54,-30 48,-36 42,-36"/>
<polyline fill="none" stroke="#2e3436" stroke-width="1.5" points="42,-36 12,-36 "/>
<path fill="none" stroke="#2e3436" stroke-width="1.5" d="M12,-36C6,-36 1.77636e-14,-30 1.42109e-14,-24"/>
<polyline fill="none" stroke="#2e3436" stroke-width="1.5" points="1.42109e-14,-24 7.10543e-15,-12 "/>
<path fill="none" stroke="#2e3436" stroke-width="1.5" d="M7.10543e-15,-12C3.55271e-15,-6 6,-1.61846e-14 12,-1.46056e-14"/>
<polyline fill="none" stroke="#2e3436" stroke-width="1.5" points="12,-1.46056e-14 42,-6.71068e-15 "/>
<path fill="none" stroke="#2e3436" stroke-width="1.5" d="M42,-6.71068e-15C48,-5.1317e-15 54,-6 54,-12"/>
<polyline fill="none" stroke="#2e3436" stroke-width="1.5" points="54,-12 54,-24 "/>
<path fill="none" stroke="#2e3436" stroke-width="1.5" d="M54,-24C54,-30 48,-36 42,-36"/>
<text text-anchor="middle" x="27" y="-15.5" font-family="FreeSans" font-size="10.00" fill="#1c2021">Name</text>
</g>
<!-- A Label&#45;&gt;Name -->
<g id="edge2" class="edge"><title>A Label&#45;&gt;Name</title>
<path fill="none" stroke="#2e3436" stroke-width="2" d="M56.7837,-85.971C53.4549,-80.3134 49.9212,-73.9816 47,-68 43.1678,-60.153 39.4696,-51.3758 36.3177,-43.3918"/>
<polygon fill="#2e3436" stroke="#2e3436" points="33.5885,-36.3321 39.4408,-42.1106 35.407,-39.6495 36.7592,-43.1473 36.2929,-43.3276 35.8265,-43.5079 34.4743,-40.0101 33.1449,-44.5446 33.5885,-36.3321 33.5885,-36.3321"/>
<text text-anchor="middle" x="60.5" y="-58.5" font-family="FreeSans" font-size="10.00" fill="#1c2021">has a</text>
</g>
<!-- Node -->
<g id="node5" class="node"><title>Node</title>
<polygon fill="#fadcad" stroke="#fadcad" stroke-width="1.5" points="125,-36 95,-36 83,-24 83,-12 95,-1.46056e-14 125,-6.71068e-15 137,-12 137,-24 125,-36"/>
<path fill="#fadcad" stroke="#fadcad" stroke-width="1.5" d="M95,-36C89,-36 83,-30 83,-24"/>
<path fill="#fadcad" stroke="#fadcad" stroke-width="1.5" d="M83,-12C83,-6 89,-1.61846e-14 95,-1.46056e-14"/>
<path fill="#fadcad" stroke="#fadcad" stroke-width="1.5" d="M125,-6.71068e-15C131,-5.1317e-15 137,-6 137,-12"/>
<path fill="#fadcad" stroke="#fadcad" stroke-width="1.5" d="M137,-24C137,-30 131,-36 125,-36"/>
<polyline fill="none" stroke="#2e3436" stroke-width="1.5" points="125,-36 95,-36 "/>
<path fill="none" stroke="#2e3436" stroke-width="1.5" d="M95,-36C89,-36 83,-30 83,-24"/>
<polyline fill="none" stroke="#2e3436" stroke-width="1.5" points="83,-24 83,-12 "/>
<path fill="none" stroke="#2e3436" stroke-width="1.5" d="M83,-12C83,-6 89,-1.61846e-14 95,-1.46056e-14"/>
<polyline fill="none" stroke="#2e3436" stroke-width="1.5" points="95,-1.46056e-14 125,-6.71068e-15 "/>
<path fill="none" stroke="#2e3436" stroke-width="1.5" d="M125,-6.71068e-15C131,-5.1317e-15 137,-6 137,-12"/>
<polyline fill="none" stroke="#2e3436" stroke-width="1.5" points="137,-12 137,-24 "/>
<path fill="none" stroke="#2e3436" stroke-width="1.5" d="M137,-24C137,-30 131,-36 125,-36"/>
<text text-anchor="middle" x="110" y="-15.5" font-family="FreeSans" font-size="10.00" fill="#1c2021">Node</text>
</g>
<!-- A Label&#45;&gt;Node -->
<g id="edge4" class="edge"><title>A Label&#45;&gt;Node</title>
<path fill="none" stroke="#2e3436" stroke-width="2" d="M76.9071,-85.7616C82.9767,-73.3335 91.0907,-56.719 97.7651,-43.0524"/>
<polygon fill="#2e3436" stroke="#2e3436" points="101.106,-36.2121 100.847,-44.4325 99.9093,-39.8012 98.2637,-43.1708 97.8144,-42.9514 97.3651,-42.7319 99.0108,-39.3623 94.7817,-41.4703 101.106,-36.2121 101.106,-36.2121"/>
<text text-anchor="middle" x="107.5" y="-58.5" font-family="FreeSans" font-size="10.00" fill="#1c2021">groups</text>
</g>
</g>
</svg>
