<?xml version="1.0" encoding="UTF-8" standalone="no"?>
<!DOCTYPE svg PUBLIC "-//W3C//DTD SVG 1.1//EN"
 "http://www.w3.org/Graphics/SVG/1.1/DTD/svg11.dtd">
<!-- Generated by graphviz version 2.26.3 (20100126.1600)
 -->
<!-- Title: g Pages: 1 -->
<svg width="271pt" height="216pt"
 viewBox="0.00 0.00 271.00 216.00" xmlns="http://www.w3.org/2000/svg" xmlns:xlink="http://www.w3.org/1999/xlink">
<g id="graph1" class="graph" transform="scale(1 1) rotate(0) translate(4 212)">
<title>g</title>
<polygon fill="white" stroke="white" points="-4,5 -4,-212 268,-212 268,5 -4,5"/>
<!-- A Node -->
<g id="node1" class="node"><title>A Node</title>
<polygon fill="#a8e270" stroke="#a8e270" stroke-width="1.5" points="151,-208 121,-208 109,-196 109,-184 121,-172 151,-172 163,-184 163,-196 151,-208"/>
<path fill="#a8e270" stroke="#a8e270" stroke-width="1.5" d="M121,-208C115,-208 109,-202 109,-196"/>
<path fill="#a8e270" stroke="#a8e270" stroke-width="1.5" d="M109,-184C109,-178 115,-172 121,-172"/>
<path fill="#a8e270" stroke="#a8e270" stroke-width="1.5" d="M151,-172C157,-172 163,-178 163,-184"/>
<path fill="#a8e270" stroke="#a8e270" stroke-width="1.5" d="M163,-196C163,-202 157,-208 151,-208"/>
<polyline fill="none" stroke="#2e3436" stroke-width="1.5" points="151,-208 121,-208 "/>
<path fill="none" stroke="#2e3436" stroke-width="1.5" d="M121,-208C115,-208 109,-202 109,-196"/>
<polyline fill="none" stroke="#2e3436" stroke-width="1.5" points="109,-196 109,-184 "/>
<path fill="none" stroke="#2e3436" stroke-width="1.5" d="M109,-184C109,-178 115,-172 121,-172"/>
<polyline fill="none" stroke="#2e3436" stroke-width="1.5" points="121,-172 151,-172 "/>
<path fill="none" stroke="#2e3436" stroke-width="1.5" d="M151,-172C157,-172 163,-178 163,-184"/>
<polyline fill="none" stroke="#2e3436" stroke-width="1.5" points="163,-184 163,-196 "/>
<path fill="none" stroke="#2e3436" stroke-width="1.5" d="M163,-196C163,-202 157,-208 151,-208"/>
<text text-anchor="middle" x="136" y="-187.5" font-family="FreeSans" font-size="10.00" fill="#1c2021">A Node</text>
</g>
<!-- Relationships -->
<g id="node3" class="node"><title>Relationships</title>
<polygon fill="#fadcad" stroke="#fadcad" stroke-width="1.5" points="66,-122 12,-122 2.36848e-14,-110 1.18424e-14,-98 12,-86 66,-86 78,-98 78,-110 66,-122"/>
<path fill="#fadcad" stroke="#fadcad" stroke-width="1.5" d="M12,-122C6,-122 2.96059e-14,-116 2.36848e-14,-110"/>
<path fill="#fadcad" stroke="#fadcad" stroke-width="1.5" d="M1.18424e-14,-98C5.92119e-15,-92 6,-86 12,-86"/>
<path fill="#fadcad" stroke="#fadcad" stroke-width="1.5" d="M66,-86C72,-86 78,-92 78,-98"/>
<path fill="#fadcad" stroke="#fadcad" stroke-width="1.5" d="M78,-110C78,-116 72,-122 66,-122"/>
<polyline fill="none" stroke="#2e3436" stroke-width="1.5" points="66,-122 12,-122 "/>
<path fill="none" stroke="#2e3436" stroke-width="1.5" d="M12,-122C6,-122 2.96059e-14,-116 2.36848e-14,-110"/>
<polyline fill="none" stroke="#2e3436" stroke-width="1.5" points="2.36848e-14,-110 1.18424e-14,-98 "/>
<path fill="none" stroke="#2e3436" stroke-width="1.5" d="M1.18424e-14,-98C5.92119e-15,-92 6,-86 12,-86"/>
<polyline fill="none" stroke="#2e3436" stroke-width="1.5" points="12,-86 66,-86 "/>
<path fill="none" stroke="#2e3436" stroke-width="1.5" d="M66,-86C72,-86 78,-92 78,-98"/>
<polyline fill="none" stroke="#2e3436" stroke-width="1.5" points="78,-98 78,-110 "/>
<path fill="none" stroke="#2e3436" stroke-width="1.5" d="M78,-110C78,-116 72,-122 66,-122"/>
<text text-anchor="middle" x="39" y="-101.5" font-family="FreeSans" font-size="10.00" fill="#1c2021">Relationships</text>
</g>
<!-- A Node&#45;&gt;Relationships -->
<g id="edge2" class="edge"><title>A Node&#45;&gt;Relationships</title>
<path fill="none" stroke="#2e3436" stroke-width="2" d="M108.895,-179.121C96.086,-173.059 81.1892,-164.583 70,-154 62.5056,-146.911 56.0994,-137.633 51.0894,-128.997"/>
<polygon fill="#2e3436" stroke="#2e3436" points="47.3766,-122.262 53.9532,-127.201 49.6249,-125.305 51.4354,-128.589 50.9976,-128.83 50.5597,-129.072 48.7492,-125.788 48.0419,-130.46 47.3766,-122.262 47.3766,-122.262"/>
<text text-anchor="middle" x="92" y="-144.5" font-family="FreeSans" font-size="10.00" fill="#1c2021">can have</text>
</g>
<!-- Properties -->
<g id="node5" class="node"><title>Properties</title>
<polygon fill="#fadcad" stroke="#fadcad" stroke-width="1.5" points="116,-36 76,-36 64,-24 64,-12 76,-1.5099e-14 116,-6.21725e-15 128,-12 128,-24 116,-36"/>
<path fill="#fadcad" stroke="#fadcad" stroke-width="1.5" d="M76,-36C70,-36 64,-30 64,-24"/>
<path fill="#fadcad" stroke="#fadcad" stroke-width="1.5" d="M64,-12C64,-6 70,-1.64313e-14 76,-1.5099e-14"/>
<path fill="#fadcad" stroke="#fadcad" stroke-width="1.5" d="M116,-6.21725e-15C122,-4.88498e-15 128,-6 128,-12"/>
<path fill="#fadcad" stroke="#fadcad" stroke-width="1.5" d="M128,-24C128,-30 122,-36 116,-36"/>
<polyline fill="none" stroke="#2e3436" stroke-width="1.5" points="116,-36 76,-36 "/>
<path fill="none" stroke="#2e3436" stroke-width="1.5" d="M76,-36C70,-36 64,-30 64,-24"/>
<polyline fill="none" stroke="#2e3436" stroke-width="1.5" points="64,-24 64,-12 "/>
<path fill="none" stroke="#2e3436" stroke-width="1.5" d="M64,-12C64,-6 70,-1.64313e-14 76,-1.5099e-14"/>
<polyline fill="none" stroke="#2e3436" stroke-width="1.5" points="76,-1.5099e-14 116,-6.21725e-15 "/>
<path fill="none" stroke="#2e3436" stroke-width="1.5" d="M116,-6.21725e-15C122,-4.88498e-15 128,-6 128,-12"/>
<polyline fill="none" stroke="#2e3436" stroke-width="1.5" points="128,-12 128,-24 "/>
<path fill="none" stroke="#2e3436" stroke-width="1.5" d="M128,-24C128,-30 122,-36 116,-36"/>
<text text-anchor="middle" x="96" y="-15.5" font-family="FreeSans" font-size="10.00" fill="#1c2021">Properties</text>
</g>
<!-- A Node&#45;&gt;Properties -->
<g id="edge4" class="edge"><title>A Node&#45;&gt;Properties</title>
<path fill="none" stroke="#2e3436" stroke-width="2" d="M135.684,-171.879C134.733,-145.312 131.045,-94.5492 117,-54 115.701,-50.2503 113.995,-46.4549 112.116,-42.8056"/>
<polygon fill="#2e3436" stroke="#2e3436" points="108.35,-36.0181 114.94,-40.9389 110.606,-39.0547 112.426,-42.3338 111.989,-42.5764 111.551,-42.8189 109.732,-39.5398 109.037,-44.2138 108.35,-36.0181 108.35,-36.0181"/>
<text text-anchor="middle" x="153" y="-101.5" font-family="FreeSans" font-size="10.00" fill="#1c2021">can have</text>
</g>
<!-- Labels -->
<g id="node7" class="node"><title>Labels</title>
<polygon fill="#fadcad" stroke="#fadcad" stroke-width="1.5" points="251,-122 221,-122 209,-110 209,-98 221,-86 251,-86 263,-98 263,-110 251,-122"/>
<path fill="#fadcad" stroke="#fadcad" stroke-width="1.5" d="M221,-122C215,-122 209,-116 209,-110"/>
<path fill="#fadcad" stroke="#fadcad" stroke-width="1.5" d="M209,-98C209,-92 215,-86 221,-86"/>
<path fill="#fadcad" stroke="#fadcad" stroke-width="1.5" d="M251,-86C257,-86 263,-92 263,-98"/>
<path fill="#fadcad" stroke="#fadcad" stroke-width="1.5" d="M263,-110C263,-116 257,-122 251,-122"/>
<polyline fill="none" stroke="#2e3436" stroke-width="1.5" points="251,-122 221,-122 "/>
<path fill="none" stroke="#2e3436" stroke-width="1.5" d="M221,-122C215,-122 209,-116 209,-110"/>
<polyline fill="none" stroke="#2e3436" stroke-width="1.5" points="209,-110 209,-98 "/>
<path fill="none" stroke="#2e3436" stroke-width="1.5" d="M209,-98C209,-92 215,-86 221,-86"/>
<polyline fill="none" stroke="#2e3436" stroke-width="1.5" points="221,-86 251,-86 "/>
<path fill="none" stroke="#2e3436" stroke-width="1.5" d="M251,-86C257,-86 263,-92 263,-98"/>
<polyline fill="none" stroke="#2e3436" stroke-width="1.5" points="263,-98 263,-110 "/>
<path fill="none" stroke="#2e3436" stroke-width="1.5" d="M263,-110C263,-116 257,-122 251,-122"/>
<text text-anchor="middle" x="236" y="-101.5" font-family="FreeSans" font-size="10.00" fill="#1c2021">Labels</text>
</g>
<!-- A Node&#45;&gt;Labels -->
<g id="edge6" class="edge"><title>A Node&#45;&gt;Labels</title>
<path fill="none" stroke="#2e3436" stroke-width="2" d="M157.207,-171.762C172.322,-158.763 192.76,-141.186 209.034,-127.191"/>
<polygon fill="#2e3436" stroke="#2e3436" points="214.823,-122.212 211.337,-129.661 212.306,-125.036 209.463,-127.482 209.137,-127.102 208.811,-126.723 211.654,-124.278 206.936,-124.544 214.823,-122.212 214.823,-122.212"/>
<text text-anchor="middle" x="213" y="-144.5" font-family="FreeSans" font-size="10.00" fill="#1c2021">can have</text>
</g>
<!-- Relationships&#45;&gt;Properties -->
<g id="edge8" class="edge"><title>Relationships&#45;&gt;Properties</title>
<path fill="none" stroke="#2e3436" stroke-width="2" d="M49.8887,-85.7527C55.6994,-76.1932 63.0649,-64.3523 70,-54 72.5289,-50.2249 75.2715,-46.28 77.9953,-42.4435"/>
<polygon fill="#2e3436" stroke="#2e3436" points="82.5205,-36.1383 80.8893,-44.1994 80.7402,-39.4765 78.5536,-42.523 78.1474,-42.2315 77.7412,-41.94 79.9277,-38.8934 75.4055,-40.2636 82.5205,-36.1383 82.5205,-36.1383"/>
<text text-anchor="middle" x="92" y="-58.5" font-family="FreeSans" font-size="10.00" fill="#1c2021">can have</text>
</g>
</g>
</svg>
