<svg xmlns="http://www.w3.org/2000/svg" width="1283.82958984375" height="735.467529296875" viewBox="-887.608642578125 -318.9555358886719 1283.82958984375 735.467529296875"><title>Neo4j Graph Visualization</title><desc>Created using Neo4j (http://www.neo4j.com/)</desc><g class="layer relationships"><g class="relationship" transform="translate(-20.604784270470432 -39.89770625438456) rotate(358.22768784031166)"><path class="outline" fill="#A5ABB6" stroke="none" d="M 40 0.5 L 46.13784267500229 0.5 L 46.13784267500229 -0.5 L 40 -0.5 Z M 91.70034267500229 0.5 L 97.83818535000458 0.5 L 97.83818535000458 3.5 L 104.83818535000458 0 L 97.83818535000458 -3.5 L 97.83818535000458 -0.5 L 91.70034267500229 -0.5 Z"/><text text-anchor="middle" pointer-events="none" font-size="8px" fill="#000000" x="68.91909267500229" y="3" font-family="sans-serif">ACTED_IN</text></g><g class="relationship" transform="translate(-20.604784270470432 -39.89770625438456) rotate(411.8910652737585)"><path class="outline" fill="#A5ABB6" stroke="none" d="M 40 0.5 L 105.21504619493302 0.5 L 105.21504619493302 -0.5 L 40 -0.5 Z M 150.77754619493302 0.5 L 215.99259238986605 0.5 L 215.99259238986605 3.5 L 222.99259238986605 0 L 215.99259238986605 -3.5 L 215.99259238986605 -0.5 L 150.77754619493302 -0.5 Z"/><text text-anchor="middle" pointer-events="none" font-size="8px" fill="#000000" x="127.99629619493302" y="3" font-family="sans-serif">ACTED_IN</text></g><g class="relationship" transform="translate(-20.604784270470432 -39.89770625438456) rotate(530.9793427387714)"><path class="outline" fill="#A5ABB6" stroke="none" d="M 40 0.5 L 142.1200205847447 0.5 L 142.1200205847447 -0.5 L 40 -0.5 Z M 187.6825205847447 0.5 L 289.8025411694894 0.5 L 289.8025411694894 3.5 L 296.8025411694894 0 L 289.8025411694894 -3.5 L 289.8025411694894 -0.5 L 187.6825205847447 -0.5 Z"/><text text-anchor="middle" pointer-events="none" font-size="8px" fill="#000000" x="164.9012705847447" y="3" transform="rotate(180 164.9012705847447 0)" font-family="sans-serif">ACTED_IN</text></g><g class="relationship" transform="translate(-20.604784270470432 -39.89770625438456) rotate(493.3560263168346)"><path class="outline" fill="#A5ABB6" stroke="none" d="M 40 0.5 L 226.94492059804102 0.5 L 226.94492059804102 -0.5 L 40 -0.5 Z M 272.507420598041 0.5 L 459.45234119608205 0.5 L 459.45234119608205 3.5 L 466.45234119608205 0 L 459.45234119608205 -3.5 L 459.45234119608205 -0.5 L 272.507420598041 -0.5 Z"/><text text-anchor="middle" pointer-events="none" font-size="8px" fill="#000000" x="249.72617059804102" y="3" transform="rotate(180 249.72617059804102 0)" font-family="sans-serif">ACTED_IN</text></g><g class="relationship" transform="translate(-16.534694776537208 372.51200910860973) rotate(307.5999122399985)"><path class="outline" fill="#A5ABB6" stroke="none" d="M 40 0.5 L 103.391465731316 0.5 L 103.391465731316 -0.5 L 40 -0.5 Z M 148.953965731316 0.5 L 212.345431462632 0.5 L 212.345431462632 3.5 L 219.345431462632 0 L 212.345431462632 -3.5 L 212.345431462632 -0.5 L 148.953965731316 -0.5 Z"/><text text-anchor="middle" pointer-events="none" font-size="8px" fill="#000000" x="126.172715731316" y="3" font-family="sans-serif">ACTED_IN</text></g><g class="relationship" transform="translate(-16.534694776537208 372.51200910860973) rotate(226.88325565951465)"><path class="outline" fill="#A5ABB6" stroke="none" d="M 40 0.5 L 220.03429882372956 0.5 L 220.03429882372956 -0.5 L 40 -0.5 Z M 265.59679882372956 0.5 L 445.6310976474591 0.5 L 445.6310976474591 3.5 L 452.6310976474591 0 L 445.6310976474591 -3.5 L 445.6310976474591 -0.5 L 265.59679882372956 -0.5 Z"/><text text-anchor="middle" pointer-events="none" font-size="8px" fill="#000000" x="242.81554882372956" y="3" transform="rotate(180 242.81554882372956 0)" font-family="sans-serif">ACTED_IN</text></g><g class="relationship" transform="translate(-16.534694776537208 372.51200910860973) rotate(187.15656509822435)"><path class="outline" fill="#A5ABB6" stroke="none" d="M 40 0.5 L 150.9820571887053 0.5 L 150.9820571887053 -0.5 L 40 -0.5 Z M 196.5445571887053 0.5 L 307.5266143774106 0.5 L 307.5266143774106 3.5 L 314.5266143774106 0 L 307.5266143774106 -3.5 L 307.5266143774106 -0.5 L 196.5445571887053 -0.5 Z"/><text text-anchor="middle" pointer-events="none" font-size="8px" fill="#000000" x="173.7633071887053" y="3" transform="rotate(180 173.7633071887053 0)" font-family="sans-serif">ACTED_IN</text></g><g class="relationship" transform="translate(352.2209754138675 165.12589927917145) rotate(539.4804032500738)"><path class="outline" fill="#A5ABB6" stroke="none" d="M 40 0.5 L 78.98189050169593 0.5 L 78.98189050169593 -0.5 L 40 -0.5 Z M 124.54439050169593 0.5 L 163.52628100339186 0.5 L 163.52628100339186 3.5 L 170.52628100339186 0 L 163.52628100339186 -3.5 L 163.52628100339186 -0.5 L 124.54439050169593 -0.5 Z"/><text text-anchor="middle" pointer-events="none" font-size="8px" fill="#000000" x="101.76314050169593" y="3" transform="rotate(180 101.76314050169593 0)" font-family="sans-serif">ACTED_IN</text></g><g class="relationship" transform="translate(352.2209754138675 165.12589927917145) rotate(192.17592289232198)"><path class="outline" fill="#A5ABB6" stroke="none" d="M 40 0.5 L 334.56752588040604 0.5 L 334.56752588040604 -0.5 L 40 -0.5 Z M 380.13002588040604 0.5 L 674.6975517608121 0.5 L 674.6975517608121 3.5 L 681.6975517608121 0 L 674.6975517608121 -3.5 L 674.6975517608121 -0.5 L 380.13002588040604 -0.5 Z"/><text text-anchor="middle" pointer-events="none" font-size="8px" fill="#000000" x="357.34877588040604" y="3" transform="rotate(180 357.34877588040604 0)" font-family="sans-serif">ACTED_IN</text></g><g class="relationship" transform="translate(352.2209754138675 165.12589927917145) rotate(527.2362562144629)"><path class="outline" fill="#A5ABB6" stroke="none" d="M 40 0.5 L 343.10672587178294 0.5 L 343.10672587178294 -0.5 L 40 -0.5 Z M 388.66922587178294 0.5 L 691.7759517435659 0.5 L 691.7759517435659 3.5 L 698.7759517435659 0 L 691.7759517435659 -3.5 L 691.7759517435659 -0.5 L 388.66922587178294 -0.5 Z"/><text text-anchor="middle" pointer-events="none" font-size="8px" fill="#000000" x="365.88797587178294" y="3" transform="rotate(180 365.88797587178294 0)" font-family="sans-serif">ACTED_IN</text></g><g class="relationship" transform="translate(-389.9115200696623 178.98442336672534) rotate(358.7123528003058)"><path class="outline" fill="#A5ABB6" stroke="none" d="M 40 0.5 L 239.5933250118751 0.5 L 239.5933250118751 -0.5 L 40 -0.5 Z M 285.1558250118751 0.5 L 484.7491500237502 0.5 L 484.7491500237502 3.5 L 491.7491500237502 0 L 484.7491500237502 -3.5 L 484.7491500237502 -0.5 L 285.1558250118751 -0.5 Z"/><text text-anchor="middle" pointer-events="none" font-size="8px" fill="#000000" x="262.3745750118751" y="3" font-family="sans-serif">ACTED_IN</text></g><g class="relationship" transform="translate(-389.9115200696623 178.98442336672534) rotate(282.45130360342216)"><path class="outline" fill="#A5ABB6" stroke="none" d="M 40 0.5 L 58.75620049065975 0.5 L 58.75620049065975 -0.5 L 40 -0.5 Z M 104.31870049065975 0.5 L 123.0749009813195 0.5 L 123.0749009813195 3.5 L 130.0749009813195 0 L 123.0749009813195 -3.5 L 123.0749009813195 -0.5 L 104.31870049065975 -0.5 Z"/><text text-anchor="middle" pointer-events="none" font-size="8px" fill="#000000" x="81.53745049065975" y="3" font-family="sans-serif">ACTED_IN</text></g><g class="relationship" transform="translate(-389.9115200696623 178.98442336672534) rotate(441.76654438262653)"><path class="outline" fill="#A5ABB6" stroke="none" d="M 40 0.5 L 49.176647441158394 0.5 L 49.176647441158394 -0.5 L 40 -0.5 Z M 94.7391474411584 0.5 L 103.91579488231679 0.5 L 103.91579488231679 3.5 L 110.91579488231679 0 L 103.91579488231679 -3.5 L 103.91579488231679 -0.5 L 94.7391474411584 -0.5 Z"/><text text-anchor="middle" pointer-events="none" font-size="8px" fill="#000000" x="71.9578974411584" y="3" font-family="sans-serif">ACTED_IN</text></g><g class="relationship" transform="translate(-206.23666715055208 246.05839962661383) rotate(347.20418105268266)"><path class="outline" fill="#A5ABB6" stroke="none" d="M 40 0.5 L 151.45518040337757 0.5 L 151.45518040337757 -0.5 L 40 -0.5 Z M 198.34580540337757 0.5 L 309.80098580675514 0.5 L 309.80098580675514 3.5 L 316.80098580675514 0 L 309.80098580675514 -3.5 L 309.80098580675514 -0.5 L 198.34580540337757 -0.5 Z"/><text text-anchor="middle" pointer-events="none" font-size="8px" fill="#000000" x="174.90049290337757" y="3" font-family="sans-serif">DIRECTED</text></g><g class="relationship" transform="translate(-206.23666715055208 246.05839962661383) rotate(237.76772125123972)"><path class="outline" fill="#A5ABB6" stroke="none" d="M 40 0.5 L 110.8668560064655 0.5 L 110.8668560064655 -0.5 L 40 -0.5 Z M 157.7574810064655 0.5 L 228.624337012931 0.5 L 228.624337012931 3.5 L 235.624337012931 0 L 228.624337012931 -3.5 L 228.624337012931 -0.5 L 157.7574810064655 -0.5 Z"/><text text-anchor="middle" pointer-events="none" font-size="8px" fill="#000000" x="134.3121685064655" y="3" transform="rotate(180 134.3121685064655 0)" font-family="sans-serif">DIRECTED</text></g><g class="relationship" transform="translate(-206.23666715055208 246.05839962661383) rotate(513.0811063028394)"><path class="outline" fill="#A5ABB6" stroke="none" d="M 40 0.5 L 63.93282832590347 0.5 L 63.93282832590347 -0.5 L 40 -0.5 Z M 110.82345332590347 0.5 L 134.75628165180694 0.5 L 134.75628165180694 3.5 L 141.75628165180694 0 L 134.75628165180694 -3.5 L 134.75628165180694 -0.5 L 110.82345332590347 -0.5 Z"/><text text-anchor="middle" pointer-events="none" font-size="8px" fill="#000000" x="87.37814082590347" y="3" transform="rotate(180 87.37814082590347 0)" font-family="sans-serif">DIRECTED</text></g><g class="relationship" transform="translate(-173.8850759882125 57.776996911272846) rotate(379.09607341354695)"><path class="outline" fill="#A5ABB6" stroke="none" d="M 40 0.5 L 140.0377565364012 0.5 L 140.0377565364012 -0.5 L 40 -0.5 Z M 186.9283815364012 0.5 L 286.9661380728024 0.5 L 286.9661380728024 3.5 L 293.9661380728024 0 L 286.9661380728024 -3.5 L 286.9661380728024 -0.5 L 186.9283815364012 -0.5 Z"/><text text-anchor="middle" pointer-events="none" font-size="8px" fill="#000000" x="163.4830690364012" y="3" font-family="sans-serif">DIRECTED</text></g><g class="relationship" transform="translate(-173.8850759882125 57.776996911272846) rotate(194.04468808523075)"><path class="outline" fill="#A5ABB6" stroke="none" d="M 40 0.5 L 65.49638791510596 0.5 L 65.49638791510596 -0.5 L 40 -0.5 Z M 112.38701291510596 0.5 L 137.8834008302119 0.5 L 137.8834008302119 3.5 L 144.8834008302119 0 L 137.8834008302119 -3.5 L 137.8834008302119 -0.5 L 112.38701291510596 -0.5 Z"/><text text-anchor="middle" pointer-events="none" font-size="8px" fill="#000000" x="88.94170041510596" y="3" transform="rotate(180 88.94170041510596 0)" font-family="sans-serif">DIRECTED</text></g><g class="relationship" transform="translate(-173.8850759882125 57.776996911272846) rotate(485.69883438043166)"><path class="outline" fill="#A5ABB6" stroke="none" d="M 40 0.5 L 139.64084201586417 0.5 L 139.64084201586417 -0.5 L 40 -0.5 Z M 186.53146701586417 0.5 L 286.17230903172833 0.5 L 286.17230903172833 3.5 L 293.17230903172833 0 L 286.17230903172833 -3.5 L 286.17230903172833 -0.5 L 186.53146701586417 -0.5 Z"/><text text-anchor="middle" pointer-events="none" font-size="8px" fill="#000000" x="163.08615451586417" y="3" transform="rotate(180 163.08615451586417 0)" font-family="sans-serif">DIRECTED</text></g><g class="relationship" transform="translate(251.30584769317116 287.4624263876635) rotate(227.69426646166949)"><path class="outline" fill="#A5ABB6" stroke="none" d="M 40 0.5 L 52.02721092672927 0.5 L 52.02721092672927 -0.5 L 40 -0.5 Z M 103.80846092672927 0.5 L 115.83567185345854 0.5 L 115.83567185345854 3.5 L 122.83567185345854 0 L 115.83567185345854 -3.5 L 115.83567185345854 -0.5 L 103.80846092672927 -0.5 Z"/><text text-anchor="middle" pointer-events="none" font-size="8px" fill="#000000" x="77.91783592672927" y="3" transform="rotate(180 77.91783592672927 0)" font-family="sans-serif">PRODUCED</text></g><g class="relationship" transform="translate(251.30584769317116 287.4624263876635) rotate(204.4249698047284)"><path class="outline" fill="#A5ABB6" stroke="none" d="M 40 0.5 L 302.59466124613846 0.5 L 302.59466124613846 -0.5 L 40 -0.5 Z M 354.37591124613846 0.5 L 616.9705724922769 0.5 L 616.9705724922769 3.5 L 623.9705724922769 0 L 616.9705724922769 -3.5 L 616.9705724922769 -0.5 L 354.37591124613846 -0.5 Z"/><text text-anchor="middle" pointer-events="none" font-size="8px" fill="#000000" x="328.48528624613846" y="3" transform="rotate(180 328.48528624613846 0)" font-family="sans-serif">PRODUCED</text></g><g class="relationship" transform="translate(251.30584769317116 287.4624263876635) rotate(536.2250297700194)"><path class="outline" fill="#A5ABB6" stroke="none" d="M 40 0.5 L 281.0856035847255 0.5 L 281.0856035847255 -0.5 L 40 -0.5 Z M 332.8668535847255 0.5 L 573.952457169451 0.5 L 573.952457169451 3.5 L 580.952457169451 0 L 573.952457169451 -3.5 L 573.952457169451 -0.5 L 332.8668535847255 -0.5 Z"/><text text-anchor="middle" pointer-events="none" font-size="8px" fill="#000000" x="306.9762285847255" y="3" transform="rotate(180 306.9762285847255 0)" font-family="sans-serif">PRODUCED</text></g><g class="relationship" transform="translate(-524.7786271872898 312.8822995531193) rotate(365.6433243073506)"><path class="outline" fill="#A5ABB6" stroke="none" d="M 40 0.5 L 52.33944007754339 0.5 L 52.33944007754339 -0.5 L 40 -0.5 Z M 97.90194007754339 0.5 L 110.24138015508677 0.5 L 110.24138015508677 3.5 L 117.24138015508677 0 L 110.24138015508677 -3.5 L 110.24138015508677 -0.5 L 97.90194007754339 -0.5 Z"/><text text-anchor="middle" pointer-events="none" font-size="8px" fill="#000000" x="75.12069007754339" y="3" font-family="sans-serif">ACTED_IN</text></g><g class="relationship" transform="translate(280.8649735655364 57.765943421916006) rotate(213.09773254281765)"><path class="outline" fill="#A5ABB6" stroke="none" d="M 40 0.5 L 67.24466405510152 0.5 L 67.24466405510152 -0.5 L 40 -0.5 Z M 112.80716405510152 0.5 L 140.05182811020305 0.5 L 140.05182811020305 3.5 L 147.05182811020305 0 L 140.05182811020305 -3.5 L 140.05182811020305 -0.5 L 112.80716405510152 -0.5 Z"/><text text-anchor="middle" pointer-events="none" font-size="8px" fill="#000000" x="90.02591405510152" y="3" transform="rotate(180 90.02591405510152 0)" font-family="sans-serif">ACTED_IN</text></g><g class="relationship" transform="translate(2.2543944359690613 -165.44281158051638) rotate(404.8009465420643)"><path class="outline" fill="#A5ABB6" stroke="none" d="M 40 0.5 L 59.62401151188011 0.5 L 59.62401151188011 -0.5 L 40 -0.5 Z M 105.18651151188011 0.5 L 124.81052302376023 0.5 L 124.81052302376023 3.5 L 131.81052302376023 0 L 124.81052302376023 -3.5 L 124.81052302376023 -0.5 L 105.18651151188011 -0.5 Z"/><text text-anchor="middle" pointer-events="none" font-size="8px" fill="#000000" x="82.40526151188011" y="3" font-family="sans-serif">ACTED_IN</text></g><g class="relationship" transform="translate(199.8978001938715 -202.80999415549098) rotate(475.5486306186974)"><path class="outline" fill="#A5ABB6" stroke="none" d="M 40 0.5 L 60.85635813367767 0.5 L 60.85635813367767 -0.5 L 40 -0.5 Z M 107.74698313367767 0.5 L 128.60334126735535 0.5 L 128.60334126735535 3.5 L 135.60334126735535 0 L 128.60334126735535 -3.5 L 128.60334126735535 -0.5 L 107.74698313367767 -0.5 Z"/><text text-anchor="middle" pointer-events="none" font-size="8px" fill="#000000" x="84.30167063367767" y="3" transform="rotate(180 84.30167063367767 0)" font-family="sans-serif">DIRECTED</text></g><g class="relationship" transform="translate(-843.60866887242 201.0005572443345) rotate(273.8632982323014)"><path class="outline" fill="#A5ABB6" stroke="none" d="M 40 0.5 L 47.81011043044906 0.5 L 47.81011043044906 -0.5 L 40 -0.5 Z M 93.37261043044906 0.5 L 101.18272086089812 0.5 L 101.18272086089812 3.5 L 108.18272086089812 0 L 101.18272086089812 -3.5 L 101.18272086089812 -0.5 L 93.37261043044906 -0.5 Z"/><text text-anchor="middle" pointer-events="none" font-size="8px" fill="#000000" x="70.59136043044906" y="3" font-family="sans-serif">ACTED_IN</text></g><g class="relationship" transform="translate(-389.86816425548585 -90.19200239247465) rotate(522.097999172131)"><path class="outline" fill="#A5ABB6" stroke="none" d="M 40 0.5 L 206.88611662285965 0.5 L 206.88611662285965 -0.5 L 40 -0.5 Z M 252.44861662285965 0.5 L 419.3347332457193 0.5 L 419.3347332457193 3.5 L 426.3347332457193 0 L 419.3347332457193 -3.5 L 419.3347332457193 -0.5 L 252.44861662285965 -0.5 Z"/><text text-anchor="middle" pointer-events="none" font-size="8px" fill="#000000" x="229.66736662285965" y="3" transform="rotate(180 229.66736662285965 0)" font-family="sans-serif">ACTED_IN</text></g><g class="relationship" transform="translate(-620.992110285271 -158.40614025454744) rotate(495.1447771803895)"><path class="outline" fill="#A5ABB6" stroke="none" d="M 40 0.5 L 123.69419825939164 0.5 L 123.69419825939164 -0.5 L 40 -0.5 Z M 169.25669825939164 0.5 L 252.95089651878328 0.5 L 252.95089651878328 3.5 L 259.9508965187833 0 L 252.95089651878328 -3.5 L 252.95089651878328 -0.5 L 169.25669825939164 -0.5 Z"/><text text-anchor="middle" pointer-events="none" font-size="8px" fill="#000000" x="146.47544825939164" y="3" transform="rotate(180 146.47544825939164 0)" font-family="sans-serif">ACTED_IN</text></g><g class="relationship" transform="translate(-623.5502385975775 233.56243916139897) rotate(220.65534801904448)"><path class="outline" fill="#A5ABB6" stroke="none" d="M 40 0.5 L 112.17296095007552 0.5 L 112.17296095007552 -0.5 L 40 -0.5 Z M 157.73546095007552 0.5 L 229.90842190015104 0.5 L 229.90842190015104 3.5 L 236.90842190015104 0 L 229.90842190015104 -3.5 L 229.90842190015104 -0.5 L 157.73546095007552 -0.5 Z"/><text text-anchor="middle" pointer-events="none" font-size="8px" fill="#000000" x="134.95421095007552" y="3" transform="rotate(180 134.95421095007552 0)" font-family="sans-serif">ACTED_IN</text></g><g class="relationship" transform="translate(-788.042542073939 -136.96234012353224) rotate(463.4826481541015)"><path class="outline" fill="#A5ABB6" stroke="none" d="M 40 0.5 L 71.47120177527367 0.5 L 71.47120177527367 -0.5 L 40 -0.5 Z M 117.03370177527367 0.5 L 148.50490355054734 0.5 L 148.50490355054734 3.5 L 155.50490355054734 0 L 148.50490355054734 -3.5 L 148.50490355054734 -0.5 L 117.03370177527367 -0.5 Z"/><text text-anchor="middle" pointer-events="none" font-size="8px" fill="#000000" x="94.25245177527367" y="3" transform="rotate(180 94.25245177527367 0)" font-family="sans-serif">ACTED_IN</text></g><g class="relationship" transform="translate(-731.5527107975802 250.34464918372288) rotate(242.6324539059268)"><path class="outline" fill="#A5ABB6" stroke="none" d="M 40 0.5 L 84.73971448042637 0.5 L 84.73971448042637 -0.5 L 40 -0.5 Z M 130.30221448042636 0.5 L 175.04192896085274 0.5 L 175.04192896085274 3.5 L 182.04192896085274 0 L 175.04192896085274 -3.5 L 175.04192896085274 -0.5 L 130.30221448042636 -0.5 Z"/><text text-anchor="middle" pointer-events="none" font-size="8px" fill="#000000" x="107.52096448042637" y="3" transform="rotate(180 107.52096448042637 0)" font-family="sans-serif">ACTED_IN</text></g><g class="relationship" transform="translate(-500.2743616108864 -134.60527811981763) rotate(510.60957825056096)"><path class="outline" fill="#A5ABB6" stroke="none" d="M 40 0.5 L 165.01445863918272 0.5 L 165.01445863918272 -0.5 L 40 -0.5 Z M 210.57695863918272 0.5 L 335.59141727836544 0.5 L 335.59141727836544 3.5 L 342.59141727836544 0 L 335.59141727836544 -3.5 L 335.59141727836544 -0.5 L 210.57695863918272 -0.5 Z"/><text text-anchor="middle" pointer-events="none" font-size="8px" fill="#000000" x="187.79570863918272" y="3" transform="rotate(180 187.79570863918272 0)" font-family="sans-serif">ACTED_IN</text></g><g class="relationship" transform="translate(-574.4203425986924 67.12850355116335) rotate(183.08588062087318)"><path class="outline" fill="#A5ABB6" stroke="none" d="M 40 0.5 L 103.50911967134073 0.5 L 103.50911967134073 -0.5 L 40 -0.5 Z M 149.07161967134073 0.5 L 212.58073934268145 0.5 L 212.58073934268145 3.5 L 219.58073934268145 0 L 212.58073934268145 -3.5 L 212.58073934268145 -0.5 L 149.07161967134073 -0.5 Z"/><text text-anchor="middle" pointer-events="none" font-size="8px" fill="#000000" x="126.29036967134073" y="3" transform="rotate(180 126.29036967134073 0)" font-family="sans-serif">ACTED_IN</text></g><g class="relationship" transform="translate(-483.9113547265098 207.79403775183124) rotate(203.85449960483436)"><path class="outline" fill="#A5ABB6" stroke="none" d="M 40 0.5 L 164.90764784810088 0.5 L 164.90764784810088 -0.5 L 40 -0.5 Z M 210.47014784810088 0.5 L 335.37779569620176 0.5 L 335.37779569620176 3.5 L 342.37779569620176 0 L 335.37779569620176 -3.5 L 335.37779569620176 -0.5 L 210.47014784810088 -0.5 Z"/><text text-anchor="middle" pointer-events="none" font-size="8px" fill="#000000" x="187.68889784810088" y="3" transform="rotate(180 187.68889784810088 0)" font-family="sans-serif">ACTED_IN</text></g><g class="relationship" transform="translate(-389.86816425548585 -90.19200239247465) rotate(285.5373804117358)"><path class="outline" fill="#A5ABB6" stroke="none" d="M 40 0.5 L 69.60457751847538 0.5 L 69.60457751847538 -0.5 L 40 -0.5 Z M 115.16707751847538 0.5 L 144.77165503695076 0.5 L 144.77165503695076 3.5 L 151.77165503695076 0 L 144.77165503695076 -3.5 L 144.77165503695076 -0.5 L 115.16707751847538 -0.5 Z"/><text text-anchor="middle" pointer-events="none" font-size="8px" fill="#000000" x="92.38582751847538" y="3" font-family="sans-serif">ACTED_IN</text></g><g class="relationship" transform="translate(-389.86816425548585 -90.19200239247465) rotate(486.8761243923567)"><path class="outline" fill="#A5ABB6" stroke="none" d="M 40 0.5 L 49.92647530853053 0.5 L 49.92647530853053 -0.5 L 40 -0.5 Z M 95.48897530853053 0.5 L 105.41545061706105 0.5 L 105.41545061706105 3.5 L 112.41545061706105 0 L 105.41545061706105 -3.5 L 105.41545061706105 -0.5 L 95.48897530853053 -0.5 Z"/><text text-anchor="middle" pointer-events="none" font-size="8px" fill="#000000" x="72.70772530853053" y="3" transform="rotate(180 72.70772530853053 0)" font-family="sans-serif">ACTED_IN</text></g><g class="relationship" transform="translate(-389.86816425548585 -90.19200239247465) rotate(331.1984024885688)"><path class="outline" fill="#A5ABB6" stroke="none" d="M 40 0.5 L 150.87891126073518 0.5 L 150.87891126073518 -0.5 L 40 -0.5 Z M 196.44141126073518 0.5 L 307.32032252147036 0.5 L 307.32032252147036 3.5 L 314.32032252147036 0 L 307.32032252147036 -3.5 L 307.32032252147036 -0.5 L 196.44141126073518 -0.5 Z"/><text text-anchor="middle" pointer-events="none" font-size="8px" fill="#000000" x="173.66016126073518" y="3" font-family="sans-serif">ACTED_IN</text></g><g class="relationship" transform="translate(-389.86816425548585 -90.19200239247465) rotate(357.3311514820573)"><path class="outline" fill="#A5ABB6" stroke="none" d="M 40 0.5 L 83.04058129477637 0.5 L 83.04058129477637 -0.5 L 40 -0.5 Z M 128.60308129477636 0.5 L 171.64366258955275 0.5 L 171.64366258955275 3.5 L 178.64366258955275 0 L 171.64366258955275 -3.5 L 171.64366258955275 -0.5 L 128.60308129477636 -0.5 Z"/><text text-anchor="middle" pointer-events="none" font-size="8px" fill="#000000" x="105.82183129477637" y="3" font-family="sans-serif">ACTED_IN</text></g><g class="relationship" transform="translate(-20.604784270470432 -39.89770625438456) rotate(201.84472302786446)"><path class="outline" fill="#A5ABB6" stroke="none" d="M 40 0.5 L 54.982257752406866 0.5 L 54.982257752406866 -0.5 L 40 -0.5 Z M 100.54475775240687 0.5 L 115.52701550481373 0.5 L 115.52701550481373 3.5 L 122.52701550481373 0 L 115.52701550481373 -3.5 L 115.52701550481373 -0.5 L 100.54475775240687 -0.5 Z"/><text text-anchor="middle" pointer-events="none" font-size="8px" fill="#000000" x="77.76350775240687" y="3" transform="rotate(180 77.76350775240687 0)" font-family="sans-serif">ACTED_IN</text></g><g class="relationship" transform="translate(-500.2743616108864 -134.60527811981763) rotate(319.05633800078914)"><path class="outline" fill="#A5ABB6" stroke="none" d="M 40 0.5 L 80.80458652804566 0.5 L 80.80458652804566 -0.5 L 40 -0.5 Z M 126.36708652804566 0.5 L 167.17167305609132 0.5 L 167.17167305609132 3.5 L 174.17167305609132 0 L 167.17167305609132 -3.5 L 167.17167305609132 -0.5 L 126.36708652804566 -0.5 Z"/><text text-anchor="middle" pointer-events="none" font-size="8px" fill="#000000" x="103.58583652804566" y="3" font-family="sans-serif">ACTED_IN</text></g><g class="relationship" transform="translate(-483.9113547265098 207.79403775183124) rotate(270.83975824455035)"><path class="outline" fill="#A5ABB6" stroke="none" d="M 40 0.5 L 61.760015506259606 0.5 L 61.760015506259606 -0.5 L 40 -0.5 Z M 107.3225155062596 0.5 L 129.0825310125192 0.5 L 129.0825310125192 3.5 L 136.0825310125192 0 L 129.0825310125192 -3.5 L 129.0825310125192 -0.5 L 107.3225155062596 -0.5 Z"/><text text-anchor="middle" pointer-events="none" font-size="8px" fill="#000000" x="84.5412655062596" y="3" font-family="sans-serif">ACTED_IN</text></g></g><g class="layer nodes"><g class="node" transform="translate(-368.29934442911383,328.3446958927341)"><circle class="outline" cx="0" cy="0" r="40" fill="#4C8EDA" stroke="#2870c2" stroke-width="2px"/><text text-anchor="middle" pointer-events="none" font-family="sans-serif" dy="2.5" font-size="40" fill="#FFFFFF"/><text text-anchor="middle" pointer-events="none" y="5" font-size="10px" fill="#FFFFFF" font-family="sans-serif"> The Matrix</text></g><g class="node" transform="translate(-20.604784270470432,-39.89770625438456)"><circle class="outline" cx="0" cy="0" r="40" fill="#DA7194" stroke="#cc3c6c" stroke-width="2px"/><text text-anchor="middle" pointer-events="none" font-family="sans-serif" dy="2.5" font-size="40" fill="#FFFFFF"/><text text-anchor="middle" pointer-events="none" y="5" font-size="10px" fill="#FFFFFF" font-family="sans-serif"> Keanu Reeves</text></g><g class="node" transform="translate(-16.534694776537208,372.51200910860973)"><circle class="outline" cx="0" cy="0" r="40" fill="#DA7194" stroke="#cc3c6c" stroke-width="2px"/><text text-anchor="middle" pointer-events="none" font-family="sans-serif" dy="2.5" font-size="40" fill="#FFFFFF"/><text text-anchor="middle" pointer-events="none" y="5" font-size="40" fill="#FFFFFF" dy="2.5" font-family="sans-serif"/><text text-anchor="middle" pointer-events="none" y="0" font-size="10px" fill="#FFFFFF" font-family="sans-serif"> Carrie-Anne</text><text text-anchor="middle" pointer-events="none" y="10" font-size="10px" fill="#FFFFFF" font-family="sans-serif"> Moss</text></g><g class="node" transform="translate(352.2209754138675,165.12589927917145)"><circle class="outline" cx="0" cy="0" r="40" fill="#DA7194" stroke="#cc3c6c" stroke-width="2px"/><text text-anchor="middle" pointer-events="none" font-family="sans-serif" dy="2.5" font-size="40" fill="#FFFFFF"/><text text-anchor="middle" pointer-events="none" font-family="sans-serif" dy="2.5" font-size="40" fill="#FFFFFF"/><text text-anchor="middle" pointer-events="none" y="0" font-size="10px" fill="#FFFFFF" font-family="sans-serif"> Laurence</text><text text-anchor="middle" pointer-events="none" y="10" font-size="10px" fill="#FFFFFF" font-family="sans-serif"> Fishburne</text></g><g class="node" transform="translate(-389.9115200696623,178.98442336672534)"><circle class="outline" cx="0" cy="0" r="40" fill="#DA7194" stroke="#cc3c6c" stroke-width="2px"/><text text-anchor="middle" pointer-events="none" font-family="sans-serif" dy="2.5" font-size="40" fill="#FFFFFF"/><text text-anchor="middle" pointer-events="none" y="5" font-size="10px" fill="#FFFFFF" font-family="sans-serif"> Hugo Weaving</text></g><g class="node" transform="translate(-206.23666715055208,246.05839962661383)"><circle class="outline" cx="0" cy="0" r="40" fill="#DA7194" stroke="#cc3c6c" stroke-width="2px"/><text text-anchor="middle" pointer-events="none" font-family="sans-serif" dy="2.5" font-size="40" fill="#FFFFFF"/><text text-anchor="middle" pointer-events="none" y="5" font-size="10px" fill="#FFFFFF" font-family="sans-serif"> Lilly Wachowski</text></g><g class="node" transform="translate(-173.8850759882125,57.776996911272846)"><circle class="outline" cx="0" cy="0" r="40" fill="#DA7194" stroke="#cc3c6c" stroke-width="2px"/><text text-anchor="middle" pointer-events="none" font-family="sans-serif" dy="2.5" font-size="40" fill="#FFFFFF"/><text text-anchor="middle" pointer-events="none" y="5" font-size="10px" fill="#FFFFFF" font-family="sans-serif"> Lana Wachowski</text></g><g class="node" transform="translate(251.30584769317116,287.4624263876635)"><circle class="outline" cx="0" cy="0" r="40" fill="#DA7194" stroke="#cc3c6c" stroke-width="2px"/><text text-anchor="middle" pointer-events="none" font-family="sans-serif" dy="2.5" font-size="40" fill="#FFFFFF"/><text text-anchor="middle" pointer-events="none" y="5" font-size="10px" fill="#FFFFFF" font-family="sans-serif"> Joel Silver</text></g><g class="node" transform="translate(-524.7786271872898,312.8822995531193)"><circle class="outline" cx="0" cy="0" r="40" fill="#DA7194" stroke="#cc3c6c" stroke-width="2px"/><text text-anchor="middle" pointer-events="none" font-family="sans-serif" dy="2.5" font-size="40" fill="#FFFFFF"/><text text-anchor="middle" pointer-events="none" y="5" font-size="10px" fill="#FFFFFF" font-family="sans-serif"> Emil Eifrem</text></g><g class="node" transform="translate(-353.2417098322409,12.90975052057118)"><circle class="outline" cx="0" cy="0" r="40" fill="#4C8EDA" stroke="#2870c2" stroke-width="2px"/><text text-anchor="middle" pointer-events="none" font-family="sans-serif" dy="2.5" font-size="40" fill="#FFFFFF"/><text text-anchor="middle" pointer-events="none" font-family="sans-serif" dy="2.5" font-size="40" fill="#FFFFFF"/><text text-anchor="middle" pointer-events="none" y="0" font-size="10px" fill="#FFFFFF" font-family="sans-serif"> The Matrix</text><text text-anchor="middle" pointer-events="none" y="10" font-size="10px" fill="#FFFFFF" font-family="sans-serif"> Reloaded</text></g><g class="node" transform="translate(141.70335128122832,167.035067335672)"><circle class="outline" cx="0" cy="0" r="40" fill="#4C8EDA" stroke="#2870c2" stroke-width="2px"/><text text-anchor="middle" pointer-events="none" font-family="sans-serif" dy="2.5" font-size="40" fill="#FFFFFF"/><text text-anchor="middle" pointer-events="none" font-family="sans-serif" dy="2.5" font-size="40" fill="#FFFFFF"/><text text-anchor="middle" pointer-events="none" y="0" font-size="10px" fill="#FFFFFF" font-family="sans-serif"> The Matrix</text><text text-anchor="middle" pointer-events="none" y="10" font-size="10px" fill="#FFFFFF" font-family="sans-serif"> Revolutions</text></g><g class="node" transform="translate(124.1641137824588,-44.37722542756312)"><circle class="outline" cx="0" cy="0" r="40" fill="#4C8EDA" stroke="#2870c2" stroke-width="2px"/><text text-anchor="middle" pointer-events="none" font-family="sans-serif" dy="2.5" font-size="40" fill="#FFFFFF"/><text text-anchor="middle" pointer-events="none" font-family="sans-serif" dy="2.5" font-size="40" fill="#FFFFFF"/><text text-anchor="middle" pointer-events="none" y="0" font-size="10px" fill="#FFFFFF" font-family="sans-serif"> The Devil's</text><text text-anchor="middle" pointer-events="none" y="10" font-size="10px" fill="#FFFFFF" font-family="sans-serif"> Advocate</text></g><g class="node" transform="translate(280.8649735655364,57.765943421916006)"><circle class="outline" cx="0" cy="0" r="40" fill="#DA7194" stroke="#cc3c6c" stroke-width="2px"/><text text-anchor="middle" pointer-events="none" font-family="sans-serif" dy="2.5" font-size="40" fill="#FFFFFF"/><text text-anchor="middle" pointer-events="none" y="5" font-size="10px" fill="#FFFFFF" font-family="sans-serif"> Charlize Theron</text></g><g class="node" transform="translate(2.2543944359690613,-165.44281158051638)"><circle class="outline" cx="0" cy="0" r="40" fill="#DA7194" stroke="#cc3c6c" stroke-width="2px"/><text text-anchor="middle" pointer-events="none" font-family="sans-serif" dy="2.5" font-size="40" fill="#FFFFFF"/><text text-anchor="middle" pointer-events="none" y="5" font-size="10px" fill="#FFFFFF" font-family="sans-serif"> Al Pacino</text></g><g class="node" transform="translate(199.8978001938715,-202.80999415549098)"><circle class="outline" cx="0" cy="0" r="40" fill="#DA7194" stroke="#cc3c6c" stroke-width="2px"/><text text-anchor="middle" pointer-events="none" font-family="sans-serif" dy="2.5" font-size="40" fill="#FFFFFF"/><text text-anchor="middle" pointer-events="none" y="5" font-size="10px" fill="#FFFFFF" font-family="sans-serif"> Taylor Hackford</text></g><g class="node" transform="translate(-833.6246812070917,53.15456050435702)"><circle class="outline" cx="0" cy="0" r="40" fill="#4C8EDA" stroke="#2870c2" stroke-width="2px"/><text text-anchor="middle" pointer-events="none" font-family="sans-serif" dy="2.5" font-size="40" fill="#FFFFFF"/><text text-anchor="middle" pointer-events="none" font-family="sans-serif" dy="2.5" font-size="40" fill="#FFFFFF"/><text text-anchor="middle" pointer-events="none" y="0" font-size="10px" fill="#FFFFFF" font-family="sans-serif"> A Few Good</text><text text-anchor="middle" pointer-events="none" y="10" font-size="10px" fill="#FFFFFF" font-family="sans-serif"> Men</text></g><g class="node" transform="translate(-843.60866887242,201.0005572443345)"><circle class="outline" cx="0" cy="0" r="40" fill="#DA7194" stroke="#cc3c6c" stroke-width="2px"/><text text-anchor="middle" pointer-events="none" font-family="sans-serif" dy="2.5" font-size="40" fill="#FFFFFF"/><text text-anchor="middle" pointer-events="none" y="5" font-size="10px" fill="#FFFFFF" font-family="sans-serif"> Tom Cruise</text></g><g class="node" transform="translate(-389.86816425548585,-90.19200239247465)"><circle class="outline" cx="0" cy="0" r="40" fill="#DA7194" stroke="#cc3c6c" stroke-width="2px"/><text text-anchor="middle" pointer-events="none" font-family="sans-serif" dy="2.5" font-size="40" fill="#FFFFFF"/><text text-anchor="middle" pointer-events="none" y="5" font-size="10px" fill="#FFFFFF" font-family="sans-serif"> Jack Nicholson</text></g><g class="node" transform="translate(-620.992110285271,-158.40614025454744)"><circle class="outline" cx="0" cy="0" r="40" fill="#DA7194" stroke="#cc3c6c" stroke-width="2px"/><text text-anchor="middle" pointer-events="none" font-family="sans-serif" dy="2.5" font-size="40" fill="#FFFFFF"/><text text-anchor="middle" pointer-events="none" y="5" font-size="10px" fill="#FFFFFF" font-family="sans-serif"> Demi Moore</text></g><g class="node" transform="translate(-623.5502385975775,233.56243916139897)"><circle class="outline" cx="0" cy="0" r="40" fill="#DA7194" stroke="#cc3c6c" stroke-width="2px"/><text text-anchor="middle" pointer-events="none" font-family="sans-serif" dy="2.5" font-size="40" fill="#FFFFFF"/><text text-anchor="middle" pointer-events="none" y="5" font-size="10px" fill="#FFFFFF" font-family="sans-serif"> Kevin Bacon</text></g><g class="node" transform="translate(-788.042542073939,-136.96234012353224)"><circle class="outline" cx="0" cy="0" r="40" fill="#DA7194" stroke="#cc3c6c" stroke-width="2px"/><text text-anchor="middle" pointer-events="none" font-family="sans-serif" dy="2.5" font-size="40" fill="#FFFFFF"/><text text-anchor="middle" pointer-events="none" font-family="sans-serif" dy="2.5" font-size="40" fill="#FFFFFF"/><text text-anchor="middle" pointer-events="none" y="0" font-size="10px" fill="#FFFFFF" font-family="sans-serif"> Kiefer</text><text text-anchor="middle" pointer-events="none" y="10" font-size="10px" fill="#FFFFFF" font-family="sans-serif"> Sutherland</text></g><g class="node" transform="translate(-731.5527107975802,250.34464918372288)"><circle class="outline" cx="0" cy="0" r="40" fill="#DA7194" stroke="#cc3c6c" stroke-width="2px"/><text text-anchor="middle" pointer-events="none" font-family="sans-serif" dy="2.5" font-size="40" fill="#FFFFFF"/><text text-anchor="middle" pointer-events="none" y="5" font-size="10px" fill="#FFFFFF" font-family="sans-serif"> Noah Wyle</text></g><g class="node" transform="translate(-500.2743616108864,-134.60527811981763)"><circle class="outline" cx="0" cy="0" r="40" fill="#DA7194" stroke="#cc3c6c" stroke-width="2px"/><text text-anchor="middle" pointer-events="none" font-family="sans-serif" dy="2.5" font-size="40" fill="#FFFFFF"/><text text-anchor="middle" pointer-events="none" font-family="sans-serif" dy="2.5" font-size="40" fill="#FFFFFF"/><text text-anchor="middle" pointer-events="none" y="0" font-size="10px" fill="#FFFFFF" font-family="sans-serif"> Cuba Gooding</text><text text-anchor="middle" pointer-events="none" y="10" font-size="10px" fill="#FFFFFF" font-family="sans-serif"> Jr.</text></g><g class="node" transform="translate(-574.4203425986924,67.12850355116335)"><circle class="outline" cx="0" cy="0" r="40" fill="#DA7194" stroke="#cc3c6c" stroke-width="2px"/><text text-anchor="middle" pointer-events="none" font-family="sans-serif" dy="2.5" font-size="40" fill="#FFFFFF"/><text text-anchor="middle" pointer-events="none" y="5" font-size="10px" fill="#FFFFFF" font-family="sans-serif"> Kevin Pollak</text></g><g class="node" transform="translate(-483.9113547265098,207.79403775183124)"><circle class="outline" cx="0" cy="0" r="40" fill="#DA7194" stroke="#cc3c6c" stroke-width="2px"/><text text-anchor="middle" pointer-events="none" font-family="sans-serif" dy="2.5" font-size="40" fill="#FFFFFF"/><text text-anchor="middle" pointer-events="none" y="5" font-size="10px" fill="#FFFFFF" font-family="sans-serif"> J.T. Walsh</text></g><g class="node" transform="translate(-338.49886585270656,-274.95553466336804)"><circle class="outline" cx="0" cy="0" r="40" fill="#4C8EDA" stroke="#2870c2" stroke-width="2px"/><text text-anchor="middle" pointer-events="none" font-family="sans-serif" dy="2.5" font-size="40" fill="#FFFFFF"/><text text-anchor="middle" pointer-events="none" font-family="sans-serif" dy="2.5" font-size="40" fill="#FFFFFF"/><text text-anchor="middle" pointer-events="none" y="0" font-size="10px" fill="#FFFFFF" font-family="sans-serif"> As Good as It</text><text text-anchor="middle" pointer-events="none" y="10" font-size="10px" fill="#FFFFFF" font-family="sans-serif"> Gets</text></g><g class="node" transform="translate(-481.3306853566373,31.730418927901056)"><circle class="outline" cx="0" cy="0" r="40" fill="#4C8EDA" stroke="#2870c2" stroke-width="2px"/><text text-anchor="middle" pointer-events="none" font-family="sans-serif" dy="2.5" font-size="40" fill="#FFFFFF"/><text text-anchor="middle" pointer-events="none" y="5" font-size="10px" fill="#FFFFFF" font-family="sans-serif"> Hoffa</text></g><g class="node" transform="translate(-79.37965816828807,-260.8957766315316)"><circle class="outline" cx="0" cy="0" r="40" fill="#4C8EDA" stroke="#2870c2" stroke-width="2px"/><text text-anchor="middle" pointer-events="none" font-family="sans-serif" dy="2.5" font-size="40" fill="#FFFFFF"/><text text-anchor="middle" pointer-events="none" font-family="sans-serif" dy="2.5" font-size="40" fill="#FFFFFF"/><text text-anchor="middle" pointer-events="none" font-family="sans-serif" dy="2.5" font-size="40" fill="#FFFFFF"/><text text-anchor="middle" pointer-events="none" y="-5" font-size="10px" fill="#FFFFFF" font-family="sans-serif"> One Flew Over</text><text text-anchor="middle" pointer-events="none" y="5" font-size="10px" fill="#FFFFFF" font-family="sans-serif"> the Cuckoo's</text><text text-anchor="middle" pointer-events="none" y="15" font-size="10px" fill="#FFFFFF" font-family="sans-serif"> Nest</text></g><g class="node" transform="translate(-171.46165593983733,-100.37278408843224)"><circle class="outline" cx="0" cy="0" r="40" fill="#4C8EDA" stroke="#2870c2" stroke-width="2px"/><text text-anchor="middle" pointer-events="none" font-family="sans-serif" dy="2.5" font-size="40" fill="#FFFFFF"/><text text-anchor="middle" pointer-events="none" font-family="sans-serif" dy="2.5" font-size="40" fill="#FFFFFF"/><text text-anchor="middle" pointer-events="none" y="0" font-size="10px" fill="#FFFFFF" font-family="sans-serif"> Something's</text><text text-anchor="middle" pointer-events="none" y="10" font-size="10px" fill="#FFFFFF" font-family="sans-serif"> Gotta Give</text></g></g></svg>