<svg xmlns="http://www.w3.org/2000/svg" width="221.07180786132812" height="2415.502685546875" viewBox="-0.5358983278274536 -2465.502685546875 221.07180786132812 2415.502685546875"><title>Neo4j Graph Visualization</title><desc>Created using Neo4j (http://www.neo4j.com/)</desc><g class="layer links"><g class="link"><path fill="#DFE1E3" d="M 129.434908252495 -2355.7498485061597 C 129.434908252495 -2343.122495373848 129.434908252495 -2343.122495373848 129.434908252495 -2305.7498485061597 L 90.565091747505 -2305.7498485061597 C 90.565091747505 -2318.3772016384714 90.565091747505 -2318.3772016384714 90.565091747505 -2355.7498485061597 Z"/><text font-size="10" font-family="sans-serif" text-anchor="end" y="-2341.7498485061597" x="110">133 </text><text font-size="10" font-family="sans-serif" text-anchor="start" y="-2341.7498485061597" x="110">rows</text></g><g class="link"><path fill="#DFE1E3" d="M 154.86938319047266 -2183.78054004605 C 154.86938319047266 -2174.6960343552396 154.86938319047266 -2174.6960343552396 154.86938319047266 -2133.7805400460506 L 65.13061680952734 -2133.7805400460506 C 65.13061680952734 -2142.865045736861 65.13061680952734 -2142.865045736861 65.13061680952734 -2183.78054004605 Z"/><text font-size="10" font-family="sans-serif" text-anchor="end" y="-2169.78054004605" x="110">115,305 </text><text font-size="10" font-family="sans-serif" text-anchor="start" y="-2169.78054004605" x="110">rows</text></g><g class="link"><path fill="#DFE1E3" d="M 150.21042021734908 -2013.6344635720038 C 150.21042021734908 -2004.5499578811934 150.2104202173491 -2004.5499578811934 150.2104202173491 -1963.6344635720036 L 69.78957978265092 -1963.6344635720036 C 69.78957978265092 -1972.7189692628142 69.78957978265092 -1972.7189692628142 69.78957978265092 -2013.6344635720038 Z"/><text font-size="10" font-family="sans-serif" text-anchor="end" y="-1999.6344635720038" x="110">33,440 </text><text font-size="10" font-family="sans-serif" text-anchor="start" y="-1999.6344635720038" x="110">rows</text></g><g class="link"><path fill="#DFE1E3" d="M 150.21042021734908 -1702.8895992700984 C 150.21042021734908 -1693.805093579288 150.2104202173491 -1693.805093579288 150.2104202173491 -1652.8895992700984 L 69.78957978265092 -1652.8895992700984 C 69.78957978265092 -1661.9741049609088 69.78957978265092 -1661.9741049609088 69.78957978265092 -1702.8895992700984 Z"/><text font-size="10" font-family="sans-serif" text-anchor="end" y="-1688.8895992700984" x="110">33,440 </text><text font-size="10" font-family="sans-serif" text-anchor="start" y="-1688.8895992700984" x="110">rows</text></g><g class="link"><path fill="#DFE1E3" d="M 150.21042021734908 -1316.8895992700984 C 150.21042021734908 -1307.805093579288 150.2104202173491 -1307.805093579288 150.2104202173491 -1266.8895992700984 L 69.78957978265092 -1266.8895992700984 C 69.78957978265092 -1275.9741049609088 69.78957978265092 -1275.9741049609088 69.78957978265092 -1316.8895992700984 Z"/><text font-size="10" font-family="sans-serif" text-anchor="end" y="-1302.8895992700984" x="110">33,440 </text><text font-size="10" font-family="sans-serif" text-anchor="start" y="-1302.8895992700984" x="110">rows</text></g><g class="link"><path fill="#DFE1E3" d="M 150.21042021734908 -1014.8895992700984 C 150.21042021734908 -1005.8050935792879 150.2104202173491 -1005.8050935792879 150.2104202173491 -964.8895992700984 L 69.78957978265092 -964.8895992700984 C 69.78957978265092 -973.9741049609089 69.78957978265092 -973.9741049609089 69.78957978265092 -1014.8895992700984 Z"/><text font-size="10" font-family="sans-serif" text-anchor="end" y="-1000.8895992700984" x="110">33,440 </text><text font-size="10" font-family="sans-serif" text-anchor="start" y="-1000.8895992700984" x="110">rows</text></g><g class="link"><path fill="#DFE1E3" d="M 144.77514437597816 -810.8895992700984 C 144.77514437597816 -801.8050935792879 144.77514437597813 -801.8050935792879 144.77514437597813 -760.8895992700984 L 75.22485562402184 -760.8895992700984 C 75.22485562402184 -769.9741049609089 75.22485562402184 -769.9741049609089 75.22485562402184 -810.8895992700984 Z"/><text font-size="10" font-family="sans-serif" text-anchor="end" y="-796.8895992700984" x="110">7,890 </text><text font-size="10" font-family="sans-serif" text-anchor="start" y="-796.8895992700984" x="110">rows</text></g><g class="link"><path fill="#DFE1E3" d="M 144.77514437597816 -620.8895992700984 C 144.77514437597816 -611.8050935792879 144.77514437597813 -611.8050935792879 144.77514437597813 -570.8895992700984 L 75.22485562402184 -570.8895992700984 C 75.22485562402184 -579.9741049609089 75.22485562402184 -579.9741049609089 75.22485562402184 -620.8895992700984 Z"/><text font-size="10" font-family="sans-serif" text-anchor="end" y="-606.8895992700984" x="110">7,890 </text><text font-size="10" font-family="sans-serif" text-anchor="start" y="-606.8895992700984" x="110">rows</text></g><g class="link"><path fill="#DFE1E3" d="M 144.77514437597816 -349.99999999999994 C 144.77514437597816 -340.9154943091895 144.77514437597813 -340.9154943091895 144.77514437597813 -300 L 75.22485562402184 -300 C 75.22485562402184 -309.0845056908105 75.22485562402184 -309.0845056908105 75.22485562402184 -349.99999999999994 Z"/><text font-size="10" font-family="sans-serif" text-anchor="end" y="-335.99999999999994" x="110">7,890 </text><text font-size="10" font-family="sans-serif" text-anchor="start" y="-335.99999999999994" x="110">rows</text></g><g class="link"><path fill="#DFE1E3" d="M 144.77514437597816 -118 C 144.77514437597816 -108.91549430918954 144.77514437597813 -108.91549430918954 144.77514437597813 -68 L 75.22485562402184 -68 C 75.22485562402184 -77.08450569081046 75.22485562402184 -77.08450569081046 75.22485562402184 -118 Z"/><text font-size="10" font-family="sans-serif" text-anchor="end" y="-104" x="110">7,890 </text><text font-size="10" font-family="sans-serif" text-anchor="start" y="-104" x="110">rows</text></g></g><g class="layer operators"><g class="operator" transform="translate(0,-68)"><rect class="background" fill="#ffffff" ry="4" rx="4" height="18" width="220"/><g class="header" pointer-events="all"><path class="banner" d="M 216 0 A 4 4 0 0 1 220 4 L 220 14 A 4 4 0 0 1 216 18 L 4 18 A 4 4 0 0 1 0 14 L 0 4 A 4 4 0 0 1 4 0 Z" style="fill: rgb(198, 219, 239);"/><text class="title" font-size="11" font-family="sans-serif" x="18" y="13" fill="#000000">Result</text></g><path class="cost" fill="#F25A29" d="M 216 18 A 4 4 0 0 1 216 18 L 4 18 A 4 4 0 0 1 4 18 Z"/><rect class="outline" stroke-width="1" fill="none" ry="4" rx="4" height="18" width="220" style="stroke: rgb(138, 153, 167);"/></g><g class="operator" transform="translate(0,-300)"><rect class="background" fill="#ffffff" ry="4" rx="4" height="182" width="220"/><g class="header" pointer-events="all"><path class="banner" d="M 216 0 A 4 4 0 0 1 220 4 L 220 14 A 4 4 0 0 1 220 18 L 0 18 A 4 4 0 0 1 0 14 L 0 4 A 4 4 0 0 1 4 0 Z" style="fill: rgb(198, 219, 239);"/><path class="expand" fill="#000000" d="M -5 -10 L 8.66 0 L -5 10 Z" transform="translate(9, 9) rotate(90) scale(0.5)"/><text class="title" font-size="11" font-family="sans-serif" x="18" y="13" fill="#000000">ProduceResults@neo4j</text></g><path class="cost" fill="#F25A29" d="M 216 182 A 4 4 0 0 1 216 182 L 4 182 A 4 4 0 0 1 4 182 Z"/><rect class="outline" stroke-width="1" fill="none" ry="4" rx="4" height="182" width="220" style="stroke: rgb(138, 153, 167);"/><g class="detail identifiers" transform="translate(0, 32)" font-family="'Fira Code',Monaco,'Courier New',Terminal,monospace"><text font-size="10" x="3" text-anchor="start" fill="black" font-family="sans-serif">path, `p1.name`, anon_142, anon_134</text></g><g class="detail identifiers" transform="translate(0, 46)" font-family="'Fira Code',Monaco,'Courier New',Terminal,monospace"><text font-size="10" x="3" text-anchor="start" fill="black" font-family="sans-serif">, p2, anon_138, `[rel in </text></g><g class="detail identifiers" transform="translate(0, 60)" font-family="'Fira Code',Monaco,'Courier New',Terminal,monospace"><text font-size="10" x="3" text-anchor="start" fill="black" font-family="sans-serif">relationships(path) | type(rel)]`, </text></g><g class="detail identifiers" transform="translate(0, 74)" font-family="'Fira Code',Monaco,'Courier New',Terminal,monospace"><text font-size="10" x="3" text-anchor="start" fill="black" font-family="sans-serif">`p2.name`, p1</text></g><g class="detail padding" transform="translate(0, 88)" font-family="'Helvetica Neue',Helvetica,Arial,sans-serif"><text font-size="10" x="3" text-anchor="start" fill="black" font-family="sans-serif"/><path class="divider" visibility="visible" d="M 0 -6 L 220 -6" stroke="#DFE1E3"/></g><g class="detail expression" transform="translate(0, 94)" font-family="'Fira Code',Monaco,'Courier New',Terminal,monospace"><text font-size="10" x="3" text-anchor="start" fill="black" font-family="sans-serif">`p1.name`, `p2.name`, `[rel in </text></g><g class="detail expression" transform="translate(0, 108)" font-family="'Fira Code',Monaco,'Courier New',Terminal,monospace"><text font-size="10" x="3" text-anchor="start" fill="black" font-family="sans-serif">relationships(path) | type(rel)]`</text></g><g class="detail padding" transform="translate(0, 122)" font-family="'Helvetica Neue',Helvetica,Arial,sans-serif"><text font-size="10" x="3" text-anchor="start" fill="black" font-family="sans-serif"/><path class="divider" visibility="visible" d="M 0 -6 L 220 -6" stroke="#DFE1E3"/></g><g class="detail order" transform="translate(0, 128)" font-family="'Helvetica Neue',Helvetica,Arial,sans-serif"><text font-size="10" x="3" text-anchor="start" fill="black" font-family="sans-serif">Ordered by p1 ASC, p2 ASC</text></g><g class="detail padding" transform="translate(0, 142)" font-family="'Helvetica Neue',Helvetica,Arial,sans-serif"><text font-size="10" x="3" text-anchor="start" fill="black" font-family="sans-serif"/><path class="divider" visibility="visible" d="M 0 -6 L 220 -6" stroke="#DFE1E3"/></g><g class="detail global-memory" transform="translate(0, 148)" font-family="'Helvetica Neue',Helvetica,Arial,sans-serif"><text font-size="10" x="110" text-anchor="end" fill="black" font-family="sans-serif">17,062,912 </text><text font-size="10" x="110" text-anchor="start" fill="black" font-family="sans-serif">total memory (bytes)</text></g><g class="detail estimated-rows" transform="translate(0, 162)" font-family="'Helvetica Neue',Helvetica,Arial,sans-serif"><text font-size="10" x="110" text-anchor="end" fill="black" font-family="sans-serif">2 </text><text font-size="10" x="110" text-anchor="start" fill="black" font-family="sans-serif">estimated rows</text></g><g class="detail db-hits" transform="translate(0, 176)" font-family="'Helvetica Neue',Helvetica,Arial,sans-serif"><text font-size="10" x="110" text-anchor="end" fill="black" font-family="sans-serif">0 </text><text font-size="10" x="110" text-anchor="start" fill="black" font-family="sans-serif">db hits</text></g></g><g class="operator" transform="translate(0,-570.8895874023438)"><rect class="background" fill="#ffffff" ry="4" rx="4" height="220.88959927009847" width="220"/><g class="header" pointer-events="all"><path class="banner" d="M 216 0 A 4 4 0 0 1 220 4 L 220 14 A 4 4 0 0 1 220 18 L 0 18 A 4 4 0 0 1 0 14 L 0 4 A 4 4 0 0 1 4 0 Z" style="fill: rgb(107, 174, 214);"/><path class="expand" fill="#FFFFFF" d="M -5 -10 L 8.66 0 L -5 10 Z" transform="translate(9, 9) rotate(90) scale(0.5)"/><text class="title" font-size="11" font-family="sans-serif" x="18" y="13" fill="#FFFFFF">Projection@neo4j</text></g><path class="cost" fill="#F25A29" d="M 0 182 L 220 182 L 220 216.88959927009847 A 4 4 0 0 1 216 220.88959927009847 L 4 220.88959927009847 A 4 4 0 0 1 0 216.88959927009847 Z"/><text class="cost" font-size="10" font-family="sans-serif" fill="white" x="110" text-anchor="end" y="196">46,424 </text><text class="cost" font-size="10" font-family="sans-serif" fill="white" x="110" text-anchor="start" y="196">db hits</text><rect class="outline" stroke-width="1" fill="none" ry="4" rx="4" height="220.88959927009847" width="220" style="stroke: rgb(74, 121, 149);"/><g class="detail identifiers" transform="translate(0, 32)" font-family="'Fira Code',Monaco,'Courier New',Terminal,monospace"><text font-size="10" x="3" text-anchor="start" fill="black" font-family="sans-serif">path, `p1.name`, anon_142, anon_134</text></g><g class="detail identifiers" transform="translate(0, 46)" font-family="'Fira Code',Monaco,'Courier New',Terminal,monospace"><text font-size="10" x="3" text-anchor="start" fill="black" font-family="sans-serif">, p2, anon_138, `[rel in </text></g><g class="detail identifiers" transform="translate(0, 60)" font-family="'Fira Code',Monaco,'Courier New',Terminal,monospace"><text font-size="10" x="3" text-anchor="start" fill="black" font-family="sans-serif">relationships(path) | type(rel)]`, </text></g><g class="detail identifiers" transform="translate(0, 74)" font-family="'Fira Code',Monaco,'Courier New',Terminal,monospace"><text font-size="10" x="3" text-anchor="start" fill="black" font-family="sans-serif">`p2.name`, p1</text></g><g class="detail padding" transform="translate(0, 88)" font-family="'Helvetica Neue',Helvetica,Arial,sans-serif"><text font-size="10" x="3" text-anchor="start" fill="black" font-family="sans-serif"/><path class="divider" visibility="visible" d="M 0 -6 L 220 -6" stroke="#DFE1E3"/></g><g class="detail expression" transform="translate(0, 94)" font-family="'Fira Code',Monaco,'Courier New',Terminal,monospace"><text font-size="10" x="3" text-anchor="start" fill="black" font-family="sans-serif">p1.name AS `p1.name`, p2.name AS `</text></g><g class="detail expression" transform="translate(0, 108)" font-family="'Fira Code',Monaco,'Courier New',Terminal,monospace"><text font-size="10" x="3" text-anchor="start" fill="black" font-family="sans-serif">p2.name`, [rel IN relationships(</text></g><g class="detail expression" transform="translate(0, 122)" font-family="'Fira Code',Monaco,'Courier New',Terminal,monospace"><text font-size="10" x="3" text-anchor="start" fill="black" font-family="sans-serif">path) | type(rel)] AS `[rel in </text></g><g class="detail expression" transform="translate(0, 136)" font-family="'Fira Code',Monaco,'Courier New',Terminal,monospace"><text font-size="10" x="3" text-anchor="start" fill="black" font-family="sans-serif">relationships(path) | type(rel)]`</text></g><g class="detail padding" transform="translate(0, 150)" font-family="'Helvetica Neue',Helvetica,Arial,sans-serif"><text font-size="10" x="3" text-anchor="start" fill="black" font-family="sans-serif"/><path class="divider" visibility="visible" d="M 0 -6 L 220 -6" stroke="#DFE1E3"/></g><g class="detail order" transform="translate(0, 156)" font-family="'Helvetica Neue',Helvetica,Arial,sans-serif"><text font-size="10" x="3" text-anchor="start" fill="black" font-family="sans-serif">Ordered by p1 ASC, p2 ASC</text></g><g class="detail padding" transform="translate(0, 170)" font-family="'Helvetica Neue',Helvetica,Arial,sans-serif"><text font-size="10" x="3" text-anchor="start" fill="black" font-family="sans-serif"/><path class="divider" visibility="visible" d="M 0 -6 L 220 -6" stroke="#DFE1E3"/></g><g class="detail estimated-rows" transform="translate(0, 176)" font-family="'Helvetica Neue',Helvetica,Arial,sans-serif"><text font-size="10" x="110" text-anchor="end" fill="black" font-family="sans-serif">2 </text><text font-size="10" x="110" text-anchor="start" fill="black" font-family="sans-serif">estimated rows</text></g></g><g class="operator" transform="translate(0,-760.8895874023438)"><rect class="background" fill="#ffffff" ry="4" rx="4" height="140" width="220"/><g class="header" pointer-events="all"><path class="banner" d="M 216 0 A 4 4 0 0 1 220 4 L 220 14 A 4 4 0 0 1 220 18 L 0 18 A 4 4 0 0 1 0 14 L 0 4 A 4 4 0 0 1 4 0 Z" style="fill: rgb(107, 174, 214);"/><path class="expand" fill="#FFFFFF" d="M -5 -10 L 8.66 0 L -5 10 Z" transform="translate(9, 9) rotate(90) scale(0.5)"/><text class="title" font-size="11" font-family="sans-serif" x="18" y="13" fill="#FFFFFF">Projection@neo4j</text></g><path class="cost" fill="#F25A29" d="M 216 140 A 4 4 0 0 1 216 140 L 4 140 A 4 4 0 0 1 4 140 Z"/><rect class="outline" stroke-width="1" fill="none" ry="4" rx="4" height="140" width="220" style="stroke: rgb(74, 121, 149);"/><g class="detail identifiers" transform="translate(0, 32)" font-family="'Fira Code',Monaco,'Courier New',Terminal,monospace"><text font-size="10" x="3" text-anchor="start" fill="black" font-family="sans-serif">path, anon_142, anon_134, p2, anon_</text></g><g class="detail identifiers" transform="translate(0, 46)" font-family="'Fira Code',Monaco,'Courier New',Terminal,monospace"><text font-size="10" x="3" text-anchor="start" fill="black" font-family="sans-serif">138, p1</text></g><g class="detail padding" transform="translate(0, 60)" font-family="'Helvetica Neue',Helvetica,Arial,sans-serif"><text font-size="10" x="3" text-anchor="start" fill="black" font-family="sans-serif"/><path class="divider" visibility="visible" d="M 0 -6 L 220 -6" stroke="#DFE1E3"/></g><g class="detail expression" transform="translate(0, 66)" font-family="'Fira Code',Monaco,'Courier New',Terminal,monospace"><text font-size="10" x="3" text-anchor="start" fill="black" font-family="sans-serif">anon_134 AS p1, anon_138 AS p2, </text></g><g class="detail expression" transform="translate(0, 80)" font-family="'Fira Code',Monaco,'Courier New',Terminal,monospace"><text font-size="10" x="3" text-anchor="start" fill="black" font-family="sans-serif">anon_142[$autoint_0] AS path</text></g><g class="detail padding" transform="translate(0, 94)" font-family="'Helvetica Neue',Helvetica,Arial,sans-serif"><text font-size="10" x="3" text-anchor="start" fill="black" font-family="sans-serif"/><path class="divider" visibility="visible" d="M 0 -6 L 220 -6" stroke="#DFE1E3"/></g><g class="detail order" transform="translate(0, 100)" font-family="'Helvetica Neue',Helvetica,Arial,sans-serif"><text font-size="10" x="3" text-anchor="start" fill="black" font-family="sans-serif">Ordered by p1 ASC, p2 ASC</text></g><g class="detail padding" transform="translate(0, 114)" font-family="'Helvetica Neue',Helvetica,Arial,sans-serif"><text font-size="10" x="3" text-anchor="start" fill="black" font-family="sans-serif"/><path class="divider" visibility="visible" d="M 0 -6 L 220 -6" stroke="#DFE1E3"/></g><g class="detail estimated-rows" transform="translate(0, 120)" font-family="'Helvetica Neue',Helvetica,Arial,sans-serif"><text font-size="10" x="110" text-anchor="end" fill="black" font-family="sans-serif">2 </text><text font-size="10" x="110" text-anchor="start" fill="black" font-family="sans-serif">estimated rows</text></g><g class="detail db-hits" transform="translate(0, 134)" font-family="'Helvetica Neue',Helvetica,Arial,sans-serif"><text font-size="10" x="110" text-anchor="end" fill="black" font-family="sans-serif">0 </text><text font-size="10" x="110" text-anchor="start" fill="black" font-family="sans-serif">db hits</text></g></g><g class="operator" transform="translate(0,-964.8895874023438)"><rect class="background" fill="#ffffff" ry="4" rx="4" height="154" width="220"/><g class="header" pointer-events="all"><path class="banner" d="M 216 0 A 4 4 0 0 1 220 4 L 220 14 A 4 4 0 0 1 220 18 L 0 18 A 4 4 0 0 1 0 14 L 0 4 A 4 4 0 0 1 4 0 Z" style="fill: rgb(66, 146, 198);"/><path class="expand" fill="#FFFFFF" d="M -5 -10 L 8.66 0 L -5 10 Z" transform="translate(9, 9) rotate(90) scale(0.5)"/><text class="title" font-size="11" font-family="sans-serif" x="18" y="13" fill="#FFFFFF">OrderedAggregation@neo4j</text></g><path class="cost" fill="#F25A29" d="M 216 154 A 4 4 0 0 1 216 154 L 4 154 A 4 4 0 0 1 4 154 Z"/><rect class="outline" stroke-width="1" fill="none" ry="4" rx="4" height="154" width="220" style="stroke: rgb(46, 102, 138);"/><g class="detail identifiers" transform="translate(0, 32)" font-family="'Fira Code',Monaco,'Courier New',Terminal,monospace"><text font-size="10" x="3" text-anchor="start" fill="black" font-family="sans-serif">anon_134, anon_138, anon_142</text></g><g class="detail padding" transform="translate(0, 46)" font-family="'Helvetica Neue',Helvetica,Arial,sans-serif"><text font-size="10" x="3" text-anchor="start" fill="black" font-family="sans-serif"/><path class="divider" visibility="visible" d="M 0 -6 L 220 -6" stroke="#DFE1E3"/></g><g class="detail expression" transform="translate(0, 52)" font-family="'Fira Code',Monaco,'Courier New',Terminal,monospace"><text font-size="10" x="3" text-anchor="start" fill="black" font-family="sans-serif">p1 AS anon_134, p2 AS anon_138, </text></g><g class="detail expression" transform="translate(0, 66)" font-family="'Fira Code',Monaco,'Courier New',Terminal,monospace"><text font-size="10" x="3" text-anchor="start" fill="black" font-family="sans-serif">collect(path) AS anon_142</text></g><g class="detail padding" transform="translate(0, 80)" font-family="'Helvetica Neue',Helvetica,Arial,sans-serif"><text font-size="10" x="3" text-anchor="start" fill="black" font-family="sans-serif"/><path class="divider" visibility="visible" d="M 0 -6 L 220 -6" stroke="#DFE1E3"/></g><g class="detail order" transform="translate(0, 86)" font-family="'Helvetica Neue',Helvetica,Arial,sans-serif"><text font-size="10" x="3" text-anchor="start" fill="black" font-family="sans-serif">Ordered by anon_134 ASC, anon_138 </text></g><g class="detail order" transform="translate(0, 100)" font-family="'Helvetica Neue',Helvetica,Arial,sans-serif"><text font-size="10" x="3" text-anchor="start" fill="black" font-family="sans-serif">ASC</text></g><g class="detail padding" transform="translate(0, 114)" font-family="'Helvetica Neue',Helvetica,Arial,sans-serif"><text font-size="10" x="3" text-anchor="start" fill="black" font-family="sans-serif"/><path class="divider" visibility="visible" d="M 0 -6 L 220 -6" stroke="#DFE1E3"/></g><g class="detail operator-memory" transform="translate(0, 120)" font-family="'Helvetica Neue',Helvetica,Arial,sans-serif"><text font-size="10" x="110" text-anchor="end" fill="black" font-family="sans-serif">376,272 </text><text font-size="10" x="110" text-anchor="start" fill="black" font-family="sans-serif">memory (bytes)</text></g><g class="detail estimated-rows" transform="translate(0, 134)" font-family="'Helvetica Neue',Helvetica,Arial,sans-serif"><text font-size="10" x="110" text-anchor="end" fill="black" font-family="sans-serif">2 </text><text font-size="10" x="110" text-anchor="start" fill="black" font-family="sans-serif">estimated rows</text></g><g class="detail db-hits" transform="translate(0, 148)" font-family="'Helvetica Neue',Helvetica,Arial,sans-serif"><text font-size="10" x="110" text-anchor="end" fill="black" font-family="sans-serif">0 </text><text font-size="10" x="110" text-anchor="start" fill="black" font-family="sans-serif">db hits</text></g></g><g class="operator" transform="translate(0,-1266.8896484375)"><rect class="background" fill="#ffffff" ry="4" rx="4" height="252" width="220"/><g class="header" pointer-events="all"><path class="banner" d="M 216 0 A 4 4 0 0 1 220 4 L 220 14 A 4 4 0 0 1 220 18 L 0 18 A 4 4 0 0 1 0 14 L 0 4 A 4 4 0 0 1 4 0 Z" style="fill: rgb(107, 174, 214);"/><path class="expand" fill="#FFFFFF" d="M -5 -10 L 8.66 0 L -5 10 Z" transform="translate(9, 9) rotate(90) scale(0.5)"/><text class="title" font-size="11" font-family="sans-serif" x="18" y="13" fill="#FFFFFF">Projection@neo4j</text></g><path class="cost" fill="#F25A29" d="M 216 252 A 4 4 0 0 1 216 252 L 4 252 A 4 4 0 0 1 4 252 Z"/><rect class="outline" stroke-width="1" fill="none" ry="4" rx="4" height="252" width="220" style="stroke: rgb(74, 121, 149);"/><g class="detail identifiers" transform="translate(0, 32)" font-family="'Fira Code',Monaco,'Courier New',Terminal,monospace"><text font-size="10" x="3" text-anchor="start" fill="black" font-family="sans-serif">anon_64, path, p2, `length(</text></g><g class="detail identifiers" transform="translate(0, 46)" font-family="'Fira Code',Monaco,'Courier New',Terminal,monospace"><text font-size="10" x="3" text-anchor="start" fill="black" font-family="sans-serif">PathExpression(NodePathStep(</text></g><g class="detail identifiers" transform="translate(0, 60)" font-family="'Fira Code',Monaco,'Courier New',Terminal,monospace"><text font-size="10" x="3" text-anchor="start" fill="black" font-family="sans-serif">Variable(p1),</text></g><g class="detail identifiers" transform="translate(0, 74)" font-family="'Fira Code',Monaco,'Courier New',Terminal,monospace"><text font-size="10" x="3" text-anchor="start" fill="black" font-family="sans-serif">MultiRelationshipPathStep(Variable(</text></g><g class="detail identifiers" transform="translate(0, 88)" font-family="'Fira Code',Monaco,'Courier New',Terminal,monospace"><text font-size="10" x="3" text-anchor="start" fill="black" font-family="sans-serif">anon_64),BOTH,Some(Variable(p2)),</text></g><g class="detail identifiers" transform="translate(0, 102)" font-family="'Fira Code',Monaco,'Courier New',Terminal,monospace"><text font-size="10" x="3" text-anchor="start" fill="black" font-family="sans-serif">NilPathStep))))`, p1</text></g><g class="detail padding" transform="translate(0, 116)" font-family="'Helvetica Neue',Helvetica,Arial,sans-serif"><text font-size="10" x="3" text-anchor="start" fill="black" font-family="sans-serif"/><path class="divider" visibility="visible" d="M 0 -6 L 220 -6" stroke="#DFE1E3"/></g><g class="detail expression" transform="translate(0, 122)" font-family="'Fira Code',Monaco,'Courier New',Terminal,monospace"><text font-size="10" x="3" text-anchor="start" fill="black" font-family="sans-serif">(p1)-[anon_64*]-(p2) AS path</text></g><g class="detail padding" transform="translate(0, 136)" font-family="'Helvetica Neue',Helvetica,Arial,sans-serif"><text font-size="10" x="3" text-anchor="start" fill="black" font-family="sans-serif"/><path class="divider" visibility="visible" d="M 0 -6 L 220 -6" stroke="#DFE1E3"/></g><g class="detail order" transform="translate(0, 142)" font-family="'Helvetica Neue',Helvetica,Arial,sans-serif"><text font-size="10" x="3" text-anchor="start" fill="black" font-family="sans-serif">Ordered by p1 ASC, p2 ASC, length(</text></g><g class="detail order" transform="translate(0, 156)" font-family="'Helvetica Neue',Helvetica,Arial,sans-serif"><text font-size="10" x="3" text-anchor="start" fill="black" font-family="sans-serif">PathExpression(NodePathStep(</text></g><g class="detail order" transform="translate(0, 170)" font-family="'Helvetica Neue',Helvetica,Arial,sans-serif"><text font-size="10" x="3" text-anchor="start" fill="black" font-family="sans-serif">Variable(p1),</text></g><g class="detail order" transform="translate(0, 184)" font-family="'Helvetica Neue',Helvetica,Arial,sans-serif"><text font-size="10" x="3" text-anchor="start" fill="black" font-family="sans-serif">MultiRelationshipPathStep(Variable(</text></g><g class="detail order" transform="translate(0, 198)" font-family="'Helvetica Neue',Helvetica,Arial,sans-serif"><text font-size="10" x="3" text-anchor="start" fill="black" font-family="sans-serif">anon_64),BOTH,Some(Variable(p2)),</text></g><g class="detail order" transform="translate(0, 212)" font-family="'Helvetica Neue',Helvetica,Arial,sans-serif"><text font-size="10" x="3" text-anchor="start" fill="black" font-family="sans-serif">NilPathStep)))) DESC</text></g><g class="detail padding" transform="translate(0, 226)" font-family="'Helvetica Neue',Helvetica,Arial,sans-serif"><text font-size="10" x="3" text-anchor="start" fill="black" font-family="sans-serif"/><path class="divider" visibility="visible" d="M 0 -6 L 220 -6" stroke="#DFE1E3"/></g><g class="detail estimated-rows" transform="translate(0, 232)" font-family="'Helvetica Neue',Helvetica,Arial,sans-serif"><text font-size="10" x="110" text-anchor="end" fill="black" font-family="sans-serif">5 </text><text font-size="10" x="110" text-anchor="start" fill="black" font-family="sans-serif">estimated rows</text></g><g class="detail db-hits" transform="translate(0, 246)" font-family="'Helvetica Neue',Helvetica,Arial,sans-serif"><text font-size="10" x="110" text-anchor="end" fill="black" font-family="sans-serif">0 </text><text font-size="10" x="110" text-anchor="start" fill="black" font-family="sans-serif">db hits</text></g></g><g class="operator" transform="translate(0,-1652.8896484375)"><rect class="background" fill="#ffffff" ry="4" rx="4" height="336" width="220"/><g class="header" pointer-events="all"><path class="banner" d="M 216 0 A 4 4 0 0 1 220 4 L 220 14 A 4 4 0 0 1 220 18 L 0 18 A 4 4 0 0 1 0 14 L 0 4 A 4 4 0 0 1 4 0 Z" style="fill: rgb(107, 174, 214);"/><path class="expand" fill="#FFFFFF" d="M -5 -10 L 8.66 0 L -5 10 Z" transform="translate(9, 9) rotate(90) scale(0.5)"/><text class="title" font-size="11" font-family="sans-serif" x="18" y="13" fill="#FFFFFF">Sort@neo4j</text></g><path class="cost" fill="#F25A29" d="M 216 336 A 4 4 0 0 1 216 336 L 4 336 A 4 4 0 0 1 4 336 Z"/><rect class="outline" stroke-width="1" fill="none" ry="4" rx="4" height="336" width="220" style="stroke: rgb(74, 121, 149);"/><g class="detail identifiers" transform="translate(0, 32)" font-family="'Fira Code',Monaco,'Courier New',Terminal,monospace"><text font-size="10" x="3" text-anchor="start" fill="black" font-family="sans-serif">p2, anon_64, p1, `length(</text></g><g class="detail identifiers" transform="translate(0, 46)" font-family="'Fira Code',Monaco,'Courier New',Terminal,monospace"><text font-size="10" x="3" text-anchor="start" fill="black" font-family="sans-serif">PathExpression(NodePathStep(</text></g><g class="detail identifiers" transform="translate(0, 60)" font-family="'Fira Code',Monaco,'Courier New',Terminal,monospace"><text font-size="10" x="3" text-anchor="start" fill="black" font-family="sans-serif">Variable(p1),</text></g><g class="detail identifiers" transform="translate(0, 74)" font-family="'Fira Code',Monaco,'Courier New',Terminal,monospace"><text font-size="10" x="3" text-anchor="start" fill="black" font-family="sans-serif">MultiRelationshipPathStep(Variable(</text></g><g class="detail identifiers" transform="translate(0, 88)" font-family="'Fira Code',Monaco,'Courier New',Terminal,monospace"><text font-size="10" x="3" text-anchor="start" fill="black" font-family="sans-serif">anon_64),BOTH,Some(Variable(p2)),</text></g><g class="detail identifiers" transform="translate(0, 102)" font-family="'Fira Code',Monaco,'Courier New',Terminal,monospace"><text font-size="10" x="3" text-anchor="start" fill="black" font-family="sans-serif">NilPathStep))))`</text></g><g class="detail padding" transform="translate(0, 116)" font-family="'Helvetica Neue',Helvetica,Arial,sans-serif"><text font-size="10" x="3" text-anchor="start" fill="black" font-family="sans-serif"/><path class="divider" visibility="visible" d="M 0 -6 L 220 -6" stroke="#DFE1E3"/></g><g class="detail expression" transform="translate(0, 122)" font-family="'Fira Code',Monaco,'Courier New',Terminal,monospace"><text font-size="10" x="3" text-anchor="start" fill="black" font-family="sans-serif">p1 ASC, p2 ASC, `length(</text></g><g class="detail expression" transform="translate(0, 136)" font-family="'Fira Code',Monaco,'Courier New',Terminal,monospace"><text font-size="10" x="3" text-anchor="start" fill="black" font-family="sans-serif">PathExpression(NodePathStep(</text></g><g class="detail expression" transform="translate(0, 150)" font-family="'Fira Code',Monaco,'Courier New',Terminal,monospace"><text font-size="10" x="3" text-anchor="start" fill="black" font-family="sans-serif">Variable(p1),</text></g><g class="detail expression" transform="translate(0, 164)" font-family="'Fira Code',Monaco,'Courier New',Terminal,monospace"><text font-size="10" x="3" text-anchor="start" fill="black" font-family="sans-serif">MultiRelationshipPathStep(Variable(</text></g><g class="detail expression" transform="translate(0, 178)" font-family="'Fira Code',Monaco,'Courier New',Terminal,monospace"><text font-size="10" x="3" text-anchor="start" fill="black" font-family="sans-serif">anon_64),BOTH,Some(Variable(p2)),</text></g><g class="detail expression" transform="translate(0, 192)" font-family="'Fira Code',Monaco,'Courier New',Terminal,monospace"><text font-size="10" x="3" text-anchor="start" fill="black" font-family="sans-serif">NilPathStep))))` DESC</text></g><g class="detail padding" transform="translate(0, 206)" font-family="'Helvetica Neue',Helvetica,Arial,sans-serif"><text font-size="10" x="3" text-anchor="start" fill="black" font-family="sans-serif"/><path class="divider" visibility="visible" d="M 0 -6 L 220 -6" stroke="#DFE1E3"/></g><g class="detail order" transform="translate(0, 212)" font-family="'Helvetica Neue',Helvetica,Arial,sans-serif"><text font-size="10" x="3" text-anchor="start" fill="black" font-family="sans-serif">Ordered by p1 ASC, p2 ASC, length(</text></g><g class="detail order" transform="translate(0, 226)" font-family="'Helvetica Neue',Helvetica,Arial,sans-serif"><text font-size="10" x="3" text-anchor="start" fill="black" font-family="sans-serif">PathExpression(NodePathStep(</text></g><g class="detail order" transform="translate(0, 240)" font-family="'Helvetica Neue',Helvetica,Arial,sans-serif"><text font-size="10" x="3" text-anchor="start" fill="black" font-family="sans-serif">Variable(p1),</text></g><g class="detail order" transform="translate(0, 254)" font-family="'Helvetica Neue',Helvetica,Arial,sans-serif"><text font-size="10" x="3" text-anchor="start" fill="black" font-family="sans-serif">MultiRelationshipPathStep(Variable(</text></g><g class="detail order" transform="translate(0, 268)" font-family="'Helvetica Neue',Helvetica,Arial,sans-serif"><text font-size="10" x="3" text-anchor="start" fill="black" font-family="sans-serif">anon_64),BOTH,Some(Variable(p2)),</text></g><g class="detail order" transform="translate(0, 282)" font-family="'Helvetica Neue',Helvetica,Arial,sans-serif"><text font-size="10" x="3" text-anchor="start" fill="black" font-family="sans-serif">NilPathStep)))) DESC</text></g><g class="detail padding" transform="translate(0, 296)" font-family="'Helvetica Neue',Helvetica,Arial,sans-serif"><text font-size="10" x="3" text-anchor="start" fill="black" font-family="sans-serif"/><path class="divider" visibility="visible" d="M 0 -6 L 220 -6" stroke="#DFE1E3"/></g><g class="detail operator-memory" transform="translate(0, 302)" font-family="'Helvetica Neue',Helvetica,Arial,sans-serif"><text font-size="10" x="110" text-anchor="end" fill="black" font-family="sans-serif">16,687,456 </text><text font-size="10" x="110" text-anchor="start" fill="black" font-family="sans-serif">memory (bytes)</text></g><g class="detail estimated-rows" transform="translate(0, 316)" font-family="'Helvetica Neue',Helvetica,Arial,sans-serif"><text font-size="10" x="110" text-anchor="end" fill="black" font-family="sans-serif">5 </text><text font-size="10" x="110" text-anchor="start" fill="black" font-family="sans-serif">estimated rows</text></g><g class="detail db-hits" transform="translate(0, 330)" font-family="'Helvetica Neue',Helvetica,Arial,sans-serif"><text font-size="10" x="110" text-anchor="end" fill="black" font-family="sans-serif">0 </text><text font-size="10" x="110" text-anchor="start" fill="black" font-family="sans-serif">db hits</text></g></g><g class="operator" transform="translate(0,-1963.634521484375)"><rect class="background" fill="#ffffff" ry="4" rx="4" height="260.7448643019051" width="220"/><g class="header" pointer-events="all"><path class="banner" d="M 216 0 A 4 4 0 0 1 220 4 L 220 14 A 4 4 0 0 1 220 18 L 0 18 A 4 4 0 0 1 0 14 L 0 4 A 4 4 0 0 1 4 0 Z" style="fill: rgb(107, 174, 214);"/><path class="expand" fill="#FFFFFF" d="M -5 -10 L 8.66 0 L -5 10 Z" transform="translate(9, 9) rotate(90) scale(0.5)"/><text class="title" font-size="11" font-family="sans-serif" x="18" y="13" fill="#FFFFFF">Projection@neo4j</text></g><path class="cost" fill="#F25A29" d="M 0 217.99999999999997 L 220 217.99999999999997 L 220 256.7448643019051 A 4 4 0 0 1 216 260.7448643019051 L 4 260.7448643019051 A 4 4 0 0 1 0 256.7448643019051 Z"/><text class="cost" font-size="10" font-family="sans-serif" fill="white" x="110" text-anchor="end" y="231.99999999999997">134,704 </text><text class="cost" font-size="10" font-family="sans-serif" fill="white" x="110" text-anchor="start" y="231.99999999999997">db hits</text><rect class="outline" stroke-width="1" fill="none" ry="4" rx="4" height="260.7448643019051" width="220" style="stroke: rgb(74, 121, 149);"/><g class="detail identifiers" transform="translate(0, 32)" font-family="'Fira Code',Monaco,'Courier New',Terminal,monospace"><text font-size="10" x="3" text-anchor="start" fill="black" font-family="sans-serif">p2, anon_64, p1, `length(</text></g><g class="detail identifiers" transform="translate(0, 46)" font-family="'Fira Code',Monaco,'Courier New',Terminal,monospace"><text font-size="10" x="3" text-anchor="start" fill="black" font-family="sans-serif">PathExpression(NodePathStep(</text></g><g class="detail identifiers" transform="translate(0, 60)" font-family="'Fira Code',Monaco,'Courier New',Terminal,monospace"><text font-size="10" x="3" text-anchor="start" fill="black" font-family="sans-serif">Variable(p1),</text></g><g class="detail identifiers" transform="translate(0, 74)" font-family="'Fira Code',Monaco,'Courier New',Terminal,monospace"><text font-size="10" x="3" text-anchor="start" fill="black" font-family="sans-serif">MultiRelationshipPathStep(Variable(</text></g><g class="detail identifiers" transform="translate(0, 88)" font-family="'Fira Code',Monaco,'Courier New',Terminal,monospace"><text font-size="10" x="3" text-anchor="start" fill="black" font-family="sans-serif">anon_64),BOTH,Some(Variable(p2)),</text></g><g class="detail identifiers" transform="translate(0, 102)" font-family="'Fira Code',Monaco,'Courier New',Terminal,monospace"><text font-size="10" x="3" text-anchor="start" fill="black" font-family="sans-serif">NilPathStep))))`</text></g><g class="detail padding" transform="translate(0, 116)" font-family="'Helvetica Neue',Helvetica,Arial,sans-serif"><text font-size="10" x="3" text-anchor="start" fill="black" font-family="sans-serif"/><path class="divider" visibility="visible" d="M 0 -6 L 220 -6" stroke="#DFE1E3"/></g><g class="detail expression" transform="translate(0, 122)" font-family="'Fira Code',Monaco,'Courier New',Terminal,monospace"><text font-size="10" x="3" text-anchor="start" fill="black" font-family="sans-serif">length((p1)-[anon_64*]-(p2)) AS `</text></g><g class="detail expression" transform="translate(0, 136)" font-family="'Fira Code',Monaco,'Courier New',Terminal,monospace"><text font-size="10" x="3" text-anchor="start" fill="black" font-family="sans-serif">length(PathExpression(NodePathStep(</text></g><g class="detail expression" transform="translate(0, 150)" font-family="'Fira Code',Monaco,'Courier New',Terminal,monospace"><text font-size="10" x="3" text-anchor="start" fill="black" font-family="sans-serif">Variable(p1),</text></g><g class="detail expression" transform="translate(0, 164)" font-family="'Fira Code',Monaco,'Courier New',Terminal,monospace"><text font-size="10" x="3" text-anchor="start" fill="black" font-family="sans-serif">MultiRelationshipPathStep(Variable(</text></g><g class="detail expression" transform="translate(0, 178)" font-family="'Fira Code',Monaco,'Courier New',Terminal,monospace"><text font-size="10" x="3" text-anchor="start" fill="black" font-family="sans-serif">anon_64),BOTH,Some(Variable(p2)),</text></g><g class="detail expression" transform="translate(0, 192)" font-family="'Fira Code',Monaco,'Courier New',Terminal,monospace"><text font-size="10" x="3" text-anchor="start" fill="black" font-family="sans-serif">NilPathStep))))`</text></g><g class="detail padding" transform="translate(0, 206)" font-family="'Helvetica Neue',Helvetica,Arial,sans-serif"><text font-size="10" x="3" text-anchor="start" fill="black" font-family="sans-serif"/><path class="divider" visibility="visible" d="M 0 -6 L 220 -6" stroke="#DFE1E3"/></g><g class="detail estimated-rows" transform="translate(0, 212)" font-family="'Helvetica Neue',Helvetica,Arial,sans-serif"><text font-size="10" x="110" text-anchor="end" fill="black" font-family="sans-serif">5 </text><text font-size="10" x="110" text-anchor="start" fill="black" font-family="sans-serif">estimated rows</text></g></g><g class="operator" transform="translate(0,-2133.780517578125)"><rect class="background" fill="#ffffff" ry="4" rx="4" height="120.14607647404685" width="220"/><g class="header" pointer-events="all"><path class="banner" d="M 216 0 A 4 4 0 0 1 220 4 L 220 14 A 4 4 0 0 1 220 18 L 0 18 A 4 4 0 0 1 0 14 L 0 4 A 4 4 0 0 1 4 0 Z" style="fill: rgb(33, 113, 181);"/><path class="expand" fill="#FFFFFF" d="M -5 -10 L 8.66 0 L -5 10 Z" transform="translate(9, 9) rotate(90) scale(0.5)"/><text class="title" font-size="11" font-family="sans-serif" x="18" y="13" fill="#FFFFFF">Filter@neo4j</text></g><path class="cost" fill="#F25A29" d="M 0 78 L 220 78 L 220 116.14607647404685 A 4 4 0 0 1 216 120.14607647404685 L 4 120.14607647404685 A 4 4 0 0 1 0 116.14607647404685 Z"/><text class="cost" font-size="10" font-family="sans-serif" fill="white" x="110" text-anchor="end" y="92">114,163 </text><text class="cost" font-size="10" font-family="sans-serif" fill="white" x="110" text-anchor="start" y="92">db hits</text><rect class="outline" stroke-width="1" fill="none" ry="4" rx="4" height="120.14607647404685" width="220" style="stroke: rgb(23, 79, 126);"/><g class="detail identifiers" transform="translate(0, 32)" font-family="'Fira Code',Monaco,'Courier New',Terminal,monospace"><text font-size="10" x="3" text-anchor="start" fill="black" font-family="sans-serif">p2, anon_64, p1</text></g><g class="detail padding" transform="translate(0, 46)" font-family="'Helvetica Neue',Helvetica,Arial,sans-serif"><text font-size="10" x="3" text-anchor="start" fill="black" font-family="sans-serif"/><path class="divider" visibility="visible" d="M 0 -6 L 220 -6" stroke="#DFE1E3"/></g><g class="detail expression" transform="translate(0, 52)" font-family="'Fira Code',Monaco,'Courier New',Terminal,monospace"><text font-size="10" x="3" text-anchor="start" fill="black" font-family="sans-serif">not p1 = p2 AND p1:Person</text></g><g class="detail padding" transform="translate(0, 66)" font-family="'Helvetica Neue',Helvetica,Arial,sans-serif"><text font-size="10" x="3" text-anchor="start" fill="black" font-family="sans-serif"/><path class="divider" visibility="visible" d="M 0 -6 L 220 -6" stroke="#DFE1E3"/></g><g class="detail estimated-rows" transform="translate(0, 72)" font-family="'Helvetica Neue',Helvetica,Arial,sans-serif"><text font-size="10" x="110" text-anchor="end" fill="black" font-family="sans-serif">5 </text><text font-size="10" x="110" text-anchor="start" fill="black" font-family="sans-serif">estimated rows</text></g></g><g class="operator" transform="translate(0,-2305.749755859375)"><rect class="background" fill="#ffffff" ry="4" rx="4" height="121.96930846010925" width="220"/><g class="header" pointer-events="all"><path class="banner" d="M 216 0 A 4 4 0 0 1 220 4 L 220 14 A 4 4 0 0 1 220 18 L 0 18 A 4 4 0 0 1 0 14 L 0 4 A 4 4 0 0 1 4 0 Z" style="fill: rgb(8, 81, 156);"/><path class="expand" fill="#FFFFFF" d="M -5 -10 L 8.66 0 L -5 10 Z" transform="translate(9, 9) rotate(90) scale(0.5)"/><text class="title" font-size="11" font-family="sans-serif" x="18" y="13" fill="#FFFFFF">VarLengthExpand(All)@neo4j</text></g><path class="cost" fill="#F25A29" d="M 0 78 L 220 78 L 220 117.96930846010925 A 4 4 0 0 1 216 121.96930846010925 L 4 121.96930846010925 A 4 4 0 0 1 0 117.96930846010925 Z"/><text class="cost" font-size="10" font-family="sans-serif" fill="white" x="110" text-anchor="end" y="92">188,936 </text><text class="cost" font-size="10" font-family="sans-serif" fill="white" x="110" text-anchor="start" y="92">db hits</text><rect class="outline" stroke-width="1" fill="none" ry="4" rx="4" height="121.96930846010925" width="220" style="stroke: rgb(5, 56, 109);"/><g class="detail identifiers" transform="translate(0, 32)" font-family="'Fira Code',Monaco,'Courier New',Terminal,monospace"><text font-size="10" x="3" text-anchor="start" fill="black" font-family="sans-serif">p2, anon_64, p1</text></g><g class="detail padding" transform="translate(0, 46)" font-family="'Helvetica Neue',Helvetica,Arial,sans-serif"><text font-size="10" x="3" text-anchor="start" fill="black" font-family="sans-serif"/><path class="divider" visibility="visible" d="M 0 -6 L 220 -6" stroke="#DFE1E3"/></g><g class="detail expression" transform="translate(0, 52)" font-family="'Fira Code',Monaco,'Courier New',Terminal,monospace"><text font-size="10" x="3" text-anchor="start" fill="black" font-family="sans-serif">(p2)-[anon_64*..5]-(p1)</text></g><g class="detail padding" transform="translate(0, 66)" font-family="'Helvetica Neue',Helvetica,Arial,sans-serif"><text font-size="10" x="3" text-anchor="start" fill="black" font-family="sans-serif"/><path class="divider" visibility="visible" d="M 0 -6 L 220 -6" stroke="#DFE1E3"/></g><g class="detail estimated-rows" transform="translate(0, 72)" font-family="'Helvetica Neue',Helvetica,Arial,sans-serif"><text font-size="10" x="110" text-anchor="end" fill="black" font-family="sans-serif">256 </text><text font-size="10" x="110" text-anchor="start" fill="black" font-family="sans-serif">estimated rows</text></g></g><g class="operator" transform="translate(0,-2465.502685546875)"><rect class="background" fill="#ffffff" ry="4" rx="4" height="109.75278140412505" width="220"/><g class="header" pointer-events="all"><path class="banner" d="M 216 0 A 4 4 0 0 1 220 4 L 220 14 A 4 4 0 0 1 220 18 L 0 18 A 4 4 0 0 1 0 14 L 0 4 A 4 4 0 0 1 4 0 Z" style="fill: rgb(158, 202, 225);"/><path class="expand" fill="#000000" d="M -5 -10 L 8.66 0 L -5 10 Z" transform="translate(9, 9) rotate(90) scale(0.5)"/><text class="title" font-size="11" font-family="sans-serif" x="18" y="13" fill="#000000">NodeByLabelScan@neo4j</text></g><path class="cost" fill="#F25A29" d="M 0 92 L 220 92 L 220 105.75278140412505 A 4 4 0 0 1 216 109.75278140412505 L 4 109.75278140412505 A 4 4 0 0 1 0 105.75278140412505 Z"/><text class="cost" font-size="10" font-family="sans-serif" fill="white" x="110" text-anchor="end" y="106">134 </text><text class="cost" font-size="10" font-family="sans-serif" fill="white" x="110" text-anchor="start" y="106">db hits</text><rect class="outline" stroke-width="1" fill="none" ry="4" rx="4" height="109.75278140412505" width="220" style="stroke: rgb(110, 141, 157);"/><g class="detail identifiers" transform="translate(0, 32)" font-family="'Fira Code',Monaco,'Courier New',Terminal,monospace"><text font-size="10" x="3" text-anchor="start" fill="black" font-family="sans-serif">p2</text></g><g class="detail padding" transform="translate(0, 46)" font-family="'Helvetica Neue',Helvetica,Arial,sans-serif"><text font-size="10" x="3" text-anchor="start" fill="black" font-family="sans-serif"/><path class="divider" visibility="visible" d="M 0 -6 L 220 -6" stroke="#DFE1E3"/></g><g class="detail expression" transform="translate(0, 52)" font-family="'Fira Code',Monaco,'Courier New',Terminal,monospace"><text font-size="10" x="3" text-anchor="start" fill="black" font-family="sans-serif">p2:Person</text></g><g class="detail padding" transform="translate(0, 66)" font-family="'Helvetica Neue',Helvetica,Arial,sans-serif"><text font-size="10" x="3" text-anchor="start" fill="black" font-family="sans-serif"/><path class="divider" visibility="visible" d="M 0 -6 L 220 -6" stroke="#DFE1E3"/></g><g class="detail operator-memory" transform="translate(0, 72)" font-family="'Helvetica Neue',Helvetica,Arial,sans-serif"><text font-size="10" x="110" text-anchor="end" fill="black" font-family="sans-serif">64 </text><text font-size="10" x="110" text-anchor="start" fill="black" font-family="sans-serif">memory (bytes)</text></g><g class="detail estimated-rows" transform="translate(0, 86)" font-family="'Helvetica Neue',Helvetica,Arial,sans-serif"><text font-size="10" x="110" text-anchor="end" fill="black" font-family="sans-serif">133 </text><text font-size="10" x="110" text-anchor="start" fill="black" font-family="sans-serif">estimated rows</text></g></g></g></svg>