<svg xmlns="http://www.w3.org/2000/svg" class="graphdiagram" viewBox="-400 -1200 2677.513979724613 1346.7042790627845"><g class="layer relationships"><g class="related-pair"><g class="relationship" transform="translate(459.4394226074219,-571.7655334472656) rotate(0)"><path class="relationship" d="M 100.04711018780577 4 L 455.94106350101487 4 L 455.94106350101487 16 L 487.94106350101487 0 L 455.94106350101487 -16 L 455.94106350101487 -4 L 100.04711018780577 -4 Z" fill="rgb(0, 0, 0)" stroke="rgb(51, 51, 51)" stroke-width="0px"/><text class="type" text-anchor="middle" baseline-shift="30%" alignment-baseline="alphabetic" x="277.9940868444103" y="0" font-size="50px" font-family="&quot;Gill Sans&quot;, &quot;Gill Sans MT&quot;, Calibri, sans-serif">DESTINATION</text></g></g><g class="related-pair"><g class="relationship" transform="translate(459.4394226074219,-571.7655334472656) rotate(180)"><path class="relationship" d="M 100.04711018780577 4 L 310.5584732071306 4 L 310.5584732071306 16 L 342.5584732071306 0 L 310.5584732071306 -16 L 310.5584732071306 -4 L 100.04711018780577 -4 Z" fill="rgb(0, 0, 0)" stroke="rgb(51, 51, 51)" stroke-width="0px"/><text class="type" text-anchor="middle" baseline-shift="30%" alignment-baseline="alphabetic" transform="rotate(180)" x="-205.3027916974682" y="0" font-size="50px" font-family="&quot;Gill Sans&quot;, &quot;Gill Sans MT&quot;, Calibri, sans-serif">ORIGIN</text></g></g><g class="related-pair"><g class="relationship" transform="translate(459.4394226074219,-571.7655334472656) rotate(-90)"><path class="relationship" d="M 100.04711018780577 4 L 305.4388394258025 4 L 305.4388394258025 16 L 337.4388394258025 0 L 305.4388394258025 -16 L 305.4388394258025 -4 L 100.04711018780577 -4 Z" fill="rgb(0, 0, 0)" stroke="rgb(51, 51, 51)" stroke-width="0px"/><text class="type" text-anchor="middle" baseline-shift="30%" alignment-baseline="alphabetic" x="202.7429748068041" y="0" font-size="50px" font-family="&quot;Gill Sans&quot;, &quot;Gill Sans MT&quot;, Calibri, sans-serif">AIRLINE</text></g></g></g><g class="layer nodes"><circle class="node node-id-0" r="96.76111545406326" fill="rgb(255, 255, 255)" stroke="rgb(0, 0, 0)" stroke-width="8px" cx="5.119833946228027" cy="-571.7655334472656"/><circle class="node node-id-1" r="96.76111545406326" fill="rgb(255, 255, 255)" stroke="rgb(0, 0, 0)" stroke-width="8px" cx="1059.1416015625" cy="-571.7655334472656"/><g class="caption"><text class="caption node" text-anchor="middle" alignment-baseline="central" x="5.119833946228027" y="-571.7655334472656" fill="rgb(51, 51, 51)" font-size="50px" font-family="&quot;Gill Sans&quot;, &quot;Gill Sans MT&quot;, Calibri, sans-serif">Airport</text></g><g class="caption"><text class="caption node" text-anchor="middle" alignment-baseline="central" x="1059.1416015625" y="-571.7655334472656" fill="rgb(51, 51, 51)" font-size="50px" font-family="&quot;Gill Sans&quot;, &quot;Gill Sans MT&quot;, Calibri, sans-serif">Airport</text></g><circle class="node node-id-2" r="85.04711018780577" fill="rgb(255, 255, 255)" stroke="rgb(0, 0, 0)" stroke-width="8px" cx="459.4394226074219" cy="-571.7655334472656"/><g class="caption"><text class="caption node" text-anchor="middle" alignment-baseline="central" x="459.4394226074219" y="-571.7655334472656" fill="rgb(51, 51, 51)" font-size="50px" font-family="&quot;Gill Sans&quot;, &quot;Gill Sans MT&quot;, Calibri, sans-serif">Flight</text></g><circle class="node node-id-3" r="92.83163786911938" fill="rgb(255, 255, 255)" stroke="rgb(0, 0, 0)" stroke-width="8px" cx="459.4394226074219" cy="-1017.0360107421875"/><g class="caption"><text class="caption node" text-anchor="middle" alignment-baseline="central" x="459.4394226074219" y="-1017.0360107421875" fill="rgb(51, 51, 51)" font-size="50px" font-family="&quot;Gill Sans&quot;, &quot;Gill Sans MT&quot;, Calibri, sans-serif">Airline</text></g></g><g class="layer properties"><g class="speech-bubble node-speech-bubble" transform="translate(-91.64128150783523,-571.7655334472656) "><path class="speech-bubble-outline" transform="scale(-1,1) " d="M 0 0 L 20 -10 L 20 -25 A 10 10 0 0 1 30 -35 L 288.4716796875 -35 A 10 10 0 0 1 298.4716796875 -25 L 298.4716796875 25 A 10 10 0 0 1 288.4716796875 35 L 30 35 A 10 10 0 0 1 20 25 L 20 10 Z" fill="rgb(255, 255, 255)" stroke="rgb(0, 0, 0)" stroke-width="3px"/><text class="speech-bubble-content property-key" x="-152.265625" y="0" alignment-baseline="central" text-anchor="end" font-size="50px" font-family="&quot;Gill Sans&quot;, &quot;Gill Sans MT&quot;, Calibri, sans-serif" xml:space="preserve">code: </text><text class="speech-bubble-content property-value" x="-152.265625" y="0" alignment-baseline="central" font-size="50px" font-family="&quot;Gill Sans&quot;, &quot;Gill Sans MT&quot;, Calibri, sans-serif">string</text></g><g class="speech-bubble node-speech-bubble" transform="translate(1155.9027170165632,-571.7655334472656) "><path class="speech-bubble-outline" transform="scale(1,1) " d="M 0 0 L 20 -10 L 20 -25 A 10 10 0 0 1 30 -35 L 288.4716796875 -35 A 10 10 0 0 1 298.4716796875 -25 L 298.4716796875 25 A 10 10 0 0 1 288.4716796875 35 L 30 35 A 10 10 0 0 1 20 25 L 20 10 Z" fill="rgb(255, 255, 255)" stroke="rgb(0, 0, 0)" stroke-width="3px"/><text class="speech-bubble-content property-key" x="166.2060546875" y="0" alignment-baseline="central" text-anchor="end" font-size="50px" font-family="&quot;Gill Sans&quot;, &quot;Gill Sans MT&quot;, Calibri, sans-serif" xml:space="preserve">code: </text><text class="speech-bubble-content property-value" x="166.2060546875" y="0" alignment-baseline="central" font-size="50px" font-family="&quot;Gill Sans&quot;, &quot;Gill Sans MT&quot;, Calibri, sans-serif">string</text></g><g class="speech-bubble node-speech-bubble" transform="translate(459.4394226074219,-486.7184232594599) "><path class="speech-bubble-outline" transform="scale(1,1) " d="M 0 0 L -10 20 L -270.00732421875 20 A 10 10 0 0 0 -280.00732421875 30 L -280.00732421875 330 A 10 10 0 0 0 -270.00732421875 340 L 270.00732421875 340 A 10 10 0 0 0 280.00732421875 330 L 280.00732421875 30 A 10 10 0 0 0 270.00732421875 20 L 10 20 Z" fill="rgb(255, 255, 255)" stroke="rgb(0, 0, 0)" stroke-width="3px"/><text class="speech-bubble-content property-key" x="41.22314453125" y="55" alignment-baseline="central" text-anchor="end" font-size="50px" font-family="&quot;Gill Sans&quot;, &quot;Gill Sans MT&quot;, Calibri, sans-serif" xml:space="preserve">flightNumber: </text><text class="speech-bubble-content property-key" x="41.22314453125" y="105" alignment-baseline="central" text-anchor="end" font-size="50px" font-family="&quot;Gill Sans&quot;, &quot;Gill Sans MT&quot;, Calibri, sans-serif" xml:space="preserve">departure: </text><text class="speech-bubble-content property-key" x="41.22314453125" y="155" alignment-baseline="central" text-anchor="end" font-size="50px" font-family="&quot;Gill Sans&quot;, &quot;Gill Sans MT&quot;, Calibri, sans-serif" xml:space="preserve">arrival: </text><text class="speech-bubble-content property-key" x="41.22314453125" y="205" alignment-baseline="central" text-anchor="end" font-size="50px" font-family="&quot;Gill Sans&quot;, &quot;Gill Sans MT&quot;, Calibri, sans-serif" xml:space="preserve">date: </text><text class="speech-bubble-content property-key" x="41.22314453125" y="255" alignment-baseline="central" text-anchor="end" font-size="50px" font-family="&quot;Gill Sans&quot;, &quot;Gill Sans MT&quot;, Calibri, sans-serif" xml:space="preserve">cancelled: </text><text class="speech-bubble-content property-key" x="41.22314453125" y="305" alignment-baseline="central" text-anchor="end" font-size="50px" font-family="&quot;Gill Sans&quot;, &quot;Gill Sans MT&quot;, Calibri, sans-serif" xml:space="preserve">diverted: </text><text class="speech-bubble-content property-value" x="41.22314453125" y="55" alignment-baseline="central" font-size="50px" font-family="&quot;Gill Sans&quot;, &quot;Gill Sans MT&quot;, Calibri, sans-serif">string</text><text class="speech-bubble-content property-value" x="41.22314453125" y="105" alignment-baseline="central" font-size="50px" font-family="&quot;Gill Sans&quot;, &quot;Gill Sans MT&quot;, Calibri, sans-serif">LocalTime</text><text class="speech-bubble-content property-value" x="41.22314453125" y="155" alignment-baseline="central" font-size="50px" font-family="&quot;Gill Sans&quot;, &quot;Gill Sans MT&quot;, Calibri, sans-serif">LocalTime</text><text class="speech-bubble-content property-value" x="41.22314453125" y="205" alignment-baseline="central" font-size="50px" font-family="&quot;Gill Sans&quot;, &quot;Gill Sans MT&quot;, Calibri, sans-serif">Date</text><text class="speech-bubble-content property-value" x="41.22314453125" y="255" alignment-baseline="central" font-size="50px" font-family="&quot;Gill Sans&quot;, &quot;Gill Sans MT&quot;, Calibri, sans-serif">boolean</text><text class="speech-bubble-content property-value" x="41.22314453125" y="305" alignment-baseline="central" font-size="50px" font-family="&quot;Gill Sans&quot;, &quot;Gill Sans MT&quot;, Calibri, sans-serif">boolean</text></g><g class="speech-bubble node-speech-bubble" transform="translate(459.4394226074219,-1109.8676486113068) "><path class="speech-bubble-outline" transform="scale(1,-1) " d="M 0 0 L -10 20 L -137.56103515625 20 A 10 10 0 0 0 -147.56103515625 30 L -147.56103515625 80 A 10 10 0 0 0 -137.56103515625 90 L 137.56103515625 90 A 10 10 0 0 0 147.56103515625 80 L 147.56103515625 30 A 10 10 0 0 0 137.56103515625 20 L 10 20 Z" fill="rgb(255, 255, 255)" stroke="rgb(0, 0, 0)" stroke-width="3px"/><text class="speech-bubble-content property-key" x="15.29541015625" y="-55" alignment-baseline="central" text-anchor="end" font-size="50px" font-family="&quot;Gill Sans&quot;, &quot;Gill Sans MT&quot;, Calibri, sans-serif" xml:space="preserve">name: </text><text class="speech-bubble-content property-value" x="15.29541015625" y="-55" alignment-baseline="central" font-size="50px" font-family="&quot;Gill Sans&quot;, &quot;Gill Sans MT&quot;, Calibri, sans-serif">string</text></g></g><g class="layer overlay"><circle class="node overlay" r="100.76111545406326" stroke="none" fill="rgba(255, 255, 255, 0)" cx="5.119833946228027" cy="-571.7655334472656"/><circle class="node overlay" r="100.76111545406326" stroke="none" fill="rgba(255, 255, 255, 0)" cx="1059.1416015625" cy="-571.7655334472656"/><circle class="node ring" r="105.76111545406326" fill="none" stroke="rgba(255, 255, 255, 0)" stroke-width="10px" cx="5.119833946228027" cy="-571.7655334472656"/><circle class="node ring" r="105.76111545406326" fill="none" stroke="rgba(255, 255, 255, 0)" stroke-width="10px" cx="1059.1416015625" cy="-571.7655334472656"/><path class="relationship overlay" fill="rgba(255, 255, 255, 0)" stroke="rgba(255, 255, 255, 0)" stroke-width="10px" transform="translate(459.4394226074219,-571.7655334472656) rotate(0)" d="M 100.04711018780577 4 L 455.94106350101487 4 L 455.94106350101487 16 L 487.94106350101487 0 L 455.94106350101487 -16 L 455.94106350101487 -4 L 100.04711018780577 -4 Z"/><circle class="node overlay" r="89.04711018780577" stroke="none" fill="rgba(255, 255, 255, 0)" cx="459.4394226074219" cy="-571.7655334472656"/><circle class="node ring" r="94.04711018780577" fill="none" stroke="rgba(255, 255, 255, 0)" stroke-width="10px" cx="459.4394226074219" cy="-571.7655334472656"/><path class="relationship overlay" fill="rgba(255, 255, 255, 0)" stroke="rgba(255, 255, 255, 0)" stroke-width="10px" transform="translate(459.4394226074219,-571.7655334472656) rotate(180)" d="M 100.04711018780577 4 L 310.5584732071306 4 L 310.5584732071306 16 L 342.5584732071306 0 L 310.5584732071306 -16 L 310.5584732071306 -4 L 100.04711018780577 -4 Z"/><circle class="node overlay" r="96.83163786911938" stroke="none" fill="rgba(255, 255, 255, 0)" cx="459.4394226074219" cy="-1017.0360107421875"/><circle class="node ring" r="101.83163786911938" fill="none" stroke="rgba(255, 255, 255, 0)" stroke-width="10px" cx="459.4394226074219" cy="-1017.0360107421875"/><path class="relationship overlay" fill="rgba(255, 255, 255, 0)" stroke="rgba(255, 255, 255, 0)" stroke-width="10px" transform="translate(459.4394226074219,-571.7655334472656) rotate(-90)" d="M 100.04711018780577 4 L 305.4388394258025 4 L 305.4388394258025 16 L 337.4388394258025 0 L 305.4388394258025 -16 L 305.4388394258025 -4 L 100.04711018780577 -4 Z"/></g></svg>