<svg xmlns="http://www.w3.org/2000/svg" class="graphdiagram" viewBox="-522.742919921875 -370.63055772703166 1853 932"><g class="layer relationships"><g class="related-pair"><g class="relationship" transform="translate(0,0) rotate(0)"><path class="relationship" d="M 111.76111545406326 4 L 663.7530447021868 4 L 663.7530447021868 16 L 695.7530447021868 0 L 663.7530447021868 -16 L 663.7530447021868 -4 L 111.76111545406326 -4 Z" fill="rgb(0, 0, 0)" stroke="rgb(51, 51, 51)" stroke-width="0px"/><text class="type" text-anchor="middle" baseline-shift="30%" alignment-baseline="alphabetic" x="387.75708007812506" y="0" font-size="50px" font-family="&quot;Gill Sans&quot;, &quot;Gill Sans MT&quot;, Calibri, sans-serif">CONNECTED_TO</text></g></g></g><g class="layer nodes"><circle class="node node-id-0" r="96.76111545406326" fill="rgb(255, 255, 255)" stroke="rgb(0, 0, 0)" stroke-width="8px" cx="0" cy="0"/><g class="caption"><text class="caption node" text-anchor="middle" alignment-baseline="central" x="0" y="0" fill="rgb(51, 51, 51)" font-size="50px" font-family="&quot;Gill Sans&quot;, &quot;Gill Sans MT&quot;, Calibri, sans-serif">Airport</text></g><circle class="node node-id-1" r="96.76111545406326" fill="rgb(255, 255, 255)" stroke="rgb(0, 0, 0)" stroke-width="8px" cx="807.51416015625" cy="0"/><g class="caption"><text class="caption node" text-anchor="middle" alignment-baseline="central" x="807.51416015625" y="0" fill="rgb(51, 51, 51)" font-size="50px" font-family="&quot;Gill Sans&quot;, &quot;Gill Sans MT&quot;, Calibri, sans-serif">Airport</text></g></g><g class="layer properties"><g class="speech-bubble node-speech-bubble" transform="translate(-96.76111545406326,0) "><path class="speech-bubble-outline" transform="scale(-1,1) " d="M 0 0 L 20 -10 L 20 -25 A 10 10 0 0 1 30 -35 L 288.4716796875 -35 A 10 10 0 0 1 298.4716796875 -25 L 298.4716796875 25 A 10 10 0 0 1 288.4716796875 35 L 30 35 A 10 10 0 0 1 20 25 L 20 10 Z" fill="rgb(255, 255, 255)" stroke="rgb(0, 0, 0)" stroke-width="3px"/><text class="speech-bubble-content property-key" x="-152.265625" y="0" alignment-baseline="central" text-anchor="end" font-size="50px" font-family="&quot;Gill Sans&quot;, &quot;Gill Sans MT&quot;, Calibri, sans-serif" xml:space="preserve">code: </text><text class="speech-bubble-content property-value" x="-152.265625" y="0" alignment-baseline="central" font-size="50px" font-family="&quot;Gill Sans&quot;, &quot;Gill Sans MT&quot;, Calibri, sans-serif">string</text></g><g class="speech-bubble relationship-speech-bubble" transform="translate(387.75708007812506,0) "><path class="speech-bubble-outline" transform="scale(1,1) " d="M 0 0 L -10 20 L -270.00732421875 20 A 10 10 0 0 0 -280.00732421875 30 L -280.00732421875 380 A 10 10 0 0 0 -270.00732421875 390 L 270.00732421875 390 A 10 10 0 0 0 280.00732421875 380 L 280.00732421875 30 A 10 10 0 0 0 270.00732421875 20 L 10 20 Z" fill="rgb(255, 255, 255)" stroke="rgb(0, 0, 0)" stroke-width="3px"/><text class="speech-bubble-content property-key" x="41.22314453125" y="55" alignment-baseline="central" text-anchor="end" font-size="50px" font-family="&quot;Gill Sans&quot;, &quot;Gill Sans MT&quot;, Calibri, sans-serif" xml:space="preserve">airline: </text><text class="speech-bubble-content property-key" x="41.22314453125" y="105" alignment-baseline="central" text-anchor="end" font-size="50px" font-family="&quot;Gill Sans&quot;, &quot;Gill Sans MT&quot;, Calibri, sans-serif" xml:space="preserve">flightNumber: </text><text class="speech-bubble-content property-key" x="41.22314453125" y="155" alignment-baseline="central" text-anchor="end" font-size="50px" font-family="&quot;Gill Sans&quot;, &quot;Gill Sans MT&quot;, Calibri, sans-serif" xml:space="preserve">departure: </text><text class="speech-bubble-content property-key" x="41.22314453125" y="205" alignment-baseline="central" text-anchor="end" font-size="50px" font-family="&quot;Gill Sans&quot;, &quot;Gill Sans MT&quot;, Calibri, sans-serif" xml:space="preserve">arrival: </text><text class="speech-bubble-content property-key" x="41.22314453125" y="255" alignment-baseline="central" text-anchor="end" font-size="50px" font-family="&quot;Gill Sans&quot;, &quot;Gill Sans MT&quot;, Calibri, sans-serif" xml:space="preserve">date: </text><text class="speech-bubble-content property-value" x="41.22314453125" y="55" alignment-baseline="central" font-size="50px" font-family="&quot;Gill Sans&quot;, &quot;Gill Sans MT&quot;, Calibri, sans-serif">string</text><text class="speech-bubble-content property-value" x="41.22314453125" y="105" alignment-baseline="central" font-size="50px" font-family="&quot;Gill Sans&quot;, &quot;Gill Sans MT&quot;, Calibri, sans-serif">string</text><text class="speech-bubble-content property-value" x="41.22314453125" y="155" alignment-baseline="central" font-size="50px" font-family="&quot;Gill Sans&quot;, &quot;Gill Sans MT&quot;, Calibri, sans-serif">LocalTime</text><text class="speech-bubble-content property-value" x="41.22314453125" y="205" alignment-baseline="central" font-size="50px" font-family="&quot;Gill Sans&quot;, &quot;Gill Sans MT&quot;, Calibri, sans-serif">LocalTime</text><text class="speech-bubble-content property-value" x="41.22314453125" y="255" alignment-baseline="central" font-size="50px" font-family="&quot;Gill Sans&quot;, &quot;Gill Sans MT&quot;, Calibri, sans-serif">Date</text><text class="speech-bubble-content property-key" x="41.22314453125" y="305" alignment-baseline="central" text-anchor="end" font-size="50px" font-family="&quot;Gill Sans&quot;, &quot;Gill Sans MT&quot;, Calibri, sans-serif" xml:space="preserve">cancelled: </text><text class="speech-bubble-content property-key" x="41.22314453125" y="355" alignment-baseline="central" text-anchor="end" font-size="50px" font-family="&quot;Gill Sans&quot;, &quot;Gill Sans MT&quot;, Calibri, sans-serif" xml:space="preserve">diverted: </text><text class="speech-bubble-content property-value" x="41.22314453125" y="305" alignment-baseline="central" font-size="50px" font-family="&quot;Gill Sans&quot;, &quot;Gill Sans MT&quot;, Calibri, sans-serif">String</text><text class="speech-bubble-content property-value" x="41.22314453125" y="355" alignment-baseline="central" font-size="50px" font-family="&quot;Gill Sans&quot;, &quot;Gill Sans MT&quot;, Calibri, sans-serif">String</text></g><g class="speech-bubble node-speech-bubble" transform="translate(904.2752756103132,0) "><path class="speech-bubble-outline" transform="scale(1,1) " d="M 0 0 L 20 -10 L 20 -25 A 10 10 0 0 1 30 -35 L 288.4716796875 -35 A 10 10 0 0 1 298.4716796875 -25 L 298.4716796875 25 A 10 10 0 0 1 288.4716796875 35 L 30 35 A 10 10 0 0 1 20 25 L 20 10 Z" fill="rgb(255, 255, 255)" stroke="rgb(0, 0, 0)" stroke-width="3px"/><text class="speech-bubble-content property-key" x="166.2060546875" y="0" alignment-baseline="central" text-anchor="end" font-size="50px" font-family="&quot;Gill Sans&quot;, &quot;Gill Sans MT&quot;, Calibri, sans-serif" xml:space="preserve">code: </text><text class="speech-bubble-content property-value" x="166.2060546875" y="0" alignment-baseline="central" font-size="50px" font-family="&quot;Gill Sans&quot;, &quot;Gill Sans MT&quot;, Calibri, sans-serif">string</text></g></g><g class="layer overlay"><circle class="node overlay" r="100.76111545406326" stroke="none" fill="rgba(255, 255, 255, 0)" cx="0" cy="0"/><circle class="node ring" r="105.76111545406326" fill="none" stroke="rgba(255, 255, 255, 0)" stroke-width="10px" cx="0" cy="0"/><circle class="node overlay" r="100.76111545406326" stroke="none" fill="rgba(255, 255, 255, 0)" cx="807.51416015625" cy="0"/><circle class="node ring" r="105.76111545406326" fill="none" stroke="rgba(255, 255, 255, 0)" stroke-width="10px" cx="807.51416015625" cy="0"/><path class="relationship overlay" fill="rgba(255, 255, 255, 0)" stroke="rgba(255, 255, 255, 0)" stroke-width="10px" transform="translate(0,0) rotate(0)" d="M 111.76111545406326 4 L 663.7530447021868 4 L 663.7530447021868 16 L 695.7530447021868 0 L 663.7530447021868 -16 L 663.7530447021868 -4 L 111.76111545406326 -4 Z"/></g></svg>