<?xml version="1.0"?>
<svg xmlns="http://www.w3.org/2000/svg" width="699.0899658203125" height="314.07318115234375" viewBox="-187.30758666992188 -143.98712158203125 699.0899658203125 314.07318115234375">
<title>Neo4j Graph Visualization</title>
<desc>Created using Neo4j (http://www.neo4j.com/)</desc>
<g class="layer relationships">
    <g class="relationship" transform="translate(327.4864794205912 -3.092983625038727) rotate(433.87182091782506)">
        <path class="outline" fill="#A5ABB6" stroke="none" d="M 40 1 L 41.95435526173644 1 L 41.95435526173644 -1 L 40 -1 Z M 91.82154276173644 1 L 93.77589802347288 1 L 93.77589802347288 4 L 101.77589802347288 0 L 93.77589802347288 -4 L 93.77589802347288 -1 L 91.82154276173644 -1 Z"/>
        <text text-anchor="middle" pointer-events="none" font-size="8px" fill="#000000" x="66.88794901173644" y="3" font-family="sans-serif">SUPPORTS</text>
    </g>
    <g class="relationship" transform="translate(327.4864794205912 -3.092983625038727) rotate(366.8558498427895)">
        <path class="outline" fill="#A5ABB6" stroke="none" d="M 40 1 L 56.77357389870626 1 L 56.77357389870626 -1 L 40 -1 Z M 106.64076139870626 1 L 123.41433529741252 1 L 123.41433529741252 4 L 131.41433529741252 0 L 123.41433529741252 -4 L 123.41433529741252 -1 L 106.64076139870626 -1 Z"/>
        <text text-anchor="middle" pointer-events="none" font-size="8px" fill="#000000" x="81.70716764870626" y="3" font-family="sans-serif">SUPPORTS</text>
    </g>
    <g class="relationship" transform="translate(327.4864794205912 -3.092983625038727) rotate(394.20392175611073)">
        <path class="outline" fill="#A5ABB6" stroke="none" d="M 40 1 L 44.08064093796196 1 L 44.08064093796196 -1 L 40 -1 Z M 93.94782843796196 1 L 98.02846937592392 1 L 98.02846937592392 4 L 106.02846937592392 0 L 98.02846937592392 -4 L 98.02846937592392 -1 L 93.94782843796196 -1 Z"/>
        <text text-anchor="middle" pointer-events="none" font-size="8px" fill="#000000" x="69.01423468796196" y="3" font-family="sans-serif">SUPPORTS</text>
    </g>
    <g class="relationship" transform="translate(327.4864794205912 -3.092983625038727) rotate(244.17177129191316)">
        <path class="outline" fill="#A5ABB6" stroke="none" d="M 40 1 L 40.72261467978497 1 L 40.72261467978497 -1 L 40 -1 Z M 90.58980217978497 1 L 91.31241685956994 1 L 91.31241685956994 4 L 99.31241685956994 0 L 91.31241685956994 -4 L 91.31241685956994 -1 L 90.58980217978497 -1 Z"/>
        <text text-anchor="middle" pointer-events="none" font-size="8px" fill="#000000" x="65.65620842978497" y="3" transform="rotate(180 65.65620842978497 0)" font-family="sans-serif">SUPPORTS</text>
    </g>
    <g class="relationship" transform="translate(327.4864794205912 -3.092983625038727) rotate(311.03557687897364)">
        <path class="outline" fill="#A5ABB6" stroke="none" d="M 40 1 L 42.35841904121299 1 L 42.35841904121299 -1 L 40 -1 Z M 92.22560654121298 1 L 94.58402558242598 1 L 94.58402558242598 4 L 102.58402558242598 0 L 94.58402558242598 -4 L 94.58402558242598 -1 L 92.22560654121298 -1 Z"/>
        <text text-anchor="middle" pointer-events="none" font-size="8px" fill="#000000" x="67.29201279121298" y="3" font-family="sans-serif">SUPPORTS</text>
    </g>
    <g class="relationship" transform="translate(327.4864794205912 -3.092983625038727) rotate(340.55755181853294)">
        <path class="outline" fill="#A5ABB6" stroke="none" d="M 40 1 L 41.20829468620296 1 L 41.20829468620296 -1 L 40 -1 Z M 91.07548218620296 1 L 92.28377687240592 1 L 92.28377687240592 4 L 100.28377687240592 0 L 92.28377687240592 -4 L 92.28377687240592 -1 L 91.07548218620296 -1 Z"/>
        <text text-anchor="middle" pointer-events="none" font-size="8px" fill="#000000" x="66.14188843620296" y="3" font-family="sans-serif">SUPPORTS</text>
    </g>
    <g class="relationship" transform="translate(327.4864794205912 -3.092983625038727) rotate(214.8624225315384)">
        <path class="outline" fill="#A5ABB6" stroke="none" d="M 40 1 L 42.64353519651114 1 L 42.64353519651114 -1 L 40 -1 Z M 92.51072269651114 1 L 95.15425789302228 1 L 95.15425789302228 4 L 103.15425789302228 0 L 95.15425789302228 -4 L 95.15425789302228 -1 L 92.51072269651114 -1 Z"/>
        <text text-anchor="middle" pointer-events="none" font-size="8px" fill="#000000" x="67.57712894651114" y="3" transform="rotate(180 67.57712894651114 0)" font-family="sans-serif">SUPPORTS</text>
    </g>
    <g class="relationship" transform="translate(327.4864794205912 -3.092983625038727) rotate(185.9233876419106)">
        <path class="outline" fill="#A5ABB6" stroke="none" d="M 40 1 L 45.02921263521914 1 L 45.02921263521914 -1 L 40 -1 Z M 94.89640013521914 1 L 99.92561277043828 1 L 99.92561277043828 4 L 107.92561277043828 0 L 99.92561277043828 -4 L 99.92561277043828 -1 L 94.89640013521914 -1 Z"/>
        <text text-anchor="middle" pointer-events="none" font-size="8px" fill="#000000" x="69.96280638521914" y="3" transform="rotate(180 69.96280638521914 0)" font-family="sans-serif">SUPPORTS</text>
    </g>
    <g class="relationship" transform="translate(146.27280421081792 56.53393399589364) rotate(522.2973275519649)">
        <path class="outline" fill="#A5ABB6" stroke="none" d="M 40 1 L 40.93130602522049 1 L 40.93130602522049 -1 L 40 -1 Z M 105.6148997752205 1 L 106.54620580044099 1 L 106.54620580044099 4 L 114.54620580044099 0 L 106.54620580044099 -4 L 106.54620580044099 -1 L 105.6148997752205 -1 Z"/>
        <text text-anchor="middle" pointer-events="none" font-size="8px" fill="#000000" x="73.2731029002205" y="3" transform="rotate(180 73.2731029002205 0)" font-family="sans-serif">EXTENDED_BY</text>
    </g>
    <g class="relationship" transform="translate(146.27280421081792 56.53393399589364) rotate(206.81075570589854)">
        <path class="outline" fill="#A5ABB6" stroke="none" d="M 40 1 L 48.98557220750338 1 L 48.98557220750338 -1 L 40 -1 Z M 95.43869720750338 1 L 104.42426941500676 1 L 104.42426941500676 4 L 112.42426941500676 0 L 104.42426941500676 -4 L 104.42426941500676 -1 L 95.43869720750338 -1 Z"/>
        <text text-anchor="middle" pointer-events="none" font-size="8px" fill="#000000" x="72.21213470750338" y="3" transform="rotate(180 72.21213470750338 0)" font-family="sans-serif">INCLUDES</text>
    </g>
    <g class="relationship" transform="translate(146.27280421081792 56.53393399589364) rotate(387.7889035915265)">
        <path class="outline" fill="#A5ABB6" stroke="none" d="M 40 1 L 46.097062145538146 1 L 46.097062145538146 -1 L 40 -1 Z M 93.44081214553815 1 L 99.53787429107629 1 L 99.53787429107629 4 L 107.53787429107629 0 L 99.53787429107629 -4 L 99.53787429107629 -1 L 93.44081214553815 -1 Z"/>
        <text text-anchor="middle" pointer-events="none" font-size="8px" fill="#000000" x="69.76893714553815" y="3" font-family="sans-serif">PROVIDES</text>
    </g>
    <g class="relationship" transform="translate(146.27280421081792 56.53393399589364) rotate(341.7866209448681)">
        <path class="outline" fill="#A5ABB6" stroke="none" d="M 40 1 L 53.49707835532351 1 L 53.49707835532351 -1 L 40 -1 Z M 129.2744221053235 1 L 142.77150046064702 1 L 142.77150046064702 4 L 150.77150046064702 0 L 142.77150046064702 -4 L 142.77150046064702 -1 L 129.2744221053235 -1 Z"/>
        <text text-anchor="middle" pointer-events="none" font-size="8px" fill="#000000" x="91.38575023032351" y="3" font-family="sans-serif">CONNECTS_WITH</text>
    </g>
    <g class="relationship" transform="translate(-0.9552213462672796 103.52795721028258) rotate(522.7379327084433)">
        <path class="outline" fill="#A5ABB6" stroke="none" d="M 40 1 L 41.18238814866634 1 L 41.18238814866634 -1 L 40 -1 Z M 92.38551314866635 1 L 93.56790129733268 1 L 93.56790129733268 4 L 101.56790129733268 0 L 93.56790129733268 -4 L 93.56790129733268 -1 L 92.38551314866635 -1 Z"/>
        <text text-anchor="middle" pointer-events="none" font-size="8px" fill="#000000" x="66.78395064866635" y="3" transform="rotate(180 66.78395064866635 0)" font-family="sans-serif">PLUG_INTO</text>
    </g>
    <g class="relationship" transform="translate(-0.9552213462672796 103.52795721028258) rotate(187.53941100857026)">
        <path class="outline" fill="#A5ABB6" stroke="none" d="M 40 1 L 57.26072271984164 1 L 57.26072271984164 -1 L 40 -1 Z M 108.46384771984164 1 L 125.72457043968328 1 L 125.72457043968328 4 L 133.72457043968328 0 L 125.72457043968328 -4 L 125.72457043968328 -1 L 108.46384771984164 -1 Z"/>
        <text text-anchor="middle" pointer-events="none" font-size="8px" fill="#000000" x="82.86228521984164" y="3" transform="rotate(180 82.86228521984164 0)" font-family="sans-serif">PLUG_INTO</text>
    </g>
    <g class="relationship" transform="translate(10.23396650760121 -12.216284498715027) rotate(520.7733559396468)">
        <path class="outline" fill="#A5ABB6" stroke="none" d="M 40 1 L 47.05297136924982 1 L 47.05297136924982 -1 L 40 -1 Z M 69.50219011924982 1 L 76.55516148849964 1 L 76.55516148849964 4 L 84.55516148849964 0 L 76.55516148849964 -4 L 76.55516148849964 -1 L 69.50219011924982 -1 Z"/>
        <text text-anchor="middle" pointer-events="none" font-size="8px" fill="#000000" x="58.27758074424982" y="3" transform="rotate(180 58.27758074424982 0)" font-family="sans-serif">HAS</text>
    </g>
    <g class="relationship" transform="translate(10.23396650760121 -12.216284498715027) rotate(344.9032825216607)">
        <path class="outline" fill="#A5ABB6" stroke="none" d="M 40 1 L 44.810831634987004 1 L 44.810831634987004 -1 L 40 -1 Z M 67.26005038498701 1 L 72.07088201997401 1 L 72.07088201997401 4 L 80.07088201997401 0 L 72.07088201997401 -4 L 72.07088201997401 -1 L 67.26005038498701 -1 Z"/>
        <text text-anchor="middle" pointer-events="none" font-size="8px" fill="#000000" x="56.035441009987004" y="3" font-family="sans-serif">HAS</text>
    </g>
    <g class="relationship" transform="translate(10.23396650760121 -12.216284498715027) rotate(199.8193459112951)">
        <path class="outline" fill="#A5ABB6" stroke="none" d="M 40 1 L 48.436544835360586 1 L 48.436544835360586 -1 L 40 -1 Z M 70.88576358536059 1 L 79.32230842072117 1 L 79.32230842072117 4 L 87.32230842072117 0 L 79.32230842072117 -4 L 79.32230842072117 -1 L 70.88576358536059 -1 Z"/>
        <text text-anchor="middle" pointer-events="none" font-size="8px" fill="#000000" x="59.661154210360586" y="3" transform="rotate(180 59.661154210360586 0)" font-family="sans-serif">HAS</text>
    </g>
</g>
<g class="layer nodes">
    <a class="interactive-svg" href="https://neo4j.com/developer/java/">
        <g class="node" transform="translate(195.2705863751395,-16.8107150916544)">
            <circle class="outline" cx="0" cy="0" r="25" fill="#D9C8AE" stroke="#c0a378" stroke-width="2px"/>
            <text text-anchor="middle" pointer-events="none" font-family="sans-serif" dy="1.5625" font-size="25" fill="#604A0E"/>
            <text text-anchor="middle" pointer-events="none" y="5" font-size="10px" fill="#604A0E" font-family="sans-serif"> Java</text>
        </g>
    </a>
    <a class="interactive-svg" href="https://neo4j.com/developer/javascript/">
        <g class="node" transform="translate(222.3324581332078,-76.346963880065)">
            <circle class="outline" cx="0" cy="0" r="25" fill="#D9C8AE" stroke="#c0a378" stroke-width="2px"/>
            <text text-anchor="middle" pointer-events="none" font-family="sans-serif" dy="1.5625" font-size="25" fill="#604A0E"/>
            <text text-anchor="middle" pointer-events="none" y="5" font-size="10px" fill="#604A0E" font-family="sans-serif"> Javascript</text>
        </g>
    </a>
    <a class="interactive-svg" href="https://neo4j.com/developer/python/">
        <g class="node" transform="translate(445.6261135451432,-44.79492118592168)">
            <circle class="outline" cx="0" cy="0" r="25" fill="#D9C8AE" stroke="#c0a378" stroke-width="2px"/>
            <text text-anchor="middle" pointer-events="none" font-family="sans-serif" dy="1.5625" font-size="25" fill="#604A0E"/>
            <text text-anchor="middle" pointer-events="none" y="5" font-size="10px" fill="#604A0E" font-family="sans-serif"> Python</text>
        </g>
    </a>
    <a class="interactive-svg" href="https://neo4j.com/developer/dotnet/">
        <g class="node" transform="translate(411.2489042310692,-99.329877660986)">
            <circle class="outline" cx="0" cy="0" r="25" fill="#D9C8AE" stroke="#c0a378" stroke-width="2px"/>
            <text text-anchor="middle" pointer-events="none" font-family="sans-serif" dy="1.5625" font-size="25" fill="#604A0E"/>
            <text text-anchor="middle" pointer-events="none" y="5" font-size="10px" fill="#604A0E" font-family="sans-serif"> .Net</text>
        </g>
    </a>
    <a class="interactive-svg" href="https://neo4j.com/developer/php/">
        <g class="node" transform="translate(273.3267145566171,-114.98711597945008)">
            <circle class="outline" cx="0" cy="0" r="25" fill="#D9C8AE" stroke="#c0a378" stroke-width="2px"/>
            <text text-anchor="middle" pointer-events="none" font-family="sans-serif" dy="1.5625" font-size="25" fill="#604A0E"/>
            <text text-anchor="middle" pointer-events="none" y="5" font-size="10px" fill="#604A0E" font-family="sans-serif"> PHP</text>
        </g>
    </a>
    <a class="interactive-svg" href="https://neo4j.com/open-source-project/">
        <g class="node" transform="translate(276.7953247798569,125.3183506513704)">
            <circle class="outline" cx="0" cy="0" r="40" fill="#F16667" stroke="#eb2728" stroke-width="2px"/>
            <text text-anchor="middle" pointer-events="none" font-family="sans-serif" dy="2.5" font-size="40" fill="#FFFFFF"/>
            <text text-anchor="middle" pointer-events="none" y="0" font-size="13px" fill="#FFFFFF" font-family="sans-serif" font-weight="600">Open</text>
            <text text-anchor="middle" pointer-events="none" y="12" font-size="13px" fill="#FFFFFF" font-family="sans-serif" font-weight="600">Source</text>
        </g>
    </a>
    <a class="interactive-svg" href="https://neo4j.com/developer/language-guides/">
        <g class="node" transform="translate(327.4864794205912,-3.092983625038727)">
            <circle class="outline" cx="0" cy="0" r="40" fill="#57C7E3" stroke="#23b3d7" stroke-width="2px"/>
            <text text-anchor="middle" pointer-events="none" font-family="sans-serif" dy="2.5" font-size="40" fill="#FFFFFF"/>
            <text text-anchor="middle" pointer-events="none" y="5" font-size="13px" fill="#FFFFFF" font-family="sans-serif" font-weight="600">Drivers</text>
        </g>
    </a>
    <a class="interactive-svg" href="https://neo4j.com/">
        <g class="node" transform="translate(146.27280421081792,56.53393399589364)">
            <circle class="outline" cx="0" cy="0" r="40" fill="#8DCC93" stroke="#5db665" stroke-width="2px"/>
            <text text-anchor="middle" pointer-events="none" font-family="sans-serif" dy="2.5" font-size="40" fill="#604A0E"/>
            <text text-anchor="middle" pointer-events="none" y="5" font-size="18px" fill="#FFFFFF" font-family="sans-serif" font-weight="600">Neo4j</text>
        </g>
    </a>
    <a class="interactive-svg" href="https://neo4j.com/developer/integration/">
        <g class="node" transform="translate(-0.9552213462672796,103.52795721028258)">
            <circle class="outline" cx="0" cy="0" r="40" fill="#ECB5C9" stroke="#da7298" stroke-width="2px"/>
            <text text-anchor="middle" pointer-events="none" font-family="sans-serif" dy="2.5" font-size="40" fill="#604A0E"/>
            <text text-anchor="middle" pointer-events="none" y="5" font-size="13px" fill="#FFFFFF" font-family="sans-serif" font-weight="600">Integrations</text>
        </g>
    </a>
    <a class="interactive-svg" href="https://neo4j.com/developer/neo4j-browser/">
        <g class="node" transform="translate(10.23396650760121,-12.216284498715027)">
            <circle class="outline" cx="0" cy="0" r="40" fill="#C990C0" stroke="#b261a5" stroke-width="2px"/>
            <text text-anchor="middle" pointer-events="none" font-family="sans-serif" dy="2.5" font-size="40" fill="#FFFFFF"/>
            <text text-anchor="middle" pointer-events="none" y="0" font-size="13px" fill="#FFFFFF" font-family="sans-serif" font-weight="600">Neo4j</text>
            <text text-anchor="middle" pointer-events="none" y="12" font-size="13px" fill="#FFFFFF" font-family="sans-serif" font-weight="600">Browser</text>
        </g>
    </a>
    <a class="interactive-svg" href="https://neo4j.com/developer/ruby/">
        <g class="node" transform="translate(435.85253977554936,70.56335860116062)">
            <circle class="outline" cx="0" cy="0" r="25" fill="#D9C8AE" stroke="#c0a378" stroke-width="2px"/>
            <text text-anchor="middle" pointer-events="none" font-family="sans-serif" dy="1.5625" font-size="25" fill="#604A0E"/>
            <text text-anchor="middle" pointer-events="none" y="5" font-size="10px" fill="#604A0E" font-family="sans-serif"> Ruby</text>
        </g>
    </a>
    <a class="interactive-svg" href="https://neo4j.com/developer/go/">
        <g class="node" transform="translate(482.7823928615736,15.57848003109396)">
            <circle class="outline" cx="0" cy="0" r="25" fill="#D9C8AE" stroke="#c0a378" stroke-width="2px"/>
            <text text-anchor="middle" pointer-events="none" font-family="sans-serif" dy="1.5625" font-size="25" fill="#604A0E"/>
            <text text-anchor="middle" pointer-events="none" y="5" font-size="10px" fill="#604A0E" font-family="sans-serif"> Go</text>
        </g>
    </a>
    <a class="interactive-svg" href="https://neo4j.com/developer/language-guides/">
        <g class="node" transform="translate(362.7031945676293,118.69335096924313)">
            <circle class="outline" cx="0" cy="0" r="25" fill="#D9C8AE" stroke="#c0a378" stroke-width="2px"/>
            <text text-anchor="middle" pointer-events="none" font-family="sans-serif" dy="1.5625" font-size="25" fill="#604A0E"/>
            <text text-anchor="middle" pointer-events="none" y="5" font-size="10px" fill="#604A0E" font-family="sans-serif"> And More</text>
        </g>
    </a>
    <a class="interactive-svg" href="https://neo4j.com/developer/cypher/">
        <g class="node" transform="translate(-95.43508054357102,-50.29979095829356)">
            <circle class="outline" cx="0" cy="0" r="25" fill="#D9C8AE" stroke="#c0a378" stroke-width="2px"/>
            <text text-anchor="middle" pointer-events="none" font-family="sans-serif" dy="1.5625" font-size="25" fill="#604A0E"/>
            <text text-anchor="middle" pointer-events="none" y="5" font-size="10px" fill="#604A0E" font-family="sans-serif"> Cypher</text>
        </g>
    </a>
    <a class="interactive-svg" href="https://neo4j.com/developer/graph-visualization/">
        <g class="node" transform="translate(111.67859536564782,-39.581911191858296)">
            <circle class="outline" cx="0" cy="0" r="25" fill="#D9C8AE" stroke="#c0a378" stroke-width="2px"/>
            <text text-anchor="middle" pointer-events="none" font-family="sans-serif" dy="1.5625" font-size="25" fill="#604A0E"/>
            <text text-anchor="middle" pointer-events="none" y="5" font-size="9px" fill="#604A0E" font-family="sans-serif"> Visualization</text>
        </g>
    </a>
    <a class="interactive-svg" href="https://neo4j.com/developer/neo4j-browser/">
        <g class="node" transform="translate(-93.21057359298362,23.860862452640916)">
            <circle class="outline" cx="0" cy="0" r="25" fill="#D9C8AE" stroke="#c0a378" stroke-width="2px"/>
            <text text-anchor="middle" pointer-events="none" font-family="sans-serif" dy="1.5625" font-size="25" fill="#604A0E"/>
            <text text-anchor="middle" pointer-events="none" y="5" font-size="10px" fill="#604A0E" font-family="sans-serif"> Dev Tools</text>
        </g>
    </a>
    <a class="interactive-svg" href="https://neo4j.com/developer/ecosystem/">
        <g class="node" transform="translate(-158.30759313734814,82.70200337898255)">
            <circle class="outline" cx="0" cy="0" r="25" fill="#D9C8AE" stroke="#c0a378" stroke-width="2px"/>
            <text text-anchor="middle" pointer-events="none" font-family="sans-serif" dy="1.5625" font-size="25" fill="#604A0E"/>
            <text text-anchor="middle" pointer-events="none" y="5" font-size="10px" fill="#604A0E" font-family="sans-serif"> Tools</text>
        </g>
    </a>
    <a class="interactive-svg" href="https://neo4j.com/developer/ecosystem/">
        <g class="node" transform="translate(-121.82218383316447,141.08605910591004)">
            <circle class="outline" cx="0" cy="0" r="25" fill="#D9C8AE" stroke="#c0a378" stroke-width="2px"/>
            <text text-anchor="middle" pointer-events="none" font-family="sans-serif" dy="1.5625" font-size="25" fill="#604A0E"/>
            <text text-anchor="middle" pointer-events="none" y="5" font-size="9px" fill="#604A0E" font-family="sans-serif"> Frameworks</text>
        </g>
    </a>
</g>
</svg>